<?xml version="1.0" encoding="UTF-8" standalone="no"?>
<svg
   xmlns:dc="http://purl.org/dc/elements/1.1/"
   xmlns:cc="http://creativecommons.org/ns#"
   xmlns:rdf="http://www.w3.org/1999/02/22-rdf-syntax-ns#"
   xmlns:svg="http://www.w3.org/2000/svg"
   xmlns="http://www.w3.org/2000/svg"
   xmlns:sodipodi="http://sodipodi.sourceforge.net/DTD/sodipodi-0.dtd"
   xmlns:inkscape="http://www.inkscape.org/namespaces/inkscape"
   xml:space="preserve"
   enable-background="new 0 0 439.478 283.486"
   viewBox="0 0 318.32511 31.352182"
   height="31.35218"
   width="318.3251"
   y="0px"
   x="0px"
   id="Layer_1"
   version="1.1"
   inkscape:version="0.91 r13725"
   sodipodi:docname="bangarang_plain.svg"><sodipodi:namedview
     pagecolor="#ffffff"
     bordercolor="#666666"
     borderopacity="1"
     objecttolerance="10"
     gridtolerance="10"
     guidetolerance="10"
     inkscape:pageopacity="0"
     inkscape:pageshadow="2"
     inkscape:window-width="1920"
     inkscape:window-height="1059"
     id="namedview16"
     showgrid="false"
     inkscape:zoom="3.3801921"
     inkscape:cx="164.71305"
     inkscape:cy="-2.0924657"
     inkscape:window-x="0"
     inkscape:window-y="21"
     inkscape:window-maximized="1"
     inkscape:current-layer="Layer_1"
     inkscape:object-paths="false"
     inkscape:object-nodes="true"
     inkscape:snap-intersection-paths="false" /><metadata
     id="metadata109"><rdf:RDF><cc:Work
         rdf:about=""><dc:format>image/svg+xml</dc:format><dc:type
           rdf:resource="http://purl.org/dc/dcmitype/StillImage" /><dc:title /></cc:Work></rdf:RDF></metadata><defs
     id="defs107" /><g
     transform="translate(-61.457031,-116.62677)"
     id="g93" /><g
     id="g4167"
     style="fill:#ffffff"><path
       d="m 156.09045,0.62506796 -5.46289,11.36524104 -2.74414,-3.19922 -2.64843,2.27148 3.74023,4.36133 -7.50391,15.611331 5.34766,0 5.44922,-11.771491 6.29687,7.341801 6.98633,-7.962891 5.81055,12.392581 5.73828,0 -8.26562,-16.132811 3.20703,-3.65625 -2.6211,-2.30078 -2.29687,2.61914 -5.60547,-10.93946104 -5.42774,0 z m 2.92188,4.06641104 4.92383,10.50391 -5.33985,6.08593 -4.71679,-5.5 5.13281,-11.08984 z"
       id="polygon59-1"
       style="fill:#ffffff"
       inkscape:connector-curvature="0" /><path
       d="m 0,0.70135 0,30.45899 14.541016,0 c 2.427,0 4.480344,-0.17172 6.152344,-0.51172 1.674,-0.338 3.063828,-0.83886 4.173828,-1.50586 1.11,-0.664 2.041875,-1.60998 2.796875,-2.83398 0.755,-1.227 1.132812,-2.55252 1.132812,-3.97852 0,-1.773 -0.620375,-3.31033 -1.859375,-4.61133 -1.24,-1.303 -3.014312,-2.22662 -5.320312,-2.76562 1.786,-0.706 3.121859,-1.6342 4.005859,-2.7832 0.885,-1.14901 1.328125,-2.37574 1.328125,-3.67774 0,-1.4 -0.500047,-2.73848 -1.498047,-4.02148 -0.995,-1.281 -2.374765,-2.22971 -4.134765,-2.84571 -1.761,-0.615 -4.095766,-0.92383 -7.009766,-0.92383 L 0,0.70135 Z m 6.658203,3.59376 6.009766,0 c 2.74,0 4.673781,0.14278 5.800781,0.42578 1.127,0.285 1.994563,0.81007 2.601563,1.58007 0.608,0.769 0.910156,1.65697 0.910156,2.66797 0,1.067 -0.325609,1.95321 -0.974609,2.65821 -0.651,0.708 -1.617391,1.21557 -2.900391,1.51757 -0.0123,0.003 -0.03046,0.005 -0.04297,0.008 L 6.658202,4.29529 Z m -1.611328,2.06054 9.179688,7.13086 c -0.306598,0.005 -0.598607,0.0137 -0.933594,0.0137 l -8.244141,0 -0.002,0 0,-7.14453 z m 0.002,10.73828 8.81836,0 c 0.118996,0 0.219667,0.005 0.335937,0.006 l -9.154297,7.85547 0,-7.86133 z m 12.904297,0.23438 c 0.552388,0.0753 1.066055,0.16315 1.494141,0.27539 1.291,0.339 2.30125,0.92762 3.03125,1.76562 0.728,0.837 1.091797,1.82394 1.091797,2.96094 0,0.969 -0.25386,1.82345 -0.75586,2.56445 -0.504,0.742 -1.143828,1.30536 -1.923828,1.69336 -0.781,0.388 -1.752062,0.66503 -2.914062,0.83204 -0.659,0.097 -1.804594,0.14453 -3.433594,0.14453 l -8.517578,0 11.927734,-10.23633 z"
       id="path5"
       style="fill:#ffffff"
       inkscape:connector-curvature="0" /><path
       d="m 44.794919,0.62518 -5.46289,11.36524 -2.742185,-3.19922 -2.648437,2.27148 3.740234,4.36133 -7.503906,15.61133 5.345703,0 5.449221,-11.77344 6.29883,7.34375 6.98632,-7.96289 5.8086,12.39258 5.74023,0 -8.26562,-16.13281 3.20703,-3.65625 -2.62305,-2.30078 -2.29687,2.61718 -5.60352,-10.9375 -5.42969,0 z m 2.92383,4.06641 4.92383,10.50391 -5.3418,6.08593 -4.71679,-5.5 5.13476,-11.08984 z"
       id="polygon45"
       style="fill:#ffffff"
       inkscape:connector-curvature="0" /><path
       d="m 225.05859,0.62518 -5.46289,11.36524 -2.74414,-3.19922 -2.64843,2.27148 3.74023,4.36133 -7.50391,15.61133 5.34766,0 5.44922,-11.77149 6.29687,7.3418 6.98633,-7.96289 5.81055,12.39258 5.73828,0 -8.26562,-16.13281 3.20703,-3.65625 -2.6211,-2.30078 -2.29687,2.61914 -5.60547,-10.93946 -5.42774,0 z m 2.92188,4.06641 4.92383,10.50391 -5.33985,6.08593 -4.71679,-5.5 5.13281,-11.08984 z"
       id="polygon59"
       style="fill:#ffffff"
       inkscape:connector-curvature="0" /><path
       d="m 69.091799,0.62518 0,30.41016 4.83203,0 0,-23.11523 18.04492,23.11523 7.11914,0 0,-30.41016 -4.83008,0 0,23.09571 -18.04492,-23.09571 -7.12109,0 z m 5.08008,1.92774 19.83789,24.2832 0,2.30664 -19.83789,-24.39258 0,-2.19726 z"
       id="path67"
       style="fill:#ffffff"
       inkscape:connector-curvature="0" /><path
       d="m 248.12588,0.62507 0,30.41016 4.83203,0 0,-23.11523 18.04492,23.11523 7.11914,0 0,-30.41016 -4.83008,0 0,23.09571 -18.04492,-23.09571 -7.12109,0 z m 5.08008,1.92774 19.83789,24.2832 0,2.30664 -19.83789,-24.39258 0,-2.19726 z"
       id="path67-0"
       style="fill:#ffffff"
       inkscape:connector-curvature="0" /><path
       id="rect83"
       style="color:#000000;font-style:normal;font-variant:normal;font-weight:normal;font-stretch:normal;font-size:medium;line-height:normal;font-family:sans-serif;text-indent:0;text-align:start;text-decoration:none;text-decoration-line:none;text-decoration-style:solid;text-decoration-color:#000000;letter-spacing:normal;word-spacing:normal;text-transform:none;direction:ltr;block-progression:tb;writing-mode:lr-tb;baseline-shift:baseline;text-anchor:start;white-space:normal;clip-rule:nonzero;display:inline;overflow:visible;visibility:visible;opacity:1;isolation:auto;mix-blend-mode:normal;color-interpolation:sRGB;color-interpolation-filters:linearRGB;solid-color:#000000;solid-opacity:1;fill:#ffffff;fill-opacity:1;fill-rule:nonzero;stroke:none;stroke-width:0.85720003;stroke-linecap:butt;stroke-linejoin:miter;stroke-miterlimit:10;stroke-dasharray:none;stroke-dashoffset:0;stroke-opacity:1;color-rendering:auto;image-rendering:auto;shape-rendering:auto;text-rendering:auto;enable-background:accumulate"
       d="m 122.02344,1.8e-4 c -10.482,0 -19.07227,6.80635 -19.07227,15.32032 0,8.51398 8.59035,15.3164 19.07227,15.3164 10.12365,0 18.47481,-6.33865 19.03711,-14.45312 l 0,-0.004 0,-0.004 c 0.006,-0.10889 0.0151,-0.22928 0.0195,-0.35937 l 0.0156,-0.44336 -1.09375,0 -13.64257,0 0,3.56836 9.60156,0 c -1.87802,4.51579 -7.0877,7.90179 -13.43359,8.07422 l 0,-23.39453 c 7.1137,0.19094 12.90624,4.36887 14.05859,9.71289 l 0.0859,0.40234 4.21484,-0.73047 -0.0996,-0.4414 C 139.15865,5.36564 131.34601,0 122.02336,0 Z m 0,0.85743 c 8.79508,0 16.0428,4.97287 17.7793,11.46679 L 137.25,12.76776 C 135.7947,7.1428 129.79674,2.95318 122.52735,2.76581 l 0,-0.12305 -3.57227,0 0,0.35156 c -7.13206,1.14178 -12.5625,6.1835 -12.5625,12.32422 0,6.14073 5.43047,11.1844 12.5625,12.32617 l 0,1.34571 3.57227,0 0,-1.11914 c 6.94477,-0.1774 12.78577,-3.97416 14.57226,-9.22071 l 0.19336,-0.5664 -10.07617,0 0,-1.85352 12.78515,0 0.1836,0 c -0.59116,7.50742 -8.44242,13.54883 -18.16211,13.54883 -10.11208,0 -18.21484,-6.52495 -18.21485,-14.45898 0,-7.93402 8.10285,-14.4629 18.21485,-14.46289 z m -3.06836,3.00195 0,22.91601 C 112.23549,25.65095 107.25,20.91164 107.25,15.31854 c 0,-5.59309 4.98552,-10.33397 11.70508,-11.45898 z m 21.41334,8.8013 c -1.573,-6.954 -9.188,-12.231 -18.346,-12.231 -10.297,0 -18.643,6.667 -18.643,14.891 0,8.224 8.346,14.888 18.643,14.888 9.945,0 18.068,-6.218 18.611,-14.054 0.006,-0.116 0.015,-0.234 0.019,-0.352 l -0.651,0 -13.213,0 0,2.711 9.905,0 c -1.756,5.157 -7.659,8.947 -14.671,8.947 -8.398,0 -15.202,-5.435 -15.202,-12.141 0,-6.706 6.804,-12.143 15.202,-12.143 7.51,0 13.749,4.35 14.982,10.068 l 3.364,-0.584 z"
       inkscape:connector-curvature="0" /><path
       id="rect83-3"
       style="color:#000000;font-style:normal;font-variant:normal;font-weight:normal;font-stretch:normal;font-size:medium;line-height:normal;font-family:sans-serif;text-indent:0;text-align:start;text-decoration:none;text-decoration-line:none;text-decoration-style:solid;text-decoration-color:#000000;letter-spacing:normal;word-spacing:normal;text-transform:none;direction:ltr;block-progression:tb;writing-mode:lr-tb;baseline-shift:baseline;text-anchor:start;white-space:normal;clip-rule:nonzero;display:inline;overflow:visible;visibility:visible;opacity:1;isolation:auto;mix-blend-mode:normal;color-interpolation:sRGB;color-interpolation-filters:linearRGB;solid-color:#000000;solid-opacity:1;fill:#ffffff;fill-opacity:1;fill-rule:nonzero;stroke:none;stroke-width:0.85720003;stroke-linecap:butt;stroke-linejoin:miter;stroke-miterlimit:10;stroke-dasharray:none;stroke-dashoffset:0;stroke-opacity:1;color-rendering:auto;image-rendering:auto;shape-rendering:auto;text-rendering:auto;enable-background:accumulate"
       d="m 299.25289,0.71546 c -10.482,0 -19.07227,6.80635 -19.07227,15.32032 0,8.51398 8.59035,15.3164 19.07227,15.3164 10.12365,0 18.47481,-6.33865 19.03711,-14.45312 l 0,-0.004 0,-0.004 c 0.006,-0.10889 0.0151,-0.22928 0.0195,-0.35937 l 0.0156,-0.44336 -1.09375,0 -13.64257,0 0,3.56836 9.60156,0 c -1.87802,4.51579 -7.0877,7.90179 -13.43359,8.07422 l 0,-23.39453 c 7.1137,0.19094 12.90624,4.36887 14.05859,9.71289 l 0.0859,0.40234 4.21484,-0.73047 -0.0996,-0.4414 C 316.3881,6.08092 308.57546,0.71528 299.25281,0.71528 Z m 0,0.85743 c 8.79508,0 16.0428,4.97287 17.7793,11.46679 l -2.55274,0.44336 C 313.02415,7.85808 307.02619,3.66846 299.7568,3.48109 l 0,-0.12305 -3.57227,0 0,0.35156 c -7.13206,1.14178 -12.5625,6.1835 -12.5625,12.32422 0,6.14073 5.43047,11.1844 12.5625,12.32617 l 0,1.34571 3.57227,0 0,-1.11914 c 6.94477,-0.1774 12.78577,-3.97416 14.57226,-9.22071 l 0.19336,-0.5664 -10.07617,0 0,-1.85352 12.78515,0 0.1836,0 c -0.59116,7.50742 -8.44242,13.54883 -18.16211,13.54883 -10.11208,0 -18.21484,-6.52495 -18.21485,-14.45898 0,-7.93402 8.10285,-14.4629 18.21485,-14.46289 z m -3.06836,3.00195 0,22.91601 c -6.71959,-1.12462 -11.70508,-5.86393 -11.70508,-11.45703 0,-5.59309 4.98552,-10.33397 11.70508,-11.45898 z m 21.41334,8.8013 c -1.573,-6.954 -9.188,-12.231 -18.346,-12.231 -10.297,0 -18.643,6.667 -18.643,14.891 0,8.224 8.346,14.888 18.643,14.888 9.945,0 18.068,-6.218 18.611,-14.054 0.006,-0.116 0.015,-0.234 0.019,-0.352 l -0.651,0 -13.213,0 0,2.711 9.905,0 c -1.756,5.157 -7.659,8.947 -14.671,8.947 -8.398,0 -15.202,-5.435 -15.202,-12.141 0,-6.706 6.804,-12.143 15.202,-12.143 7.51,0 13.749,4.35 14.982,10.068 l 3.364,-0.584 z"
       inkscape:connector-curvature="0" /><path
       id="polygon97"
       d="m 209.08997,31.28723 -4.797,0 -18.809,-28.432 3.768,-1.587 z m -26.901,-0.098 0,-30.925 9.954,0 c 2.55,0 4.493,0.098 5.837,0.296 1.886,0.252 3.466,0.734 4.741,1.444 1.273,0.711 2.301,1.705 3.077,2.984 0.776,1.279 1.165,2.685 1.165,4.219 0,2.631 -1.039,4.854 -3.118,6.678 -2.075,1.82 -5.829,2.731 -11.258,2.731 l -5.319,0 0,12.572 -5.079,0 z m 5.08,-16.223 5.398,0 c 3.282,0 5.611,-0.492 6.992,-1.477 1.376,-0.982 2.067,-2.367 2.067,-4.155 0,-1.293 -0.408,-2.402 -1.219,-3.323 -0.812,-0.92 -1.882,-1.529 -3.206,-1.824 -0.857,-0.184 -2.436,-0.276 -4.74,-0.276 l -5.293,0 0,11.055 z"
       style="fill:#ffffff"
       inkscape:connector-curvature="0" /></g></svg>