<?xml version="1.0" encoding="utf-8"?>
<!-- Generator: Adobe Illustrator 21.0.0, SVG Export Plug-In . SVG Version: 6.00 Build 0)  -->
<svg version="1.1"
	 id="Layer_1" inkscape:version="0.91 r13725" sodipodi:docname="bangarang_catering_logo_white.svg" xmlns:cc="http://creativecommons.org/ns#" xmlns:dc="http://purl.org/dc/elements/1.1/" xmlns:inkscape="http://www.inkscape.org/namespaces/inkscape" xmlns:rdf="http://www.w3.org/1999/02/22-rdf-syntax-ns#" xmlns:sodipodi="http://sodipodi.sourceforge.net/DTD/sodipodi-0.dtd" xmlns:svg="http://www.w3.org/2000/svg"
	 xmlns="http://www.w3.org/2000/svg" xmlns:xlink="http://www.w3.org/1999/xlink" x="0px" y="0px" viewBox="0 0 318.3 156.3"
	 style="enable-background:new 0 0 318.3 156.3;" xml:space="preserve">
<style type="text/css">
	.st0{fill:#FFFFFF;}
</style>
<sodipodi:namedview  bordercolor="#666666" borderopacity="1" fit-margin-bottom="0" fit-margin-left="0" fit-margin-right="0" fit-margin-top="0" gridtolerance="10" guidetolerance="10" id="namedview105" inkscape:bbox-nodes="true" inkscape:bbox-paths="true" inkscape:current-layer="Layer_1" inkscape:cx="82.511041" inkscape:cy="89.748388" inkscape:object-nodes="false" inkscape:pageopacity="0" inkscape:pageshadow="2" inkscape:snap-bbox="true" inkscape:snap-bbox-edge-midpoints="true" inkscape:snap-bbox-midpoints="true" inkscape:snap-intersection-paths="false" inkscape:snap-midpoints="false" inkscape:snap-smooth-nodes="false" inkscape:window-height="1416" inkscape:window-maximized="1" inkscape:window-width="2560" inkscape:window-x="0" inkscape:window-y="24" inkscape:zoom="3.4625028" objecttolerance="10" pagecolor="#cec7c6" showgrid="false">
	</sodipodi:namedview>
<g id="g93" transform="translate(-61.457031,-65.048828)">
</g>
<g id="g4236">
	<g id="g4504" transform="translate(-61.457031,-65.048828)">
		<path id="polyline13" inkscape:connector-curvature="0" class="st0" d="M270.8,77.6l-6.7,5l-43.4,54.7l-41.8-54.7l-6.6-4.9
			l-0.1,0.1l4.6,8.1l43.9,57.5l45.6-57.5L270.8,77.6L270.8,77.6z"/>
		<path id="polyline17" inkscape:connector-curvature="0" class="st0" d="M220.4,137.4l-51.4,64.8l2.9,2.3l48.4-61l46.6,61l2.9-2.2
			L220.4,137.4z"/>
		<path id="polyline21" inkscape:connector-curvature="0" class="st0" d="M173.7,199.1l-21.5,5.4l0.9,3.6l16.8-4.2l-0.2,17.4l3.7,0
			L173.7,199.1z"/>
		<path id="polyline25" inkscape:connector-curvature="0" class="st0" d="M180.9,189.9l-21.5,5.4l0.9,3.6l16.8-4.2l-0.2,17.4l3.7,0
			L180.9,189.9z"/>
		<path id="polyline29" inkscape:connector-curvature="0" class="st0" d="M188.1,180.7l-21.5,5.4l0.9,3.6l16.8-4.2l-0.2,17.4l3.7,0
			L188.1,180.7z"/>
		<path id="polyline33" inkscape:connector-curvature="0" class="st0" d="M265.4,199.1l0.3,22.3l3.7,0l-0.2-17.4l16.8,4.2l0.9-3.6
			L265.4,199.1z"/>
		<path id="polyline37" inkscape:connector-curvature="0" class="st0" d="M258.2,189.9l0.3,22.3l3.7,0l-0.2-17.4l16.8,4.2l0.9-3.6
			L258.2,189.9z"/>
		<path id="polyline41" inkscape:connector-curvature="0" class="st0" d="M251,180.7l0.3,22.3l3.7,0l-0.2-17.4l16.8,4.2l0.9-3.6
			L251,180.7z"/>
		<path id="polygon51" inkscape:connector-curvature="0" class="st0" d="M283.2,65l-39.7,15.7l17.9,6.1l6,18.2l2.5-6.3L283.2,65z
			 M274.4,73.8l-6.6,16.8l-2.5-7.6l-7.5-2.6L274.4,73.8z"/>
		<path id="polygon55" inkscape:connector-curvature="0" class="st0" d="M159.9,65l15.9,40.1l2.1-6.5l3.9-11.7l17.9-6.1L159.9,65z
			 M168.7,73.8l16.7,6.6l-7.5,2.6l-2.5,7.6L168.7,73.8z"/>
	</g>
	<path id="path5" inkscape:connector-curvature="0" class="st0" d="M0,52.3v30.5h14.5c2.4,0,4.5-0.2,6.2-0.5
		c1.7-0.3,3.1-0.8,4.2-1.5c1.1-0.7,2-1.6,2.8-2.8c0.8-1.2,1.1-2.6,1.1-4c0-1.8-0.6-3.3-1.9-4.6c-1.2-1.3-3-2.2-5.3-2.8
		c1.8-0.7,3.1-1.6,4-2.8c0.9-1.1,1.3-2.4,1.3-3.7c0-1.4-0.5-2.7-1.5-4c-1-1.3-2.4-2.2-4.1-2.8c-1.8-0.6-4.1-0.9-7-0.9L0,52.3L0,52.3
		z M6.7,55.9h6c2.7,0,4.7,0.1,5.8,0.4c1.1,0.3,2,0.8,2.6,1.6c0.6,0.8,0.9,1.7,0.9,2.7c0,1.1-0.3,2-1,2.7c-0.7,0.7-1.6,1.2-2.9,1.5
		c0,0,0,0,0,0L6.7,55.9L6.7,55.9z M5,57.9l9.2,7.1c-0.3,0-0.6,0-0.9,0H5h0V57.9L5,57.9z M5,68.7h8.8c0.1,0,0.2,0,0.3,0L5,76.5V68.7
		L5,68.7z M18,68.9c0.6,0.1,1.1,0.2,1.5,0.3c1.3,0.3,2.3,0.9,3,1.8c0.7,0.8,1.1,1.8,1.1,3c0,1-0.3,1.8-0.8,2.6
		c-0.5,0.7-1.1,1.3-1.9,1.7c-0.8,0.4-1.8,0.7-2.9,0.8c-0.7,0.1-1.8,0.1-3.4,0.1H6L18,68.9z"/>
	<path id="polygon11" inkscape:connector-curvature="0" class="st0" d="M161.5,52.2l15.6,30.4h-5.7L159,56.3l-12.2,26.3h-5.3
		l14.6-30.4H161.5z"/>
	<path id="polygon45" inkscape:connector-curvature="0" class="st0" d="M44.8,52.2l-5.5,11.4l-2.7-3.2l-2.6,2.3l3.7,4.4l-7.5,15.6
		h5.3L41,70.8l6.3,7.3l7-8l5.8,12.4h5.7l-8.3-16.1l3.2-3.7l-2.6-2.3l-2.3,2.6l-5.6-10.9L44.8,52.2L44.8,52.2z M47.7,56.3l4.9,10.5
		l-5.3,6.1l-4.7-5.5L47.7,56.3z"/>
	<path id="polygon59" inkscape:connector-curvature="0" class="st0" d="M225.1,52.2l-5.5,11.4l-2.7-3.2l-2.6,2.3l3.7,4.4l-7.5,15.6
		h5.3l5.4-11.8l6.3,7.3l7-8l5.8,12.4h5.7l-8.3-16.1l3.2-3.7l-2.6-2.3l-2.3,2.6l-5.6-10.9L225.1,52.2L225.1,52.2z M228,56.3l4.9,10.5
		l-5.3,6.1l-4.7-5.5L228,56.3z"/>
	<path id="path67" inkscape:connector-curvature="0" class="st0" d="M69.1,52.2v30.4h4.8V59.5l18,23.1h7.1V52.2h-4.8v23.1l-18-23.1
		H69.1z M74.2,54.1L94,78.4v2.3L74.2,56.3V54.1z"/>
	<path id="path67-0" inkscape:connector-curvature="0" class="st0" d="M248.1,52.2v30.4h4.8V59.5l18,23.1h7.1V52.2h-4.8v23.1
		l-18-23.1C255.2,52.2,248.1,52.2,248.1,52.2z M253.2,54.1L273,78.4v2.3l-19.8-24.4L253.2,54.1L253.2,54.1z"/>
	<path id="rect83" inkscape:connector-curvature="0" class="st0" d="M122,51.6c-10.5,0-19.1,6.8-19.1,15.3s8.6,15.3,19.1,15.3
		c10.1,0,18.5-6.3,19-14.5v0v0c0-0.1,0-0.2,0-0.4l0-0.4H140h-13.6v3.6h9.6c-1.9,4.5-7.1,7.9-13.4,8.1V55.2
		c7.1,0.2,12.9,4.4,14.1,9.7l0.1,0.4l4.2-0.7l-0.1-0.4C139.2,56.9,131.3,51.6,122,51.6L122,51.6z M122,52.4c8.8,0,16,5,17.8,11.5
		l-2.6,0.4c-1.5-5.6-7.5-9.8-14.7-10v-0.1H119v0.4c-7.1,1.1-12.6,6.2-12.6,12.3s5.4,11.2,12.6,12.3v1.3h3.6v-1.1
		c6.9-0.2,12.8-4,14.6-9.2l0.2-0.6h-10.1v-1.9H140h0.2c-0.6,7.5-8.4,13.5-18.2,13.5c-10.1,0-18.2-6.5-18.2-14.5S111.9,52.4,122,52.4
		z M119,55.4v22.9c-6.7-1.1-11.7-5.9-11.7-11.5S112.2,56.6,119,55.4z M140.4,64.2c-1.6-7-9.2-12.2-18.3-12.2
		c-10.3,0-18.6,6.7-18.6,14.9s8.3,14.9,18.6,14.9c9.9,0,18.1-6.2,18.6-14.1c0-0.1,0-0.2,0-0.4H140h-13.2v2.7h9.9
		C134.9,75.2,129,79,122,79c-8.4,0-15.2-5.4-15.2-12.1s6.8-12.1,15.2-12.1c7.5,0,13.7,4.3,15,10.1L140.4,64.2L140.4,64.2z"/>
	<path id="rect83-3" inkscape:connector-curvature="0" class="st0" d="M299.3,52.3c-10.5,0-19.1,6.8-19.1,15.3s8.6,15.3,19.1,15.3
		c10.1,0,18.5-6.3,19-14.5v0v0c0-0.1,0-0.2,0-0.4l0-0.4h-1.1h-13.6v3.6h9.6c-1.9,4.5-7.1,7.9-13.4,8.1V55.9
		c7.1,0.2,12.9,4.4,14.1,9.7l0.1,0.4l4.2-0.7l-0.1-0.4C316.4,57.7,308.6,52.3,299.3,52.3L299.3,52.3z M299.3,53.2
		c8.8,0,16,5,17.8,11.5l-2.6,0.4c-1.5-5.6-7.5-9.8-14.7-10v-0.1h-3.6v0.4c-7.1,1.1-12.6,6.2-12.6,12.3s5.4,11.2,12.6,12.3v1.3h3.6
		v-1.1c6.9-0.2,12.8-4,14.6-9.2l0.2-0.6h-10.1v-1.9h12.8h0.2c-0.6,7.5-8.4,13.5-18.2,13.5c-10.1,0-18.2-6.5-18.2-14.5
		S289.1,53.2,299.3,53.2z M296.2,56.2v22.9c-6.7-1.1-11.7-5.9-11.7-11.5S289.5,57.3,296.2,56.2z M317.6,65
		c-1.6-7-9.2-12.2-18.3-12.2c-10.3,0-18.6,6.7-18.6,14.9s8.3,14.9,18.6,14.9c9.9,0,18.1-6.2,18.6-14.1c0-0.1,0-0.2,0-0.4h-0.6H304
		v2.7h9.9c-1.8,5.2-7.7,8.9-14.7,8.9c-8.4,0-15.2-5.4-15.2-12.1s6.8-12.1,15.2-12.1c7.5,0,13.7,4.3,15,10.1L317.6,65z"/>
	<path id="polygon97" inkscape:connector-curvature="0" class="st0" d="M209.1,82.9h-4.8l-18.8-28.4l3.8-1.6L209.1,82.9z
		 M182.2,82.8V51.8h10c2.6,0,4.5,0.1,5.8,0.3c1.9,0.3,3.5,0.7,4.7,1.4c1.3,0.7,2.3,1.7,3.1,3c0.8,1.3,1.2,2.7,1.2,4.2
		c0,2.6-1,4.9-3.1,6.7c-2.1,1.8-5.8,2.7-11.3,2.7h-5.3v12.6L182.2,82.8L182.2,82.8z M187.3,66.5h5.4c3.3,0,5.6-0.5,7-1.5
		c1.4-1,2.1-2.4,2.1-4.2c0-1.3-0.4-2.4-1.2-3.3c-0.8-0.9-1.9-1.5-3.2-1.8c-0.9-0.2-2.4-0.3-4.7-0.3h-5.3L187.3,66.5L187.3,66.5z"/>
	<g id="text99" transform="matrix(1.127,0,0,1,182.69527,97.468772)">
		<path id="path4433" inkscape:connector-curvature="0" class="st0" d="M1.5-11H3v4.5h5.4V-11h1.5V0H8.4v-5.2H3V0H1.5V-11z"/>
		<path id="path4435" inkscape:connector-curvature="0" class="st0" d="M16.5-9.5l-2,5.5h4L16.5-9.5z M15.6-11h1.7l4.2,11H20l-1-2.8
			h-5L13,0h-1.6L15.6-11z"/>
		<path id="path4437" inkscape:connector-curvature="0" class="st0" d="M22.9-11h1.5v6.7c0,1.2,0.2,2,0.6,2.5
			C25.5-1.2,26.2-1,27.2-1c1,0,1.6-0.3,2.1-0.8c0.4-0.5,0.6-1.4,0.6-2.5V-11h1.5v6.9c0,1.4-0.4,2.5-1.1,3.2
			c-0.7,0.7-1.8,1.1-3.1,1.1c-1.4,0-2.4-0.4-3.2-1.1c-0.7-0.7-1.1-1.8-1.1-3.2L22.9-11L22.9-11z"/>
		<path id="path4439" inkscape:connector-curvature="0" class="st0" d="M32.6-11h9.3v1.3H38V0h-1.5v-9.7h-3.9V-11z"/>
		<path id="path4441" inkscape:connector-curvature="0" class="st0" d="M43.4-11h6.9v1.3h-5.5v3.3h5.2v1.3h-5.2v4h5.6V0h-7.1V-11z"
			/>
		<path id="path4443" inkscape:connector-curvature="0" class="st0" d="M65.9-10.1v1.6c-0.5-0.5-1-0.8-1.6-1
			c-0.6-0.2-1.2-0.3-1.8-0.3c-1.3,0-2.2,0.4-2.9,1.2c-0.7,0.8-1,1.9-1,3.3c0,1.4,0.3,2.6,1,3.3C60.3-1.4,61.3-1,62.5-1
			c0.6,0,1.2-0.1,1.8-0.3c0.6-0.2,1.1-0.6,1.6-1v1.6c-0.5,0.4-1.1,0.6-1.7,0.8c-0.6,0.2-1.2,0.3-1.8,0.3c-1.7,0-3-0.5-3.9-1.5
			c-1-1-1.4-2.4-1.4-4.2c0-1.8,0.5-3.2,1.4-4.2c1-1,2.3-1.5,3.9-1.5c0.7,0,1.3,0.1,1.9,0.3C64.9-10.8,65.4-10.5,65.9-10.1z"/>
		<path id="path4445" inkscape:connector-curvature="0" class="st0" d="M68.1-11h1.5v6.7c0,1.2,0.2,2,0.6,2.5
			C70.6-1.2,71.3-1,72.3-1c1,0,1.6-0.3,2.1-0.8C74.8-2.3,75-3.1,75-4.3V-11h1.5v6.9c0,1.4-0.4,2.5-1.1,3.2c-0.7,0.7-1.8,1.1-3.1,1.1
			c-1.4,0-2.4-0.4-3.2-1.1c-0.7-0.7-1.1-1.8-1.1-3.2L68.1-11L68.1-11z"/>
		<path id="path4447" inkscape:connector-curvature="0" class="st0" d="M79.3-11h1.5V0h-1.5V-11z"/>
		<path id="path4449" inkscape:connector-curvature="0" class="st0" d="M90.3-10.6v1.4c-0.6-0.3-1.1-0.5-1.6-0.6
			c-0.5-0.1-1-0.2-1.5-0.2c-0.8,0-1.4,0.2-1.9,0.5c-0.4,0.3-0.7,0.8-0.7,1.3c0,0.5,0.1,0.9,0.4,1.1c0.3,0.2,0.8,0.4,1.7,0.6l0.9,0.2
			c1.1,0.2,1.9,0.6,2.5,1.1C90.7-4.6,91-3.9,91-3c0,1.1-0.4,1.9-1.1,2.4c-0.7,0.5-1.8,0.8-3.1,0.8c-0.5,0-1.1-0.1-1.7-0.2
			c-0.6-0.1-1.2-0.3-1.8-0.5V-2c0.6,0.3,1.2,0.6,1.8,0.8S86.2-1,86.8-1c0.8,0,1.5-0.2,2-0.5c0.5-0.3,0.7-0.8,0.7-1.4
			c0-0.5-0.2-1-0.5-1.3c-0.3-0.3-0.9-0.5-1.6-0.7L86.4-5c-1.1-0.2-1.9-0.6-2.4-1s-0.7-1.1-0.7-2c0-1,0.3-1.7,1-2.3
			c0.7-0.6,1.6-0.8,2.8-0.8c0.5,0,1,0,1.6,0.1C89.2-11,89.8-10.8,90.3-10.6z"/>
		<path id="path4451" inkscape:connector-curvature="0" class="st0" d="M93.3-11h1.5V0h-1.5V-11z"/>
		<path id="path4453" inkscape:connector-curvature="0" class="st0" d="M97.7-11h2l4.9,9.2V-11h1.4V0h-2l-4.9-9.2V0h-1.4L97.7-11
			L97.7-11z"/>
		<path id="path4455" inkscape:connector-curvature="0" class="st0" d="M109-11h6.9v1.3h-5.5v3.3h5.2v1.3h-5.2v4h5.6V0H109L109-11
			L109-11z"/>
	</g>
</g>
</svg>
