<?xml version="1.0" encoding="utf-8"?>
<!-- Generator: Adobe Illustrator 16.0.0, SVG Export Plug-In . SVG Version: 6.00 Build 0)  -->
<!DOCTYPE svg PUBLIC "-//W3C//DTD SVG 1.1//EN" "http://www.w3.org/Graphics/SVG/1.1/DTD/svg11.dtd">
<svg version="1.1"
	 id="Layer_1" sodipodi:docname="bangarang_catering_logo_white.svg" inkscape:version="0.91 r13725" xmlns:dc="http://purl.org/dc/elements/1.1/" xmlns:cc="http://creativecommons.org/ns#" xmlns:rdf="http://www.w3.org/1999/02/22-rdf-syntax-ns#" xmlns:svg="http://www.w3.org/2000/svg" xmlns:sodipodi="http://sodipodi.sourceforge.net/DTD/sodipodi-0.dtd" xmlns:inkscape="http://www.inkscape.org/namespaces/inkscape"
	 xmlns="http://www.w3.org/2000/svg" xmlns:xlink="http://www.w3.org/1999/xlink" x="0px" y="0px" width="318.325px"
	 height="156.334px" viewBox="0 0 318.325 156.334" enable-background="new 0 0 318.325 156.334" xml:space="preserve">
<sodipodi:namedview  inkscape:snap-bbox-edge-midpoints="true" inkscape:snap-intersection-paths="false" inkscape:current-layer="Layer_1" inkscape:window-maximized="1" inkscape:window-y="24" inkscape:window-x="0" fit-margin-bottom="0" fit-margin-right="0" inkscape:snap-bbox-midpoints="true" inkscape:bbox-nodes="true" inkscape:bbox-paths="true" inkscape:snap-bbox="true" inkscape:snap-midpoints="false" inkscape:snap-smooth-nodes="false" inkscape:object-nodes="false" inkscape:window-height="1416" inkscape:window-width="2560" inkscape:pageshadow="2" inkscape:pageopacity="0" inkscape:cy="89.748388" inkscape:cx="82.511041" inkscape:zoom="3.4625028" fit-margin-left="0" fit-margin-top="0" showgrid="false" guidetolerance="10" gridtolerance="10" objecttolerance="10" borderopacity="1" pagecolor="#cec7c6" bordercolor="#666666" id="namedview105">
	</sodipodi:namedview>
<g id="g93" transform="translate(-61.457031,-65.048828)">
</g>
<g id="g4236">
	<g id="g4504" transform="translate(-61.457031,-65.048828)">
		<path id="polyline13" inkscape:connector-curvature="0" fill="#cec7c6" d="M270.756,77.641l-6.652,4.979l-43.411,54.736
			l-41.801-54.732l-6.566-4.916l-0.137,0.104l4.555,8.1l43.895,57.475l45.627-57.531l4.578-8.143L270.756,77.641z"/>
		<path id="polyline17" inkscape:connector-curvature="0" fill="#cec7c6" d="M220.412,137.355l-51.359,64.76l2.902,2.301
			l48.402-61.031l46.592,61.006l2.943-2.248L220.412,137.355z"/>
		<path id="polyline21" inkscape:connector-curvature="0" fill="#cec7c6" d="M173.723,199.129l-21.512,5.426l0.904,3.59
			l16.848-4.248l-0.205,17.443l3.703,0.043L173.723,199.129z"/>
		<path id="polyline25" inkscape:connector-curvature="0" fill="#cec7c6" d="M180.914,189.902l-21.512,5.428l0.906,3.59l16.846-4.25
			l-0.205,17.445l3.703,0.043L180.914,189.902z"/>
		<path id="polyline29" inkscape:connector-curvature="0" fill="#cec7c6" d="M188.107,180.678l-21.512,5.424l0.906,3.592
			l16.846-4.248l-0.205,17.443l3.703,0.043L188.107,180.678z"/>
		<path id="polyline33" inkscape:connector-curvature="0" fill="#cec7c6" d="M265.364,199.129l0.262,22.254l3.703-0.043
			l-0.205-17.443l16.846,4.248l0.906-3.59L265.364,199.129z"/>
		<path id="polyline37" inkscape:connector-curvature="0" fill="#cec7c6" d="M258.172,189.902l0.26,22.256l3.703-0.043
			l-0.205-17.445l16.846,4.25l0.906-3.59L258.172,189.902z"/>
		<path id="polyline41" inkscape:connector-curvature="0" fill="#cec7c6" d="M250.977,180.678l0.264,22.254l3.703-0.043
			l-0.205-17.443l16.846,4.248l0.904-3.592L250.977,180.678z"/>
		<path id="polygon51" inkscape:connector-curvature="0" fill="#cec7c6" d="M283.219,65.049l-39.682,15.705l17.85,6.139l5.98,18.215
			l2.512-6.35L283.219,65.049z M274.432,73.838l-6.633,16.756l-2.486-7.572l-7.535-2.592L274.432,73.838z"/>
		<path id="polygon55" inkscape:connector-curvature="0" fill="#cec7c6" d="M159.893,65.049l15.854,40.057l2.129-6.484l3.852-11.729
			l17.85-6.139L159.893,65.049z M168.682,73.838l16.654,6.592l-7.535,2.592l-2.486,7.572L168.682,73.838z"/>
	</g>
	<path id="path5" inkscape:connector-curvature="0" fill="#cec7c6" d="M0,52.279v30.459h14.541c2.427,0,4.48-0.172,6.152-0.512
		c1.674-0.338,3.064-0.839,4.174-1.506c1.11-0.664,2.042-1.61,2.797-2.834c0.755-1.227,1.133-2.553,1.133-3.979
		c0-1.773-0.621-3.311-1.859-4.611c-1.24-1.303-3.014-2.227-5.32-2.766c1.786-0.706,3.122-1.634,4.006-2.783
		c0.885-1.149,1.328-2.376,1.328-3.678c0-1.4-0.5-2.738-1.498-4.021c-0.995-1.281-2.375-2.229-4.135-2.846
		c-1.761-0.615-4.096-0.924-7.01-0.924H0z M6.658,55.873h6.01c2.74,0,4.674,0.143,5.801,0.426c1.127,0.285,1.995,0.81,2.602,1.58
		c0.608,0.769,0.91,1.657,0.91,2.668c0,1.067-0.326,1.953-0.975,2.658c-0.651,0.708-1.617,1.216-2.9,1.518
		c-0.012,0.003-0.03,0.005-0.043,0.008L6.658,55.873L6.658,55.873z M5.047,57.934l9.18,7.131c-0.307,0.005-0.599,0.014-0.934,0.014
		H5.049H5.047V57.934L5.047,57.934z M5.049,68.672h8.818c0.119,0,0.22,0.005,0.336,0.006l-9.154,7.855V68.672L5.049,68.672z
		 M17.953,68.906c0.552,0.075,1.066,0.163,1.494,0.275c1.291,0.339,2.301,0.928,3.031,1.766c0.728,0.837,1.092,1.824,1.092,2.961
		c0,0.969-0.254,1.823-0.756,2.564c-0.504,0.742-1.144,1.305-1.924,1.693c-0.781,0.388-1.752,0.665-2.914,0.832
		c-0.659,0.097-1.805,0.145-3.434,0.145H6.025L17.953,68.906z"/>
	<path id="polygon11" inkscape:connector-curvature="0" fill="#cec7c6" d="M161.519,52.203l15.583,30.41h-5.74l-12.349-26.344
		l-12.194,26.344h-5.347l14.618-30.41H161.519z"/>
	<path id="polygon45" inkscape:connector-curvature="0" fill="#cec7c6" d="M44.795,52.203l-5.463,11.365l-2.742-3.199l-2.648,2.271
		l3.74,4.361l-7.504,15.611h5.346l5.449-11.773l6.299,7.344l6.986-7.963l5.809,12.393h5.74L57.541,66.48l3.207-3.656l-2.623-2.301
		l-2.297,2.617l-5.604-10.938H44.795z M47.719,56.27l4.924,10.504l-5.342,6.086l-4.717-5.5L47.719,56.27z"/>
	<path id="polygon59" inkscape:connector-curvature="0" fill="#cec7c6" d="M225.059,52.203l-5.463,11.365l-2.744-3.199l-2.648,2.271
		l3.74,4.361l-7.504,15.611h5.348l5.449-11.771l6.297,7.342l6.986-7.963l5.811,12.393h5.738l-8.266-16.133l3.207-3.656l-2.621-2.301
		l-2.297,2.619l-5.605-10.939H225.059z M227.981,56.27l4.924,10.504l-5.34,6.086l-4.717-5.5L227.981,56.27z"/>
	<path id="path67" inkscape:connector-curvature="0" fill="#cec7c6" d="M69.092,52.203v30.41h4.832V59.498l18.045,23.115h7.119
		v-30.41h-4.83v23.096L76.213,52.203H69.092z M74.172,54.131L94.01,78.414v2.307L74.172,56.328V54.131z"/>
	<path id="path67-0" inkscape:connector-curvature="0" fill="#cec7c6" d="M248.125,52.203v30.41h4.832V59.498l18.045,23.115h7.119
		v-30.41h-4.83v23.096l-18.045-23.096H248.125z M253.206,54.131l19.838,24.283v2.307l-19.838-24.393V54.131z"/>
	<path id="rect83" inkscape:connector-curvature="0" fill="#cec7c6" d="M122.023,51.578c-10.482,0-19.072,6.806-19.072,15.32
		s8.59,15.316,19.072,15.316c10.124,0,18.475-6.339,19.037-14.453v-0.004v-0.004c0.006-0.109,0.015-0.229,0.02-0.359l0.016-0.443
		h-1.094h-13.643v3.568h9.602c-1.878,4.516-7.088,7.901-13.434,8.074V55.199c7.114,0.191,12.906,4.369,14.059,9.713l0.086,0.402
		l4.215-0.73l-0.1-0.441C139.159,56.943,131.346,51.578,122.023,51.578L122.023,51.578z M122.023,52.436
		c8.795,0,16.043,4.973,17.779,11.467l-2.553,0.443c-1.455-5.625-7.453-9.814-14.723-10.002v-0.123h-3.572v0.352
		c-7.132,1.142-12.562,6.184-12.562,12.324s5.431,11.185,12.562,12.326v1.346h3.572v-1.119c6.945-0.177,12.786-3.974,14.572-9.221
		l0.193-0.566h-10.076v-1.854h12.785h0.184c-0.591,7.507-8.442,13.549-18.162,13.549c-10.112,0-18.215-6.525-18.215-14.459
		S111.912,52.436,122.023,52.436z M118.955,55.438v22.916c-6.72-1.125-11.705-5.864-11.705-11.457S112.235,56.562,118.955,55.438z
		 M140.368,64.239c-1.573-6.954-9.188-12.231-18.346-12.231c-10.297,0-18.643,6.667-18.643,14.891s8.346,14.887,18.643,14.887
		c9.945,0,18.068-6.217,18.611-14.053c0.006-0.116,0.015-0.234,0.019-0.352h-0.651h-13.213v2.711h9.905
		c-1.756,5.157-7.659,8.947-14.671,8.947c-8.398,0-15.202-5.435-15.202-12.141s6.804-12.143,15.202-12.143
		c7.51,0,13.749,4.35,14.982,10.068L140.368,64.239L140.368,64.239z"/>
	<path id="rect83-3" inkscape:connector-curvature="0" fill="#cec7c6" d="M299.252,52.293c-10.481,0-19.072,6.806-19.072,15.32
		s8.591,15.317,19.072,15.317c10.125,0,18.475-6.339,19.037-14.454v-0.004v-0.004c0.006-0.108,0.016-0.229,0.02-0.359l0.016-0.443
		h-1.094h-13.643v3.568h9.602c-1.877,4.516-7.088,7.901-13.434,8.074V55.914c7.113,0.191,12.906,4.369,14.059,9.713l0.086,0.402
		l4.215-0.73l-0.1-0.441C316.387,57.659,308.575,52.293,299.252,52.293L299.252,52.293z M299.252,53.151
		c8.795,0,16.043,4.973,17.779,11.467l-2.553,0.443c-1.455-5.625-7.453-9.814-14.723-10.002v-0.123h-3.572v0.352
		c-7.131,1.142-12.562,6.184-12.562,12.324s5.432,11.184,12.562,12.327v1.346h3.572v-1.119c6.945-0.178,12.787-3.975,14.572-9.221
		l0.193-0.566h-10.076v-1.854h12.785h0.184c-0.59,7.507-8.441,13.549-18.162,13.549c-10.111,0-18.215-6.525-18.215-14.459
		S289.141,53.151,299.252,53.151z M296.184,56.153v22.917c-6.719-1.125-11.705-5.864-11.705-11.458S289.465,57.278,296.184,56.153z
		 M317.598,64.954c-1.572-6.954-9.188-12.231-18.346-12.231c-10.297,0-18.644,6.667-18.644,14.891
		c0,8.224,8.347,14.888,18.644,14.888c9.945,0,18.068-6.218,18.611-14.054c0.006-0.116,0.014-0.234,0.018-0.352h-0.65h-13.213v2.711
		h9.904c-1.756,5.157-7.658,8.947-14.67,8.947c-8.398,0-15.203-5.435-15.203-12.141s6.805-12.143,15.203-12.143
		c7.51,0,13.748,4.35,14.982,10.068L317.598,64.954z"/>
	<path id="polygon97" inkscape:connector-curvature="0" fill="#cec7c6" d="M209.09,82.865h-4.797l-18.81-28.432l3.769-1.587
		L209.09,82.865z M182.189,82.767V51.842h9.954c2.55,0,4.492,0.098,5.837,0.296c1.886,0.252,3.466,0.734,4.741,1.444
		c1.273,0.711,2.301,1.705,3.076,2.984c0.777,1.279,1.166,2.685,1.166,4.219c0,2.631-1.039,4.854-3.119,6.678
		c-2.074,1.82-5.828,2.731-11.258,2.731h-5.318v12.572H182.189L182.189,82.767z M187.269,66.544h5.397
		c3.283,0,5.611-0.492,6.992-1.477c1.377-0.982,2.067-2.367,2.067-4.155c0-1.293-0.408-2.402-1.22-3.323
		c-0.812-0.92-1.881-1.529-3.205-1.824c-0.857-0.184-2.436-0.276-4.74-0.276h-5.293L187.269,66.544L187.269,66.544z"/>
	<g id="text99" transform="matrix(1.127,0,0,1,182.69527,97.468772)">
		<path id="path4433" inkscape:connector-curvature="0" fill="#cec7c6" d="M1.479-10.988h1.487v4.504h5.403v-4.504h1.486V0H8.368
			v-5.233H2.966V0H1.479V-10.988z"/>
		<path id="path4435" inkscape:connector-curvature="0" fill="#cec7c6" d="M16.487-9.524L14.47-4.056h4.041L16.487-9.524z
			 M15.647-10.988h1.685L21.52,0h-1.545l-1.002-2.819h-4.953L13.02,0h-1.568L15.647-10.988z"/>
		<path id="path4437" inkscape:connector-curvature="0" fill="#cec7c6" d="M22.948-10.988h1.494v6.675
			c0,1.178,0.214,2.027,0.64,2.547c0.427,0.516,1.119,0.773,2.076,0.773c0.951,0,1.641-0.258,2.068-0.773
			c0.426-0.52,0.64-1.369,0.64-2.547v-6.675h1.495v6.859c0,1.433-0.356,2.515-1.068,3.245c-0.707,0.731-1.752,1.098-3.135,1.098
			c-1.389,0-2.439-0.366-3.151-1.098c-0.707-0.73-1.06-1.812-1.06-3.245V-10.988z"/>
		<path id="path4439" inkscape:connector-curvature="0" fill="#cec7c6" d="M32.633-10.988h9.296v1.251h-3.901V0h-1.494v-9.737
			h-3.901V-10.988z"/>
		<path id="path4441" inkscape:connector-curvature="0" fill="#cec7c6" d="M43.372-10.988h6.948v1.251h-5.461v3.253h5.233v1.251
			h-5.233v3.982h5.593V0h-7.08V-10.988z"/>
		<path id="path4443" inkscape:connector-curvature="0" fill="#cec7c6" d="M65.938-10.142v1.567c-0.5-0.466-1.036-0.814-1.604-1.046
			c-0.565-0.23-1.166-0.346-1.804-0.346c-1.256,0-2.217,0.386-2.885,1.156c-0.668,0.766-1.001,1.874-1.001,3.326
			c0,1.447,0.333,2.557,1.001,3.327c0.667,0.765,1.628,1.147,2.885,1.147c0.638,0,1.239-0.115,1.804-0.346
			c0.568-0.23,1.104-0.578,1.604-1.045v1.553c-0.521,0.354-1.072,0.619-1.656,0.795c-0.579,0.177-1.192,0.266-1.84,0.266
			c-1.663,0-2.973-0.508-3.93-1.523c-0.957-1.021-1.435-2.412-1.435-4.174c0-1.766,0.478-3.157,1.435-4.173
			c0.957-1.021,2.268-1.53,3.93-1.53c0.658,0,1.276,0.088,1.855,0.264C64.88-10.751,65.428-10.49,65.938-10.142z"/>
		<path id="path4445" inkscape:connector-curvature="0" fill="#cec7c6" d="M68.079-10.988h1.495v6.675
			c0,1.178,0.213,2.027,0.64,2.547c0.426,0.516,1.119,0.773,2.075,0.773c0.952,0,1.641-0.258,2.068-0.773
			c0.426-0.52,0.639-1.369,0.639-2.547v-6.675h1.495v6.859c0,1.433-0.356,2.515-1.067,3.245c-0.707,0.731-1.752,1.098-3.136,1.098
			c-1.389,0-2.438-0.366-3.15-1.098c-0.707-0.73-1.061-1.812-1.061-3.245V-10.988z"/>
		<path id="path4447" inkscape:connector-curvature="0" fill="#cec7c6" d="M79.288-10.988h1.487V0h-1.487V-10.988z"/>
		<path id="path4449" inkscape:connector-curvature="0" fill="#cec7c6" d="M90.321-10.628v1.45
			c-0.563-0.271-1.096-0.472-1.596-0.604C88.224-9.914,87.74-9.98,87.274-9.98c-0.809,0-1.435,0.156-1.877,0.471
			c-0.437,0.313-0.655,0.76-0.655,1.34c0,0.485,0.146,0.854,0.435,1.104c0.295,0.245,0.848,0.443,1.663,0.596l0.899,0.185
			c1.108,0.211,1.925,0.583,2.451,1.118c0.53,0.53,0.795,1.242,0.795,2.135c0,1.064-0.358,1.872-1.074,2.422
			c-0.711,0.549-1.756,0.824-3.136,0.824c-0.52,0-1.074-0.06-1.663-0.178c-0.583-0.117-1.19-0.291-1.818-0.521v-1.531
			c0.604,0.338,1.195,0.594,1.774,0.766c0.579,0.172,1.148,0.258,1.707,0.258c0.849,0,1.504-0.167,1.965-0.501
			c0.462-0.333,0.692-0.81,0.692-1.428c0-0.54-0.167-0.962-0.5-1.267c-0.329-0.304-0.872-0.531-1.627-0.684l-0.905-0.177
			c-1.109-0.221-1.911-0.567-2.407-1.038s-0.743-1.126-0.743-1.965c0-0.972,0.341-1.736,1.023-2.297
			c0.687-0.559,1.632-0.838,2.833-0.838c0.516,0,1.041,0.046,1.574,0.139C89.215-10.954,89.762-10.814,90.321-10.628z"/>
		<path id="path4451" inkscape:connector-curvature="0" fill="#cec7c6" d="M93.302-10.988h1.487V0h-1.487V-10.988z"/>
		<path id="path4453" inkscape:connector-curvature="0" fill="#cec7c6" d="M97.748-10.988h2.002l4.872,9.192v-9.192h1.443V0h-2.003
			L99.19-9.192V0h-1.443V-10.988z"/>
		<path id="path4455" inkscape:connector-curvature="0" fill="#cec7c6" d="M109.024-10.988h6.948v1.251h-5.461v3.253h5.232v1.251
			h-5.232v3.982h5.593V0h-7.079V-10.988z"/>
	</g>
</g>
</svg>
