<?xml version="1.0" encoding="UTF-8" standalone="no"?>
<!-- Generator: Adobe Illustrator 16.0.4, SVG Export Plug-In . SVG Version: 6.00 Build 0)  -->

<svg
   xmlns:dc="http://purl.org/dc/elements/1.1/"
   xmlns:cc="http://creativecommons.org/ns#"
   xmlns:rdf="http://www.w3.org/1999/02/22-rdf-syntax-ns#"
   xmlns:svg="http://www.w3.org/2000/svg"
   xmlns="http://www.w3.org/2000/svg"
   xmlns:sodipodi="http://sodipodi.sourceforge.net/DTD/sodipodi-0.dtd"
   xmlns:inkscape="http://www.inkscape.org/namespaces/inkscape"
   version="1.1"
   id="Layer_1"
   x="0px"
   y="0px"
   width="318.3251"
   height="156.33401"
   viewBox="0 0 318.32511 156.33402"
   enable-background="new 0 0 439.478 283.486"
   xml:space="preserve"
   inkscape:version="0.91 r13725"
   sodipodi:docname="bangarang_catering_logo.svg"><metadata
     id="metadata109"><rdf:RDF><cc:Work
         rdf:about=""><dc:format>image/svg+xml</dc:format><dc:type
           rdf:resource="http://purl.org/dc/dcmitype/StillImage" /><dc:title /></cc:Work></rdf:RDF></metadata><defs
     id="defs107" /><sodipodi:namedview
     pagecolor="#ffffff"
     bordercolor="#666666"
     borderopacity="1"
     objecttolerance="10"
     gridtolerance="10"
     guidetolerance="10"
     inkscape:pageopacity="0"
     inkscape:pageshadow="2"
     inkscape:window-width="1920"
     inkscape:window-height="1059"
     id="namedview105"
     showgrid="false"
     inkscape:snap-intersection-paths="false"
     inkscape:object-nodes="false"
     inkscape:snap-smooth-nodes="false"
     inkscape:snap-midpoints="false"
     inkscape:snap-bbox="true"
     inkscape:bbox-paths="true"
     inkscape:bbox-nodes="true"
     inkscape:snap-bbox-edge-midpoints="true"
     inkscape:snap-bbox-midpoints="true"
     fit-margin-top="0"
     fit-margin-left="0"
     fit-margin-right="0"
     fit-margin-bottom="0"
     inkscape:zoom="3.4625028"
     inkscape:cx="139.69511"
     inkscape:cy="89.748388"
     inkscape:window-x="0"
     inkscape:window-y="21"
     inkscape:window-maximized="1"
     inkscape:current-layer="Layer_1" /><g
     id="g93"
     transform="translate(-61.457031,-65.048828)" /><g
     id="g4236"
     style="fill:#222222;fill-opacity:1"><g
       style="fill:#222222;fill-opacity:1"
       transform="translate(-61.457031,-65.048828)"
       id="g4504"><path
         style="color:#000000;font-style:normal;font-variant:normal;font-weight:normal;font-stretch:normal;font-size:medium;line-height:normal;font-family:sans-serif;text-indent:0;text-align:start;text-decoration:none;text-decoration-line:none;text-decoration-style:solid;text-decoration-color:#000000;letter-spacing:normal;word-spacing:normal;text-transform:none;direction:ltr;block-progression:tb;writing-mode:lr-tb;baseline-shift:baseline;text-anchor:start;white-space:normal;clip-rule:nonzero;display:inline;overflow:visible;visibility:visible;opacity:1;isolation:auto;mix-blend-mode:normal;color-interpolation:sRGB;color-interpolation-filters:linearRGB;solid-color:#000000;solid-opacity:1;fill:#222222;fill-opacity:1;fill-rule:nonzero;stroke:none;stroke-width:3.7033999;stroke-linecap:butt;stroke-linejoin:miter;stroke-miterlimit:10;stroke-dasharray:none;stroke-dashoffset:0;stroke-opacity:1;color-rendering:auto;image-rendering:auto;shape-rendering:auto;text-rendering:auto;enable-background:accumulate"
         d="m 270.75586,77.640625 -6.65234,4.978516 -43.41016,54.736329 -41.80078,-54.732423 -6.56641,-4.916016 -0.13672,0.103516 4.55469,8.099609 43.89453,57.474614 45.62695,-57.531254 4.57813,-8.142578 -0.0879,-0.07031 z"
         id="polyline13"
         inkscape:connector-curvature="0" /><path
         style="color:#000000;font-style:normal;font-variant:normal;font-weight:normal;font-stretch:normal;font-size:medium;line-height:normal;font-family:sans-serif;text-indent:0;text-align:start;text-decoration:none;text-decoration-line:none;text-decoration-style:solid;text-decoration-color:#000000;letter-spacing:normal;word-spacing:normal;text-transform:none;direction:ltr;block-progression:tb;writing-mode:lr-tb;baseline-shift:baseline;text-anchor:start;white-space:normal;clip-rule:nonzero;display:inline;overflow:visible;visibility:visible;opacity:1;isolation:auto;mix-blend-mode:normal;color-interpolation:sRGB;color-interpolation-filters:linearRGB;solid-color:#000000;solid-opacity:1;fill:#222222;fill-opacity:1;fill-rule:nonzero;stroke:none;stroke-width:3.7033999;stroke-linecap:butt;stroke-linejoin:miter;stroke-miterlimit:10;stroke-dasharray:none;stroke-dashoffset:0;stroke-opacity:1;color-rendering:auto;image-rendering:auto;shape-rendering:auto;text-rendering:auto;enable-background:accumulate"
         d="m 220.41211,137.35547 -51.35938,64.75976 2.90235,2.30079 48.40234,-61.03125 46.5918,61.00585 2.94336,-2.24804 -49.48047,-64.78711 z"
         id="polyline17"
         inkscape:connector-curvature="0" /><path
         style="color:#000000;font-style:normal;font-variant:normal;font-weight:normal;font-stretch:normal;font-size:medium;line-height:normal;font-family:sans-serif;text-indent:0;text-align:start;text-decoration:none;text-decoration-line:none;text-decoration-style:solid;text-decoration-color:#000000;letter-spacing:normal;word-spacing:normal;text-transform:none;direction:ltr;block-progression:tb;writing-mode:lr-tb;baseline-shift:baseline;text-anchor:start;white-space:normal;clip-rule:nonzero;display:inline;overflow:visible;visibility:visible;opacity:1;isolation:auto;mix-blend-mode:normal;color-interpolation:sRGB;color-interpolation-filters:linearRGB;solid-color:#000000;solid-opacity:1;fill:#222222;fill-opacity:1;fill-rule:nonzero;stroke:none;stroke-width:3.7033999;stroke-linecap:butt;stroke-linejoin:miter;stroke-miterlimit:10;stroke-dasharray:none;stroke-dashoffset:0;stroke-opacity:1;color-rendering:auto;image-rendering:auto;shape-rendering:auto;text-rendering:auto;enable-background:accumulate"
         d="m 173.72266,199.12891 -21.51172,5.42578 0.90429,3.58984 16.84766,-4.24805 -0.20508,17.44336 3.70313,0.043 0.26172,-22.2539 z"
         id="polyline21"
         inkscape:connector-curvature="0" /><path
         style="color:#000000;font-style:normal;font-variant:normal;font-weight:normal;font-stretch:normal;font-size:medium;line-height:normal;font-family:sans-serif;text-indent:0;text-align:start;text-decoration:none;text-decoration-line:none;text-decoration-style:solid;text-decoration-color:#000000;letter-spacing:normal;word-spacing:normal;text-transform:none;direction:ltr;block-progression:tb;writing-mode:lr-tb;baseline-shift:baseline;text-anchor:start;white-space:normal;clip-rule:nonzero;display:inline;overflow:visible;visibility:visible;opacity:1;isolation:auto;mix-blend-mode:normal;color-interpolation:sRGB;color-interpolation-filters:linearRGB;solid-color:#000000;solid-opacity:1;fill:#222222;fill-opacity:1;fill-rule:nonzero;stroke:none;stroke-width:3.7033999;stroke-linecap:butt;stroke-linejoin:miter;stroke-miterlimit:10;stroke-dasharray:none;stroke-dashoffset:0;stroke-opacity:1;color-rendering:auto;image-rendering:auto;shape-rendering:auto;text-rendering:auto;enable-background:accumulate"
         d="m 180.91406,189.90234 -21.51172,5.42774 0.90625,3.58984 16.84571,-4.25 -0.20508,17.44531 3.70312,0.043 0.26172,-22.25586 z"
         id="polyline25"
         inkscape:connector-curvature="0" /><path
         style="color:#000000;font-style:normal;font-variant:normal;font-weight:normal;font-stretch:normal;font-size:medium;line-height:normal;font-family:sans-serif;text-indent:0;text-align:start;text-decoration:none;text-decoration-line:none;text-decoration-style:solid;text-decoration-color:#000000;letter-spacing:normal;word-spacing:normal;text-transform:none;direction:ltr;block-progression:tb;writing-mode:lr-tb;baseline-shift:baseline;text-anchor:start;white-space:normal;clip-rule:nonzero;display:inline;overflow:visible;visibility:visible;opacity:1;isolation:auto;mix-blend-mode:normal;color-interpolation:sRGB;color-interpolation-filters:linearRGB;solid-color:#000000;solid-opacity:1;fill:#222222;fill-opacity:1;fill-rule:nonzero;stroke:none;stroke-width:3.7033999;stroke-linecap:butt;stroke-linejoin:miter;stroke-miterlimit:10;stroke-dasharray:none;stroke-dashoffset:0;stroke-opacity:1;color-rendering:auto;image-rendering:auto;shape-rendering:auto;text-rendering:auto;enable-background:accumulate"
         d="m 188.10742,180.67773 -21.51172,5.42383 0.90625,3.5918 16.84571,-4.24805 -0.20508,17.44336 3.70312,0.043 0.26172,-22.25391 z"
         id="polyline29"
         inkscape:connector-curvature="0" /><path
         style="color:#000000;font-style:normal;font-variant:normal;font-weight:normal;font-stretch:normal;font-size:medium;line-height:normal;font-family:sans-serif;text-indent:0;text-align:start;text-decoration:none;text-decoration-line:none;text-decoration-style:solid;text-decoration-color:#000000;letter-spacing:normal;word-spacing:normal;text-transform:none;direction:ltr;block-progression:tb;writing-mode:lr-tb;baseline-shift:baseline;text-anchor:start;white-space:normal;clip-rule:nonzero;display:inline;overflow:visible;visibility:visible;opacity:1;isolation:auto;mix-blend-mode:normal;color-interpolation:sRGB;color-interpolation-filters:linearRGB;solid-color:#000000;solid-opacity:1;fill:#222222;fill-opacity:1;fill-rule:nonzero;stroke:none;stroke-width:3.7033999;stroke-linecap:butt;stroke-linejoin:miter;stroke-miterlimit:10;stroke-dasharray:none;stroke-dashoffset:0;stroke-opacity:1;color-rendering:auto;image-rendering:auto;shape-rendering:auto;text-rendering:auto;enable-background:accumulate"
         d="m 265.36328,199.12891 0.26172,22.2539 3.70312,-0.043 -0.20507,-17.44336 16.8457,4.24805 0.90625,-3.58984 -21.51172,-5.42578 z"
         id="polyline33"
         inkscape:connector-curvature="0" /><path
         style="color:#000000;font-style:normal;font-variant:normal;font-weight:normal;font-stretch:normal;font-size:medium;line-height:normal;font-family:sans-serif;text-indent:0;text-align:start;text-decoration:none;text-decoration-line:none;text-decoration-style:solid;text-decoration-color:#000000;letter-spacing:normal;word-spacing:normal;text-transform:none;direction:ltr;block-progression:tb;writing-mode:lr-tb;baseline-shift:baseline;text-anchor:start;white-space:normal;clip-rule:nonzero;display:inline;overflow:visible;visibility:visible;opacity:1;isolation:auto;mix-blend-mode:normal;color-interpolation:sRGB;color-interpolation-filters:linearRGB;solid-color:#000000;solid-opacity:1;fill:#222222;fill-opacity:1;fill-rule:nonzero;stroke:none;stroke-width:3.7033999;stroke-linecap:butt;stroke-linejoin:miter;stroke-miterlimit:10;stroke-dasharray:none;stroke-dashoffset:0;stroke-opacity:1;color-rendering:auto;image-rendering:auto;shape-rendering:auto;text-rendering:auto;enable-background:accumulate"
         d="m 258.17188,189.90234 0.25976,22.25586 3.70313,-0.043 -0.20508,-17.44531 16.8457,4.25 0.90625,-3.58984 -21.50976,-5.42774 z"
         id="polyline37"
         inkscape:connector-curvature="0" /><path
         style="color:#000000;font-style:normal;font-variant:normal;font-weight:normal;font-stretch:normal;font-size:medium;line-height:normal;font-family:sans-serif;text-indent:0;text-align:start;text-decoration:none;text-decoration-line:none;text-decoration-style:solid;text-decoration-color:#000000;letter-spacing:normal;word-spacing:normal;text-transform:none;direction:ltr;block-progression:tb;writing-mode:lr-tb;baseline-shift:baseline;text-anchor:start;white-space:normal;clip-rule:nonzero;display:inline;overflow:visible;visibility:visible;opacity:1;isolation:auto;mix-blend-mode:normal;color-interpolation:sRGB;color-interpolation-filters:linearRGB;solid-color:#000000;solid-opacity:1;fill:#222222;fill-opacity:1;fill-rule:nonzero;stroke:none;stroke-width:3.7033999;stroke-linecap:butt;stroke-linejoin:miter;stroke-miterlimit:10;stroke-dasharray:none;stroke-dashoffset:0;stroke-opacity:1;color-rendering:auto;image-rendering:auto;shape-rendering:auto;text-rendering:auto;enable-background:accumulate"
         d="m 250.97656,180.67773 0.26367,22.25391 3.70313,-0.043 -0.20508,-17.44336 16.8457,4.24805 0.9043,-3.5918 -21.51172,-5.42383 z"
         id="polyline41"
         inkscape:connector-curvature="0" /><path
         style="color:#000000;font-style:normal;font-variant:normal;font-weight:normal;font-stretch:normal;font-size:medium;line-height:normal;font-family:sans-serif;text-indent:0;text-align:start;text-decoration:none;text-decoration-line:none;text-decoration-style:solid;text-decoration-color:#000000;letter-spacing:normal;word-spacing:normal;text-transform:none;direction:ltr;block-progression:tb;writing-mode:lr-tb;baseline-shift:baseline;text-anchor:start;white-space:normal;clip-rule:nonzero;display:inline;overflow:visible;visibility:visible;opacity:1;isolation:auto;mix-blend-mode:normal;color-interpolation:sRGB;color-interpolation-filters:linearRGB;solid-color:#000000;solid-opacity:1;fill:#222222;fill-opacity:1;fill-rule:nonzero;stroke:none;stroke-width:4.93830013;stroke-linecap:butt;stroke-linejoin:miter;stroke-miterlimit:10;stroke-dasharray:none;stroke-dashoffset:0;stroke-opacity:1;color-rendering:auto;image-rendering:auto;shape-rendering:auto;text-rendering:auto;enable-background:accumulate"
         d="m 283.21875,65.048828 -39.68164,15.705078 17.84961,6.138672 5.98047,18.214842 2.51172,-6.349608 13.33984,-33.708984 z m -8.78711,8.789063 -6.63281,16.755859 -2.48633,-7.572266 -7.53516,-2.591796 16.6543,-6.591797 z"
         id="polygon51"
         inkscape:connector-curvature="0" /><path
         style="color:#000000;font-style:normal;font-variant:normal;font-weight:normal;font-stretch:normal;font-size:medium;line-height:normal;font-family:sans-serif;text-indent:0;text-align:start;text-decoration:none;text-decoration-line:none;text-decoration-style:solid;text-decoration-color:#000000;letter-spacing:normal;word-spacing:normal;text-transform:none;direction:ltr;block-progression:tb;writing-mode:lr-tb;baseline-shift:baseline;text-anchor:start;white-space:normal;clip-rule:nonzero;display:inline;overflow:visible;visibility:visible;opacity:1;isolation:auto;mix-blend-mode:normal;color-interpolation:sRGB;color-interpolation-filters:linearRGB;solid-color:#000000;solid-opacity:1;fill:#222222;fill-opacity:1;fill-rule:nonzero;stroke:none;stroke-width:4.93830013;stroke-linecap:butt;stroke-linejoin:miter;stroke-miterlimit:10;stroke-dasharray:none;stroke-dashoffset:0;stroke-opacity:1;color-rendering:auto;image-rendering:auto;shape-rendering:auto;text-rendering:auto;enable-background:accumulate"
         d="m 159.89258,65.048828 15.85351,40.056642 2.12891,-6.484376 3.85156,-11.728516 17.84961,-6.138672 -39.68359,-15.705078 z m 8.78906,8.789063 16.6543,6.591797 -7.53516,2.591796 -2.48633,7.572266 -6.63281,-16.755859 z"
         id="polygon55"
         inkscape:connector-curvature="0" /></g><path
       style="fill:#222222;fill-opacity:1"
       id="path5"
       d="m 0,52.279292 0,30.45899 14.541016,0 c 2.427,0 4.480344,-0.17172 6.152344,-0.51172 1.674,-0.338 3.063828,-0.83886 4.173828,-1.50586 1.11,-0.664 2.041875,-1.60998 2.796875,-2.83398 0.755,-1.227 1.132812,-2.55252 1.132812,-3.97852 0,-1.773 -0.620375,-3.31033 -1.859375,-4.61133 -1.24,-1.303 -3.014312,-2.22662 -5.320312,-2.76562 1.786,-0.706 3.121859,-1.6342 4.005859,-2.7832 0.885,-1.14901 1.328125,-2.37574 1.328125,-3.67774 0,-1.4 -0.500047,-2.73848 -1.498047,-4.02148 -0.995,-1.281 -2.374765,-2.22971 -4.134765,-2.84571 -1.761,-0.615 -4.095766,-0.92383 -7.009766,-0.92383 L 0,52.279292 Z m 6.658203,3.59376 6.009766,0 c 2.74,0 4.673781,0.14278 5.800781,0.42578 1.127,0.285 1.994563,0.81007 2.601563,1.58007 0.608,0.769 0.910156,1.65697 0.910156,2.66797 0,1.067 -0.325609,1.95321 -0.974609,2.65821 -0.651,0.708 -1.617391,1.21557 -2.900391,1.51757 -0.0123,0.003 -0.03046,0.005 -0.04297,0.008 L 6.658202,55.873232 Z m -1.611328,2.06054 9.179688,7.13086 c -0.306598,0.005 -0.598607,0.0137 -0.933594,0.0137 l -8.244141,0 -0.002,0 0,-7.14453 z m 0.002,10.73828 8.81836,0 c 0.118996,0 0.219667,0.005 0.335937,0.006 l -9.154297,7.85547 0,-7.86133 z m 12.904297,0.23438 c 0.552388,0.0753 1.066055,0.16315 1.494141,0.27539 1.291,0.339 2.30125,0.92762 3.03125,1.76562 0.728,0.837 1.091797,1.82394 1.091797,2.96094 0,0.969 -0.25386,1.82345 -0.75586,2.56445 -0.504,0.742 -1.143828,1.30536 -1.923828,1.69336 -0.781,0.388 -1.752062,0.66503 -2.914062,0.83204 -0.659,0.097 -1.804594,0.14453 -3.433594,0.14453 l -8.517578,0 11.927734,-10.23633 z"
       inkscape:connector-curvature="0" /><path
       style="fill:#222222;fill-opacity:1"
       id="polygon11"
       d="m 161.51897,52.203172 15.583,30.41 -5.74,0 -12.349,-26.344 -12.194,26.344 -5.347,0 14.618,-30.41 z"
       inkscape:connector-curvature="0" /><path
       style="fill:#222222;fill-opacity:1"
       id="polygon45"
       d="m 44.794919,52.203122 -5.46289,11.36524 -2.742185,-3.19922 -2.648437,2.27148 3.740234,4.36133 -7.503906,15.61133 5.345703,0 5.449221,-11.77344 6.29883,7.34375 6.98632,-7.96289 5.8086,12.39258 5.74023,0 -8.26562,-16.13281 3.20703,-3.65625 -2.62305,-2.30078 -2.29687,2.61718 -5.60352,-10.9375 -5.42969,0 z m 2.92383,4.06641 4.92383,10.50391 -5.3418,6.08593 -4.71679,-5.5 5.13476,-11.08984 z"
       inkscape:connector-curvature="0" /><path
       style="fill:#222222;fill-opacity:1"
       id="polygon59"
       d="m 225.05859,52.203122 -5.46289,11.36524 -2.74414,-3.19922 -2.64843,2.27148 3.74023,4.36133 -7.50391,15.61133 5.34766,0 5.44922,-11.77149 6.29687,7.3418 6.98633,-7.96289 5.81055,12.39258 5.73828,0 -8.26562,-16.13281 3.20703,-3.65625 -2.6211,-2.30078 -2.29687,2.61914 -5.60547,-10.93946 -5.42774,0 z m 2.92188,4.06641 4.92383,10.50391 -5.33985,6.08593 -4.71679,-5.5 5.13281,-11.08984 z"
       inkscape:connector-curvature="0" /><path
       style="fill:#222222;fill-opacity:1"
       id="path67"
       d="m 69.091799,52.203122 0,30.41016 4.83203,0 0,-23.11523 18.04492,23.11523 7.11914,0 0,-30.41016 -4.83008,0 0,23.09571 -18.04492,-23.09571 -7.12109,0 z m 5.08008,1.92774 19.83789,24.2832 0,2.30664 -19.83789,-24.39258 0,-2.19726 z"
       inkscape:connector-curvature="0" /><path
       style="fill:#222222;fill-opacity:1"
       id="path67-0"
       d="m 248.12588,52.203012 0,30.41016 4.83203,0 0,-23.11523 18.04492,23.11523 7.11914,0 0,-30.41016 -4.83008,0 0,23.09571 -18.04492,-23.09571 -7.12109,0 z m 5.08008,1.92774 19.83789,24.2832 0,2.30664 -19.83789,-24.39258 0,-2.19726 z"
       inkscape:connector-curvature="0" /><path
       d="m 122.02344,51.578122 c -10.482,0 -19.07227,6.80635 -19.07227,15.32032 0,8.51398 8.59035,15.3164 19.07227,15.3164 10.12365,0 18.47481,-6.33865 19.03711,-14.45312 l 0,-0.004 0,-0.004 c 0.006,-0.10889 0.0151,-0.22928 0.0195,-0.35937 l 0.0156,-0.44336 -1.09375,0 -13.64257,0 0,3.56836 9.60156,0 c -1.87802,4.51579 -7.0877,7.90179 -13.43359,8.07422 l 0,-23.39453 c 7.1137,0.19094 12.90624,4.36887 14.05859,9.71289 l 0.0859,0.40234 4.21484,-0.73047 -0.0996,-0.4414 c -1.62838,-7.19882 -9.44102,-12.56446 -18.76367,-12.56446 z m 0,0.85743 c 8.79508,0 16.0428,4.97287 17.7793,11.46679 l -2.55274,0.44336 c -1.4553,-5.62496 -7.45326,-9.81458 -14.72265,-10.00195 l 0,-0.12305 -3.57227,0 0,0.35156 c -7.13206,1.14178 -12.5625,6.1835 -12.5625,12.32422 0,6.14073 5.43047,11.1844 12.5625,12.32617 l 0,1.34571 3.57227,0 0,-1.11914 c 6.94477,-0.1774 12.78577,-3.97416 14.57226,-9.22071 l 0.19336,-0.5664 -10.07617,0 0,-1.85352 12.78515,0 0.1836,0 c -0.59116,7.50742 -8.44242,13.54883 -18.16211,13.54883 -10.11208,0 -18.21484,-6.52495 -18.21485,-14.45898 0,-7.93402 8.10285,-14.4629 18.21485,-14.46289 z m -3.06836,3.00195 0,22.91601 C 112.23549,77.228892 107.25,72.489582 107.25,66.896482 c 0,-5.59309 4.98552,-10.33397 11.70508,-11.45898 z m 21.41334,8.8013 c -1.573,-6.954 -9.188,-12.231 -18.346,-12.231 -10.297,0 -18.643,6.667 -18.643,14.891 0,8.224 8.346,14.888 18.643,14.888 9.945,0 18.068,-6.218 18.611,-14.054 0.006,-0.116 0.015,-0.234 0.019,-0.352 l -0.651,0 -13.213,0 0,2.711 9.905,0 c -1.756,5.157 -7.659,8.947 -14.671,8.947 -8.398,0 -15.202,-5.435 -15.202,-12.141 0,-6.706 6.804,-12.143 15.202,-12.143 7.51,0 13.749,4.35 14.982,10.068 l 3.364,-0.584 z"
       style="color:#000000;font-style:normal;font-variant:normal;font-weight:normal;font-stretch:normal;font-size:medium;line-height:normal;font-family:sans-serif;text-indent:0;text-align:start;text-decoration:none;text-decoration-line:none;text-decoration-style:solid;text-decoration-color:#000000;letter-spacing:normal;word-spacing:normal;text-transform:none;direction:ltr;block-progression:tb;writing-mode:lr-tb;baseline-shift:baseline;text-anchor:start;white-space:normal;clip-rule:nonzero;display:inline;overflow:visible;visibility:visible;opacity:1;isolation:auto;mix-blend-mode:normal;color-interpolation:sRGB;color-interpolation-filters:linearRGB;solid-color:#000000;solid-opacity:1;fill:#222222;fill-opacity:1;fill-rule:nonzero;stroke:none;stroke-width:0.85720003;stroke-linecap:butt;stroke-linejoin:miter;stroke-miterlimit:10;stroke-dasharray:none;stroke-dashoffset:0;stroke-opacity:1;color-rendering:auto;image-rendering:auto;shape-rendering:auto;text-rendering:auto;enable-background:accumulate"
       id="rect83"
       inkscape:connector-curvature="0" /><path
       d="m 299.25289,52.293402 c -10.482,0 -19.07227,6.80635 -19.07227,15.32032 0,8.51398 8.59035,15.3164 19.07227,15.3164 10.12365,0 18.47481,-6.33865 19.03711,-14.45312 l 0,-0.004 0,-0.004 c 0.006,-0.10889 0.0151,-0.22928 0.0195,-0.35937 l 0.0156,-0.44336 -1.09375,0 -13.64257,0 0,3.56836 9.60156,0 c -1.87802,4.51579 -7.0877,7.90179 -13.43359,8.07422 l 0,-23.39453 c 7.1137,0.19094 12.90624,4.36887 14.05859,9.71289 l 0.0859,0.40234 4.21484,-0.73047 -0.0996,-0.4414 c -1.62838,-7.19882 -9.44102,-12.56446 -18.76367,-12.56446 z m 0,0.85743 c 8.79508,0 16.0428,4.97287 17.7793,11.46679 l -2.55274,0.44336 c -1.4553,-5.62496 -7.45326,-9.81458 -14.72265,-10.00195 l 0,-0.12305 -3.57227,0 0,0.35156 c -7.13206,1.14178 -12.5625,6.1835 -12.5625,12.32422 0,6.14073 5.43047,11.1844 12.5625,12.32617 l 0,1.34571 3.57227,0 0,-1.11914 c 6.94477,-0.1774 12.78577,-3.97416 14.57226,-9.22071 l 0.19336,-0.5664 -10.07617,0 0,-1.85352 12.78515,0 0.1836,0 c -0.59116,7.50742 -8.44242,13.54883 -18.16211,13.54883 -10.11208,0 -18.21484,-6.52495 -18.21485,-14.45898 0,-7.93402 8.10285,-14.4629 18.21485,-14.46289 z m -3.06836,3.00195 0,22.91601 c -6.71959,-1.12462 -11.70508,-5.86393 -11.70508,-11.45703 0,-5.59309 4.98552,-10.33397 11.70508,-11.45898 z m 21.41334,8.8013 c -1.573,-6.954 -9.188,-12.231 -18.346,-12.231 -10.297,0 -18.643,6.667 -18.643,14.891 0,8.224 8.346,14.888 18.643,14.888 9.945,0 18.068,-6.218 18.611,-14.054 0.006,-0.116 0.015,-0.234 0.019,-0.352 l -0.651,0 -13.213,0 0,2.711 9.905,0 c -1.756,5.157 -7.659,8.947 -14.671,8.947 -8.398,0 -15.202,-5.435 -15.202,-12.141 0,-6.706 6.804,-12.143 15.202,-12.143 7.51,0 13.749,4.35 14.982,10.068 l 3.364,-0.584 z"
       style="color:#000000;font-style:normal;font-variant:normal;font-weight:normal;font-stretch:normal;font-size:medium;line-height:normal;font-family:sans-serif;text-indent:0;text-align:start;text-decoration:none;text-decoration-line:none;text-decoration-style:solid;text-decoration-color:#000000;letter-spacing:normal;word-spacing:normal;text-transform:none;direction:ltr;block-progression:tb;writing-mode:lr-tb;baseline-shift:baseline;text-anchor:start;white-space:normal;clip-rule:nonzero;display:inline;overflow:visible;visibility:visible;opacity:1;isolation:auto;mix-blend-mode:normal;color-interpolation:sRGB;color-interpolation-filters:linearRGB;solid-color:#000000;solid-opacity:1;fill:#222222;fill-opacity:1;fill-rule:nonzero;stroke:none;stroke-width:0.85720003;stroke-linecap:butt;stroke-linejoin:miter;stroke-miterlimit:10;stroke-dasharray:none;stroke-dashoffset:0;stroke-opacity:1;color-rendering:auto;image-rendering:auto;shape-rendering:auto;text-rendering:auto;enable-background:accumulate"
       id="rect83-3"
       inkscape:connector-curvature="0" /><path
       style="fill:#222222;fill-opacity:1"
       d="m 209.08997,82.865172 -4.797,0 -18.809,-28.432 3.768,-1.587 z m -26.901,-0.098 0,-30.925 9.954,0 c 2.55,0 4.493,0.098 5.837,0.296 1.886,0.252 3.466,0.734 4.741,1.444 1.273,0.711 2.301,1.705 3.077,2.984 0.776,1.279 1.165,2.685 1.165,4.219 0,2.631 -1.039,4.854 -3.118,6.678 -2.075,1.82 -5.829,2.731 -11.258,2.731 l -5.319,0 0,12.572 -5.079,0 z m 5.08,-16.223 5.398,0 c 3.282,0 5.611,-0.492 6.992,-1.477 1.376,-0.982 2.067,-2.367 2.067,-4.155 0,-1.293 -0.408,-2.402 -1.219,-3.323 -0.812,-0.92 -1.882,-1.529 -3.206,-1.824 -0.857,-0.184 -2.436,-0.276 -4.74,-0.276 l -5.293,0 0,11.055 z"
       id="polygon97"
       inkscape:connector-curvature="0" /><g
       id="text99"
       style="font-size:15.07320023px;font-family:ArialMT;fill:#222222;fill-opacity:1"
       transform="matrix(1.127,0,0,1,182.69527,97.468772)"><path
         inkscape:connector-curvature="0"
         id="path4433"
         style="font-size:15.07320023px;font-family:ArialMT;fill:#222222;fill-opacity:1"
         d="m 1.4793522,-10.988422 1.4867121,0 0,4.5042963 5.4022114,0 0,-4.5042963 1.4867121,0 0,10.988422 -1.4867121,0 0,-5.2329323 -5.4022114,0 0,5.2329323 -1.4867121,0 0,-10.988422 z" /><path
         inkscape:connector-curvature="0"
         id="path4435"
         style="font-size:15.07320023px;font-family:ArialMT;fill:#222222;fill-opacity:1"
         d="m 16.486313,-9.5237896 -2.016629,5.4684511 4.040618,0 -2.023989,-5.4684511 z m -0.839036,-1.4646324 1.685431,0 L 21.520526,0 19.974934,0 18.97398,-2.8188651 l -4.953254,0 L 13.019771,0 11.452099,0 15.647277,-10.988422 Z" /><path
         inkscape:connector-curvature="0"
         id="path4437"
         style="font-size:15.07320023px;font-family:ArialMT;fill:#222222;fill-opacity:1"
         d="m 22.94836,-10.988422 1.494072,0 0,6.6754848 q 0,1.7663907 0.640316,2.5465465 0.640317,0.77279596 2.075509,0.77279596 1.427833,0 2.068149,-0.77279596 0.640317,-0.7801558 0.640317,-2.5465465 l 0,-6.6754848 1.494072,0 0,6.8594839 q 0,2.1491086 -1.067194,3.24574277 -1.059835,1.0966342 -3.135344,1.0966342 -2.082869,0 -3.150063,-1.0966342 Q 22.94836,-1.9798295 22.94836,-4.1289381 l 0,-6.8594839 z" /><path
         inkscape:connector-curvature="0"
         id="path4439"
         style="font-size:15.07320023px;font-family:ArialMT;fill:#222222;fill-opacity:1"
         d="m 32.634067,-10.988422 9.295631,0 0,1.2511935 -3.90078,0 0,9.7372285 -1.494072,0 0,-9.7372285 -3.900779,0 0,-1.2511935 z" /><path
         inkscape:connector-curvature="0"
         id="path4441"
         style="font-size:15.07320023px;font-family:ArialMT;fill:#222222;fill-opacity:1"
         d="m 43.372251,-10.988422 6.947803,0 0,1.2511935 -5.461091,0 0,3.2531028 5.232932,0 0,1.2511934 -5.232932,0 0,3.9817389 5.59357,0 0,1.2511934 -7.080282,0 0,-10.988422 z" /><path
         inkscape:connector-curvature="0"
         id="path4443"
         style="font-size:15.07320023px;font-family:ArialMT;fill:#222222;fill-opacity:1"
         d="m 65.937891,-10.142026 0,1.5676714 q -0.750716,-0.6991963 -1.604471,-1.0451145 -0.846396,-0.3459182 -1.803191,-0.3459182 -1.88415,0 -2.885105,1.1555139 -1.000954,1.1481539 -1.000954,3.3267024 0,2.1711885 1.000954,3.3267024 1.000955,1.1481539 2.885105,1.1481539 0.956795,0 1.803191,-0.3459181 0.853755,-0.3459182 1.604471,-1.0451145 l 0,1.55295178 q -0.780156,0.52991719 -1.655991,0.79487579 -0.868475,0.2649586 -1.83999,0.2649586 -2.495027,0 -3.93022,-1.52351197 -1.435192,-1.5308719 -1.435192,-4.1730979 0,-2.649586 1.435192,-4.1730979 1.435193,-1.5308721 3.93022,-1.5308721 0.986234,0 1.85471,0.264959 0.875835,0.257598 1.641271,0.780156 z" /><path
         inkscape:connector-curvature="0"
         id="path4445"
         style="font-size:15.07320023px;font-family:ArialMT;fill:#222222;fill-opacity:1"
         d="m 68.079642,-10.988422 1.494073,0 0,6.6754848 q 0,1.7663907 0.640316,2.5465465 0.640317,0.77279596 2.075509,0.77279596 1.427833,0 2.068149,-0.77279596 0.640317,-0.7801558 0.640317,-2.5465465 l 0,-6.6754848 1.494072,0 0,6.8594839 q 0,2.1491086 -1.067194,3.24574277 -1.059835,1.0966342 -3.135344,1.0966342 -2.082869,0 -3.150063,-1.0966342 -1.059835,-1.09663417 -1.059835,-3.24574277 l 0,-6.8594839 z" /><path
         inkscape:connector-curvature="0"
         id="path4447"
         style="font-size:15.07320023px;font-family:ArialMT;fill:#222222;fill-opacity:1"
         d="m 79.288861,-10.988422 1.486713,0 0,10.988422 -1.486713,0 0,-10.988422 z" /><path
         inkscape:connector-curvature="0"
         id="path4449"
         style="font-size:15.07320023px;font-family:ArialMT;fill:#222222;fill-opacity:1"
         d="m 90.321446,-10.627784 0,1.4499126 q -0.846396,-0.4047979 -1.597112,-0.6035168 -0.750716,-0.198719 -1.449912,-0.198719 -1.214394,0 -1.87679,0.4710375 -0.655037,0.4710375 -0.655037,1.3395129 0,0.7286362 0.434238,1.1039942 0.441598,0.367998 1.663351,0.5961568 l 0.897916,0.1839991 q 1.663351,0.3164783 2.450867,1.118714 0.794875,0.7948758 0.794875,2.1343887 0,1.5971116 -1.074554,2.42142723 -1.067194,0.82431564 -3.135343,0.82431564 -0.780156,0 -1.663352,-0.17663906 -0.875835,-0.17663907 -1.81791,-0.52255724 l 0,-1.53087187 q 0.905275,0.5078373 1.773751,0.7654359 0.868475,0.25759866 1.707511,0.25759866 1.273273,0 1.965109,-0.50047736 0.691837,-0.5004773 0.691837,-1.4278324 0,-0.8095958 -0.500478,-1.2659133 -0.493117,-0.4563176 -1.626551,-0.6844764 l -0.905275,-0.1766391 q -1.663352,-0.3311982 -2.406708,-1.0377545 -0.743356,-0.7065562 -0.743356,-1.9651096 0,-1.4572723 1.023035,-2.2963076 1.030394,-0.839036 2.833585,-0.839036 0.772796,0 1.575032,0.139839 0.802235,0.13984 1.641271,0.419518 z" /><path
         inkscape:connector-curvature="0"
         id="path4451"
         style="font-size:15.07320023px;font-family:ArialMT;fill:#222222;fill-opacity:1"
         d="m 93.302228,-10.988422 1.486712,0 0,10.988422 -1.486712,0 0,-10.988422 z" /><path
         inkscape:connector-curvature="0"
         id="path4453"
         style="font-size:15.07320023px;font-family:ArialMT;fill:#222222;fill-opacity:1"
         d="m 97.74764,-10.988422 2.001909,0 4.872291,9.1925915 0,-9.1925915 1.44256,0 0,10.988422 -2.00191,0 -4.872298,-9.1925913 0,9.1925913 -1.442552,0 0,-10.988422 z" /><path
         inkscape:connector-curvature="0"
         id="path4455"
         style="font-size:15.07320023px;font-family:ArialMT;fill:#222222;fill-opacity:1"
         d="m 109.0231,-10.988422 6.9478,0 0,1.2511935 -5.46109,0 0,3.2531028 5.23293,0 0,1.2511934 -5.23293,0 0,3.9817389 5.59357,0 0,1.2511934 -7.08028,0 0,-10.988422 z" /></g></g></svg>