<?xml version="1.0" encoding="utf-8"?>
<!-- Generator: Adobe Illustrator 21.0.0, SVG Export Plug-In . SVG Version: 6.00 Build 0)  -->
<svg version="1.1"
	 id="Layer_1" inkscape:version="0.91 r13725" sodipodi:docname="bangarang_haute_cuisine.svg" xmlns:cc="http://creativecommons.org/ns#" xmlns:dc="http://purl.org/dc/elements/1.1/" xmlns:inkscape="http://www.inkscape.org/namespaces/inkscape" xmlns:rdf="http://www.w3.org/1999/02/22-rdf-syntax-ns#" xmlns:sodipodi="http://sodipodi.sourceforge.net/DTD/sodipodi-0.dtd" xmlns:svg="http://www.w3.org/2000/svg"
	 xmlns="http://www.w3.org/2000/svg" xmlns:xlink="http://www.w3.org/1999/xlink" x="0px" y="0px" viewBox="0 0 276.2 40"
	 style="enable-background:new 0 0 276.2 40;" xml:space="preserve">
<style type="text/css">
	.st0{fill:#FFFFFF;}
</style>
<sodipodi:namedview  bordercolor="#666666" borderopacity="1" fit-margin-bottom="0" fit-margin-left="0" fit-margin-right="0" fit-margin-top="0" gridtolerance="10" guidetolerance="10" id="namedview105" inkscape:bbox-nodes="true" inkscape:bbox-paths="true" inkscape:current-layer="Layer_1" inkscape:cx="138.6839" inkscape:cy="5.2185384" inkscape:object-nodes="false" inkscape:pageopacity="0" inkscape:pageshadow="2" inkscape:snap-bbox="true" inkscape:snap-bbox-edge-midpoints="true" inkscape:snap-bbox-midpoints="true" inkscape:snap-intersection-paths="false" inkscape:snap-midpoints="false" inkscape:snap-smooth-nodes="false" inkscape:window-height="1059" inkscape:window-maximized="1" inkscape:window-width="1920" inkscape:window-x="0" inkscape:window-y="21" inkscape:zoom="3.4625028" objecttolerance="10" pagecolor="#cec7c6" showgrid="false">
	</sodipodi:namedview>
<g id="g93" transform="translate(-61.457031,-122.73104)">
</g>
<g id="g4261" transform="translate(0,-57.682215)">
	<path id="polygon59-6" inkscape:connector-curvature="0" class="st0" d="M135.4,58.2l-4.7,9.9l-2.4-2.8l-2.3,2l3.2,3.8l-6.5,13.5
		h4.6l4.7-10.2l5.5,6.4l6.1-6.9l5,10.8h5l-7.2-14l2.8-3.2l-2.3-2l-2,2.3l-4.9-9.5L135.4,58.2L135.4,58.2z M138,61.8l4.3,9.1
		l-4.6,5.3l-4.1-4.8C133.5,71.4,138,61.8,138,61.8z"/>
	<path id="path5" inkscape:connector-curvature="0" class="st0" d="M0,58.3v26.4h12.6c2.1,0,3.9-0.1,5.3-0.4
		c1.5-0.3,2.7-0.7,3.6-1.3c1-0.6,1.8-1.4,2.4-2.5c0.7-1.1,1-2.2,1-3.5c0-1.5-0.5-2.9-1.6-4c-1.1-1.1-2.6-1.9-4.6-2.4
		c1.5-0.6,2.7-1.4,3.5-2.4c0.8-1,1.2-2.1,1.2-3.2c0-1.2-0.4-2.4-1.3-3.5c-0.9-1.1-2.1-1.9-3.6-2.5c-1.5-0.5-3.6-0.8-6.1-0.8H0z
		 M5.8,61.4H11c2.4,0,4.1,0.1,5,0.4c1,0.2,1.7,0.7,2.3,1.4c0.5,0.7,0.8,1.4,0.8,2.3c0,0.9-0.3,1.7-0.8,2.3c-0.6,0.6-1.4,1.1-2.5,1.3
		c0,0,0,0,0,0L5.8,61.4L5.8,61.4z M4.4,63.2l8,6.2c-0.3,0-0.5,0-0.8,0H4.4h0L4.4,63.2L4.4,63.2z M4.4,72.5H12c0.1,0,0.2,0,0.3,0
		l-7.9,6.8V72.5L4.4,72.5z M15.6,72.7c0.5,0.1,0.9,0.1,1.3,0.2c1.1,0.3,2,0.8,2.6,1.5c0.6,0.7,0.9,1.6,0.9,2.6
		c0,0.8-0.2,1.6-0.7,2.2c-0.4,0.6-1,1.1-1.7,1.5c-0.7,0.3-1.5,0.6-2.5,0.7c-0.6,0.1-1.6,0.1-3,0.1H5.2C5.2,81.6,15.6,72.7,15.6,72.7
		z"/>
	<path id="polygon45" inkscape:connector-curvature="0" class="st0" d="M38.9,58.2l-4.7,9.9l-2.4-2.8l-2.3,2l3.2,3.8l-6.5,13.5h4.6
		l4.7-10.2l5.5,6.4l6.1-6.9l5,10.8h5l-7.2-14l2.8-3.2l-2.3-2l-2,2.3l-4.9-9.5L38.9,58.2L38.9,58.2z M41.4,61.8l4.3,9.1L41,76.1
		l-4.1-4.8C36.9,71.4,41.4,61.8,41.4,61.8z"/>
	<path id="polygon59" inkscape:connector-curvature="0" class="st0" d="M195.3,58.2l-4.7,9.9l-2.4-2.8l-2.3,2l3.2,3.8l-6.5,13.5h4.6
		l4.7-10.2l5.5,6.4l6.1-6.9l5,10.8h5l-7.2-14l2.8-3.2l-2.3-2l-2,2.3l-4.9-9.5L195.3,58.2L195.3,58.2z M197.8,61.8l4.3,9.1l-4.6,5.3
		l-4.1-4.8C193.3,71.4,197.8,61.8,197.8,61.8z"/>
	<path id="path67" inkscape:connector-curvature="0" class="st0" d="M59.9,58.2v26.4h4.2V64.6l15.7,20.1H86V58.2h-4.2v20l-15.7-20
		C66.1,58.2,59.9,58.2,59.9,58.2z M64.4,59.9L81.6,81v2L64.4,61.8C64.4,61.8,64.4,59.9,64.4,59.9z"/>
	<path id="path67-0" inkscape:connector-curvature="0" class="st0" d="M215.3,58.2v26.4h4.2V64.6l15.7,20.1h6.2V58.2h-4.2v20
		l-15.7-20H215.3z M219.7,59.9L236.9,81v2l-17.2-21.2V59.9z"/>
	<path id="rect83" inkscape:connector-curvature="0" class="st0" d="M105.9,57.7c-9.1,0-16.5,5.9-16.5,13.3
		c0,7.4,7.5,13.3,16.5,13.3c8.8,0,16-5.5,16.5-12.5v0v0c0-0.1,0-0.2,0-0.3l0-0.4h-0.9h-11.8v3.1h8.3c-1.6,3.9-6.1,6.9-11.7,7V60.8
		c6.2,0.2,11.2,3.8,12.2,8.4l0.1,0.3l3.7-0.6l-0.1-0.4C120.7,62.3,114,57.7,105.9,57.7L105.9,57.7z M105.9,58.4
		c7.6,0,13.9,4.3,15.4,9.9l-2.2,0.4c-1.3-4.9-6.5-8.5-12.8-8.7V60h-3.1v0.3c-6.2,1-10.9,5.4-10.9,10.7c0,5.3,4.7,9.7,10.9,10.7v1.2
		h3.1v-1c6-0.2,11.1-3.4,12.6-8l0.2-0.5h-8.7v-1.6h11.1h0.2c-0.5,6.5-7.3,11.8-15.8,11.8c-8.8,0-15.8-5.7-15.8-12.5
		C90.1,64.1,97.1,58.4,105.9,58.4L105.9,58.4z M103.2,61v19.9C97.4,79.9,93,75.8,93,71C93,66.1,97.4,62,103.2,61z M121.8,68.7
		c-1.4-6-8-10.6-15.9-10.6c-8.9,0-16.2,5.8-16.2,12.9s7.2,12.9,16.2,12.9c8.6,0,15.7-5.4,16.1-12.2c0-0.1,0-0.2,0-0.3h-0.6H110v2.4
		h8.6c-1.5,4.5-6.6,7.8-12.7,7.8c-7.3,0-13.2-4.7-13.2-10.5s5.9-10.5,13.2-10.5c6.5,0,11.9,3.8,13,8.7L121.8,68.7L121.8,68.7z"/>
	<path id="rect83-3" inkscape:connector-curvature="0" class="st0" d="M259.6,58.3c-9.1,0-16.5,5.9-16.5,13.3
		c0,7.4,7.5,13.3,16.5,13.3c8.8,0,16-5.5,16.5-12.5v0v0c0-0.1,0-0.2,0-0.3l0-0.4h-0.9h-11.8v3.1h8.3c-1.6,3.9-6.1,6.9-11.7,7V61.4
		c6.2,0.2,11.2,3.8,12.2,8.4l0.1,0.3l3.7-0.6l-0.1-0.4C274.5,63,267.7,58.3,259.6,58.3L259.6,58.3z M259.6,59
		c7.6,0,13.9,4.3,15.4,9.9l-2.2,0.4c-1.3-4.9-6.5-8.5-12.8-8.7v-0.1H257v0.3c-6.2,1-10.9,5.4-10.9,10.7c0,5.3,4.7,9.7,10.9,10.7v1.2
		h3.1v-1c6-0.2,11.1-3.4,12.6-8l0.2-0.5h-8.7v-1.6h11.1h0.2c-0.5,6.5-7.3,11.8-15.8,11.8c-8.8,0-15.8-5.7-15.8-12.5
		C243.8,64.7,250.9,59,259.6,59L259.6,59z M257,61.7v19.9c-5.8-1-10.2-5.1-10.2-9.9C246.8,66.7,251.1,62.6,257,61.7z M275.5,69.3
		c-1.4-6-8-10.6-15.9-10.6c-8.9,0-16.2,5.8-16.2,12.9s7.2,12.9,16.2,12.9c8.6,0,15.7-5.4,16.1-12.2c0-0.1,0-0.2,0-0.3h-0.6h-11.5
		v2.4h8.6c-1.5,4.5-6.6,7.8-12.7,7.8c-7.3,0-13.2-4.7-13.2-10.5s5.9-10.5,13.2-10.5c6.5,0,11.9,3.8,13,8.7L275.5,69.3L275.5,69.3z"
		/>
	<path id="polygon97" inkscape:connector-curvature="0" class="st0" d="M181.4,84.8h-4.2l-16.3-24.7l3.3-1.4L181.4,84.8z
		 M158.1,84.7V57.9h8.6c2.2,0,3.9,0.1,5.1,0.3c1.6,0.2,3,0.6,4.1,1.3c1.1,0.6,2,1.5,2.7,2.6c0.7,1.1,1,2.3,1,3.7
		c0,2.3-0.9,4.2-2.7,5.8c-1.8,1.6-5.1,2.4-9.8,2.4h-4.6v10.9L158.1,84.7L158.1,84.7z M162.5,70.7h4.7c2.8,0,4.9-0.4,6.1-1.3
		c1.2-0.9,1.8-2.1,1.8-3.6c0-1.1-0.4-2.1-1.1-2.9c-0.7-0.8-1.6-1.3-2.8-1.6c-0.7-0.2-2.1-0.2-4.1-0.2h-4.6L162.5,70.7L162.5,70.7z"
		/>
	<g id="text99" transform="matrix(0.97778364,0,0,0.86759862,158.50616,97.497036)">
		<path id="path4433" inkscape:connector-curvature="0" class="st0" d="M1.5-11H3v4.5h5.4V-11h1.5V0H8.4v-5.2H3V0H1.5
			C1.5,0,1.5-11,1.5-11z"/>
		<path id="path4435" inkscape:connector-curvature="0" class="st0" d="M16.5-9.5l-2,5.5h4L16.5-9.5z M15.6-11h1.7l4.2,11H20l-1-2.8
			h-5L13,0h-1.6C11.5,0,15.6-11,15.6-11z"/>
		<path id="path4437" inkscape:connector-curvature="0" class="st0" d="M22.9-11h1.5v6.7c0,1.2,0.2,2,0.6,2.5
			C25.5-1.3,26.2-1,27.2-1c1,0,1.6-0.3,2.1-0.8c0.4-0.5,0.6-1.4,0.6-2.5V-11h1.5v6.9c0,1.4-0.4,2.5-1.1,3.2
			c-0.7,0.7-1.8,1.1-3.1,1.1c-1.4,0-2.4-0.4-3.2-1.1c-0.7-0.7-1.1-1.8-1.1-3.2V-11z"/>
		<path id="path4439" inkscape:connector-curvature="0" class="st0" d="M32.6-11h9.3v1.3H38V0h-1.5v-9.7h-3.9V-11z"/>
		<path id="path4441" inkscape:connector-curvature="0" class="st0" d="M43.4-11h6.9v1.3h-5.5v3.3h5.2v1.3h-5.2v4h5.6V0h-7.1
			C43.4,0,43.4-11,43.4-11z"/>
		<path id="path4443" inkscape:connector-curvature="0" class="st0" d="M65.9-10.1v1.6c-0.5-0.5-1-0.8-1.6-1
			c-0.6-0.2-1.2-0.3-1.8-0.3c-1.3,0-2.2,0.4-2.9,1.2c-0.7,0.8-1,1.9-1,3.3c0,1.4,0.3,2.6,1,3.3C60.3-1.4,61.3-1,62.5-1
			c0.6,0,1.2-0.1,1.8-0.3c0.6-0.2,1.1-0.6,1.6-1v1.6c-0.5,0.4-1.1,0.6-1.7,0.8c-0.6,0.2-1.2,0.3-1.8,0.3c-1.7,0-3-0.5-3.9-1.5
			c-1-1-1.4-2.4-1.4-4.2c0-1.8,0.5-3.2,1.4-4.2c1-1,2.3-1.5,3.9-1.5c0.7,0,1.3,0.1,1.9,0.3C64.9-10.8,65.4-10.5,65.9-10.1z"/>
		<path id="path4445" inkscape:connector-curvature="0" class="st0" d="M68.1-11h1.5v6.7c0,1.2,0.2,2,0.6,2.5
			C70.6-1.3,71.3-1,72.3-1c1,0,1.6-0.3,2.1-0.8C74.8-2.3,75-3.1,75-4.3V-11h1.5v6.9c0,1.4-0.4,2.5-1.1,3.2c-0.7,0.7-1.8,1.1-3.1,1.1
			c-1.4,0-2.4-0.4-3.2-1.1c-0.7-0.7-1.1-1.8-1.1-3.2V-11z"/>
		<path id="path4447" inkscape:connector-curvature="0" class="st0" d="M79.3-11h1.5V0h-1.5V-11z"/>
		<path id="path4449" inkscape:connector-curvature="0" class="st0" d="M90.3-10.6v1.4c-0.6-0.3-1.1-0.5-1.6-0.6
			c-0.5-0.1-1-0.2-1.4-0.2c-0.8,0-1.4,0.2-1.9,0.5c-0.4,0.3-0.7,0.8-0.7,1.3c0,0.5,0.1,0.9,0.4,1.1c0.3,0.2,0.8,0.4,1.7,0.6l0.9,0.2
			c1.1,0.2,1.9,0.6,2.5,1.1C90.7-4.6,91-3.9,91-3c0,1.1-0.4,1.9-1.1,2.4c-0.7,0.5-1.8,0.8-3.1,0.8c-0.5,0-1.1-0.1-1.7-0.2
			c-0.6-0.1-1.2-0.3-1.8-0.5V-2c0.6,0.3,1.2,0.6,1.8,0.8C85.6-1.1,86.2-1,86.8-1c0.8,0,1.5-0.2,2-0.5s0.7-0.8,0.7-1.4
			c0-0.5-0.2-1-0.5-1.3c-0.3-0.3-0.9-0.5-1.6-0.7L86.4-5c-1.1-0.2-1.9-0.6-2.4-1c-0.5-0.5-0.7-1.1-0.7-2c0-1,0.3-1.7,1-2.3
			c0.7-0.6,1.6-0.8,2.8-0.8c0.5,0,1,0,1.6,0.1C89.2-11,89.8-10.8,90.3-10.6z"/>
		<path id="path4451" inkscape:connector-curvature="0" class="st0" d="M93.3-11h1.5V0h-1.5V-11z"/>
		<path id="path4453" inkscape:connector-curvature="0" class="st0" d="M97.7-11h2l4.9,9.2V-11h1.4V0h-2l-4.9-9.2V0h-1.4V-11z"/>
		<path id="path4455" inkscape:connector-curvature="0" class="st0" d="M109-11h6.9v1.3h-5.5v3.3h5.2v1.3h-5.2v4h5.6V0H109V-11z"/>
	</g>
</g>
</svg>
