<?xml version="1.0" encoding="UTF-8" standalone="no"?>
<!-- Generator: Adobe Illustrator 16.0.4, SVG Export Plug-In . SVG Version: 6.00 Build 0)  -->

<svg
   xmlns:dc="http://purl.org/dc/elements/1.1/"
   xmlns:cc="http://creativecommons.org/ns#"
   xmlns:rdf="http://www.w3.org/1999/02/22-rdf-syntax-ns#"
   xmlns:svg="http://www.w3.org/2000/svg"
   xmlns="http://www.w3.org/2000/svg"
   xmlns:sodipodi="http://sodipodi.sourceforge.net/DTD/sodipodi-0.dtd"
   xmlns:inkscape="http://www.inkscape.org/namespaces/inkscape"
   version="1.1"
   id="Layer_1"
   x="0px"
   y="0px"
   width="276.17838"
   height="40"
   viewBox="0 0 276.17838 40.000001"
   enable-background="new 0 0 439.478 283.486"
   xml:space="preserve"
   inkscape:version="0.91 r13725"
   sodipodi:docname="bangarang_haute_cuisine.svg"><metadata
     id="metadata109"><rdf:RDF><cc:Work
         rdf:about=""><dc:format>image/svg+xml</dc:format><dc:type
           rdf:resource="http://purl.org/dc/dcmitype/StillImage" /><dc:title /></cc:Work></rdf:RDF></metadata><defs
     id="defs107" /><sodipodi:namedview
     pagecolor="#cec7c6"
     bordercolor="#666666"
     borderopacity="1"
     objecttolerance="10"
     gridtolerance="10"
     guidetolerance="10"
     inkscape:pageopacity="0"
     inkscape:pageshadow="2"
     inkscape:window-width="1920"
     inkscape:window-height="1059"
     id="namedview105"
     showgrid="false"
     inkscape:snap-intersection-paths="false"
     inkscape:object-nodes="false"
     inkscape:snap-smooth-nodes="false"
     inkscape:snap-midpoints="false"
     inkscape:snap-bbox="true"
     inkscape:bbox-paths="true"
     inkscape:bbox-nodes="true"
     inkscape:snap-bbox-edge-midpoints="true"
     inkscape:snap-bbox-midpoints="true"
     fit-margin-top="0"
     fit-margin-left="0"
     fit-margin-right="0"
     fit-margin-bottom="0"
     inkscape:zoom="3.4625028"
     inkscape:cx="138.6839"
     inkscape:cy="5.2185384"
     inkscape:window-x="0"
     inkscape:window-y="21"
     inkscape:window-maximized="1"
     inkscape:current-layer="Layer_1" /><g
     id="g93"
     transform="translate(-61.457031,-122.73104)" /><g
     id="g4261"
     style="fill:#cec7c6;fill-opacity:1"
     transform="translate(0,-57.682215)"><path
       style="fill:#cec7c6;fill-opacity:1"
       id="polygon59-6"
       d="m 135.4249,58.224595 -4.73959,9.860466 -2.38082,-2.775639 -2.29777,1.970733 3.24502,3.783884 -6.51038,13.544368 4.63962,0 4.72773,-10.212928 5.46316,6.369736 6.06133,-6.908593 5.04123,10.751785 4.97852,0 -7.17124,-13.996803 2.78241,-3.172158 -2.27406,-1.996153 -1.99276,2.272362 -4.8633,-9.49106 -4.7091,0 z m 2.53502,3.528011 4.27191,9.113178 -4.63285,5.280145 -4.09228,-4.771793 4.45322,-9.62153 z"
       inkscape:connector-curvature="0" /><path
       style="fill:#cec7c6;fill-opacity:1"
       id="path5"
       d="m 0,58.290706 0,26.426177 12.615765,0 c 2.105662,0 3.887141,-0.148984 5.337766,-0.443967 1.45236,-0.293249 2.658173,-0.727794 3.621207,-1.306482 0.963034,-0.576086 1.771528,-1.396817 2.426565,-2.458757 0.655037,-1.064544 0.982826,-2.214563 0.982826,-3.451759 0,-1.538252 -0.538236,-2.872038 -1.613191,-4.000783 -1.075822,-1.130481 -2.615213,-1.931813 -4.615896,-2.399449 1.549532,-0.612524 2.708521,-1.417829 3.475478,-2.4147 0.767825,-0.99688 1.15228,-2.061189 1.15228,-3.190802 0,-1.214638 -0.43384,-2.375902 -1.299704,-3.489031 C 21.219835,60.449759 20.022753,59.62666 18.49578,59.092219 16.967939,58.558646 14.942299,58.290706 12.414116,58.290706 L 0,58.290706 Z m 5.7766477,3.117941 5.2140643,0 c 2.377221,0 4.054966,0.123876 5.03275,0.369406 0.977784,0.247266 1.73048,0.702816 2.257112,1.370867 0.5275,0.667183 0.789651,1.437584 0.789651,2.314727 0,0.925727 -0.282498,1.694602 -0.84557,2.306259 -0.564807,0.61426 -1.403246,1.054627 -2.516375,1.316642 -0.01067,0.0026 -0.02643,0.0043 -0.03728,0.0069 L 5.7766469,61.408803 Z m -1.3979859,1.787721 7.9642842,6.186725 c -0.266004,0.0043 -0.51935,0.01189 -0.809984,0.01189 l -7.1526058,0 -0.00174,0 0,-6.198585 z m 0.00174,9.316517 7.6507972,0 c 0.103241,0 0.190583,0.0043 0.291458,0.0052 l -7.9422552,6.815395 0,-6.820479 z m 11.1957502,0.203348 c 0.479251,0.06533 0.924908,0.141549 1.296315,0.238928 1.12007,0.294116 1.996561,0.804802 2.629908,1.53185 0.631612,0.72618 0.947242,1.582447 0.947242,2.568907 0,0.840703 -0.220249,1.582023 -0.655783,2.224913 -0.43727,0.643759 -0.992384,1.132529 -1.669111,1.469157 -0.677594,0.336628 -1.520086,0.576979 -2.528236,0.721877 -0.571747,0.08416 -1.565663,0.125394 -2.978981,0.125394 l -7.3898395,0 10.3484855,-8.881026 z"
       inkscape:connector-curvature="0" /><path
       style="fill:#cec7c6;fill-opacity:1"
       id="polygon45"
       d="m 38.86401,58.224621 -4.739596,9.860466 -2.379116,-2.775639 -2.29778,1.970733 3.245022,3.783884 -6.510379,13.544368 4.637925,0 4.727736,-10.21462 5.464857,6.371428 6.061321,-6.908593 5.039534,10.751785 4.980215,0 -7.17124,-13.996803 2.782414,-3.172158 -2.275754,-1.996153 -1.992761,2.270662 -4.861607,-9.48936 -4.710791,0 z m 2.536711,3.528011 4.271908,9.113178 -4.634538,5.280145 -4.092281,-4.771793 4.454911,-9.62153 z"
       inkscape:connector-curvature="0" /><path
       style="fill:#cec7c6;fill-opacity:1"
       id="polygon59"
       d="m 195.26052,58.224621 -4.73959,9.860466 -2.38082,-2.775639 -2.29777,1.970733 3.24502,3.783884 -6.51038,13.544368 4.63962,0 4.72773,-10.212928 5.46316,6.369736 6.06133,-6.908593 5.04123,10.751785 4.97852,0 -7.17124,-13.996803 2.78241,-3.172158 -2.27406,-1.996153 -1.99276,2.272362 -4.8633,-9.49106 -4.7091,0 z m 2.53502,3.528011 4.27191,9.113178 -4.63285,5.280145 -4.09228,-4.771793 4.45322,-9.62153 z"
       inkscape:connector-curvature="0" /><path
       style="fill:#cec7c6;fill-opacity:1"
       id="path67"
       d="m 59.943949,58.224621 0,26.383812 4.192263,0 0,-20.054741 15.655748,20.054741 6.176556,0 0,-26.383812 -4.190571,0 0,20.037806 -15.655748,-20.037806 -6.178248,0 z m 4.407471,1.672504 17.211326,21.068071 0,2.001238 -17.211326,-21.162969 0,-1.90634 z"
       inkscape:connector-curvature="0" /><path
       style="fill:#cec7c6;fill-opacity:1"
       id="path67-0"
       d="m 215.27367,58.224525 0,26.383813 4.19226,0 0,-20.054742 15.65575,20.054742 6.17656,0 0,-26.383813 -4.19057,0 0,20.037806 -15.65575,-20.037806 -6.17825,0 z m 4.40747,1.672505 17.21133,21.068071 0,2.001237 -17.21133,-21.162969 0,-1.906339 z"
       inkscape:connector-curvature="0" /><path
       d="m 105.86737,57.682371 c -9.094171,0 -16.547077,5.90518 -16.547077,13.291889 0,7.386717 7.452976,13.288487 16.547077,13.288487 8.78326,0 16.02872,-5.499404 16.51657,-12.539507 l 0,-0.0035 0,-0.0035 c 0.005,-0.09447 0.0131,-0.198923 0.0169,-0.311789 l 0.0135,-0.384659 -0.94893,0 -11.83628,0 0,3.095904 8.3303,0 c -1.62937,3.917894 -6.14928,6.855583 -11.65496,7.005183 l 0,-20.297062 c 6.17183,0.165659 11.19743,3.790425 12.19721,8.42689 l 0.0745,0.349069 3.65679,-0.633755 -0.0864,-0.382958 C 120.73385,62.337437 113.95562,57.682215 105.8673,57.682215 Z m 0,0.743906 c 7.6306,0 13.91871,4.314455 15.42529,9.948571 l -2.21475,0.384658 c -1.26262,-4.880207 -6.46644,-8.515116 -12.77335,-8.677678 l 0,-0.106758 -3.0993,0 0,0.305013 c -6.187762,0.990607 -10.899204,5.364796 -10.899204,10.692476 0,5.327689 4.711468,9.70357 10.899204,10.694169 l 0,1.167536 3.0993,0 0,-0.970965 c 6.02527,-0.153912 11.09292,-3.447975 12.64287,-7.999875 l 0.16776,-0.491408 -8.74207,0 0,-1.608111 11.09238,0 0.15929,0 c -0.51289,6.513427 -7.32463,11.754946 -15.75742,11.754946 -8.773229,0 -15.803172,-5.661038 -15.803181,-12.544591 0,-6.883545 7.030022,-12.547992 15.803181,-12.547983 z m -2.66211,2.604487 0,19.881899 c -5.829904,-0.975719 -10.155308,-5.087538 -10.155308,-9.940104 0,-4.852557 4.32543,-8.965738 10.155308,-9.941795 z m 18.57819,7.635996 c -1.36474,-6.033281 -7.9715,-10.611599 -15.91697,-10.611599 -8.93366,0 -16.174638,5.78428 -16.174638,12.919411 0,7.135131 7.240978,12.916809 16.174638,12.916809 8.62827,0 15.67578,-5.394729 16.14688,-12.193231 0.005,-0.100642 0.013,-0.203019 0.0165,-0.305395 l -0.56481,0 -11.46358,0 0,2.35206 8.59356,0 c -1.5235,4.474206 -6.64494,7.762405 -12.72854,7.762405 -7.28609,0 -13.189231,-4.715399 -13.189231,-10.533515 0,-5.818117 5.903141,-10.53525 13.189231,-10.53525 6.51567,0 11.92862,3.774054 12.99837,8.734983 l 2.9186,-0.506678 z"
       style="color:#000000;font-style:normal;font-variant:normal;font-weight:normal;font-stretch:normal;font-size:medium;line-height:normal;font-family:sans-serif;text-indent:0;text-align:start;text-decoration:none;text-decoration-line:none;text-decoration-style:solid;text-decoration-color:#000000;letter-spacing:normal;word-spacing:normal;text-transform:none;direction:ltr;block-progression:tb;writing-mode:lr-tb;baseline-shift:baseline;text-anchor:start;white-space:normal;clip-rule:nonzero;display:inline;overflow:visible;visibility:visible;opacity:1;isolation:auto;mix-blend-mode:normal;color-interpolation:sRGB;color-interpolation-filters:linearRGB;solid-color:#000000;solid-opacity:1;fill:#cec7c6;fill-opacity:1;fill-rule:nonzero;stroke:none;stroke-width:0.85720003;stroke-linecap:butt;stroke-linejoin:miter;stroke-miterlimit:10;stroke-dasharray:none;stroke-dashoffset:0;stroke-opacity:1;color-rendering:auto;image-rendering:auto;shape-rendering:auto;text-rendering:auto;enable-background:accumulate"
       id="rect83"
       inkscape:connector-curvature="0" /><path
       d="m 259.63139,58.302947 c -9.09416,0 -16.54707,5.90518 -16.54707,13.291889 0,7.386717 7.45298,13.288487 16.54707,13.288487 8.78327,0 16.02872,-5.499404 16.51657,-12.539507 l 0,-0.0035 0,-0.0035 c 0.005,-0.09447 0.0131,-0.198923 0.0169,-0.311789 l 0.0135,-0.384659 -0.94894,0 -11.83627,0 0,3.095904 8.3303,0 c -1.62937,3.917894 -6.14928,6.855583 -11.65497,7.005183 l 0,-20.297062 c 6.17184,0.165659 11.19744,3.790425 12.19722,8.42689 l 0.0745,0.349069 3.65679,-0.633755 -0.0864,-0.382958 c -1.41278,-6.245686 -8.19102,-10.900908 -16.27934,-10.900908 z m 0,0.743905 c 7.6306,0 13.91872,4.314456 15.4253,9.948572 l -2.21475,0.384658 c -1.26262,-4.880207 -6.46644,-8.515116 -12.77335,-8.677678 l 0,-0.106758 -3.0993,0 0,0.305013 c -6.18777,0.990607 -10.89921,5.364796 -10.89921,10.692476 0,5.327689 4.71147,9.70357 10.89921,10.694168 l 0,1.167537 3.0993,0 0,-0.970965 C 266.09386,82.329963 271.1615,79.0359 272.71146,74.484 l 0.16776,-0.491408 -8.74207,0 0,-1.608111 11.09237,0 0.1593,0 c -0.51289,6.513427 -7.32464,11.754946 -15.75743,11.754946 -8.77322,0 -15.80317,-5.661038 -15.80317,-12.544591 0,-6.883545 7.03002,-12.547992 15.80317,-12.547984 z m -2.6621,2.604488 0,19.881899 c -5.82991,-0.975719 -10.15531,-5.087538 -10.15531,-9.940104 0,-4.852557 4.32543,-8.965738 10.15531,-9.941795 z m 18.57818,7.635996 c -1.36473,-6.033281 -7.97149,-10.611599 -15.91696,-10.611599 -8.93366,0 -16.17464,5.78428 -16.17464,12.919411 0,7.135131 7.24098,12.916808 16.17464,12.916808 8.62827,0 15.67577,-5.394728 16.14688,-12.193231 0.005,-0.100641 0.013,-0.203018 0.0165,-0.305394 l -0.5648,0 -11.46359,0 0,2.35206 8.59357,0 c -1.5235,4.474206 -6.64494,7.762404 -12.72854,7.762404 -7.28609,0 -13.18923,-4.715398 -13.18923,-10.533514 0,-5.818117 5.90314,-10.53525 13.18923,-10.53525 6.51567,0 11.92861,3.774054 12.99836,8.734983 l 2.9186,-0.506678 z"
       style="color:#000000;font-style:normal;font-variant:normal;font-weight:normal;font-stretch:normal;font-size:medium;line-height:normal;font-family:sans-serif;text-indent:0;text-align:start;text-decoration:none;text-decoration-line:none;text-decoration-style:solid;text-decoration-color:#000000;letter-spacing:normal;word-spacing:normal;text-transform:none;direction:ltr;block-progression:tb;writing-mode:lr-tb;baseline-shift:baseline;text-anchor:start;white-space:normal;clip-rule:nonzero;display:inline;overflow:visible;visibility:visible;opacity:1;isolation:auto;mix-blend-mode:normal;color-interpolation:sRGB;color-interpolation-filters:linearRGB;solid-color:#000000;solid-opacity:1;fill:#cec7c6;fill-opacity:1;fill-rule:nonzero;stroke:none;stroke-width:0.85720003;stroke-linecap:butt;stroke-linejoin:miter;stroke-miterlimit:10;stroke-dasharray:none;stroke-dashoffset:0;stroke-opacity:1;color-rendering:auto;image-rendering:auto;shape-rendering:auto;text-rendering:auto;enable-background:accumulate"
       id="rect83-3"
       inkscape:connector-curvature="0" /><path
       style="fill:#cec7c6;fill-opacity:1"
       d="m 181.40617,84.826973 -4.16187,0 -16.31866,-24.667564 3.26911,-1.376879 z m -23.33927,-0.08503 0,-26.830487 8.63608,0 c 2.21237,0 3.89812,0.08502 5.06417,0.256809 1.63629,0.218635 3.0071,0.636817 4.11328,1.252812 1.10446,0.616863 1.99635,1.479256 2.6696,2.588915 0.67326,1.109658 1.01076,2.329502 1.01076,3.660398 0,2.282652 -0.90144,4.211324 -2.70518,5.793824 -1.80026,1.579029 -5.05723,2.369412 -9.76742,2.369412 l -4.61476,0 0,10.90745 -4.40653,0 z m 4.4074,-14.075052 4.6833,0 c 2.84746,0 4.86809,-0.426859 6.06625,-1.281443 1.19381,-0.851982 1.79332,-2.053606 1.79332,-3.604873 0,-1.121805 -0.35398,-2.083972 -1.0576,-2.88303 -0.70449,-0.798191 -1.63282,-1.326558 -2.78152,-1.5825 -0.74353,-0.159638 -2.11347,-0.239457 -4.11242,-0.239457 l -4.5922,0 0,9.591303 z"
       id="polygon97"
       inkscape:connector-curvature="0" /><g
       id="text99"
       style="font-size:15.07320023px;font-family:ArialMT;fill:#cec7c6;fill-opacity:1"
       transform="matrix(0.97778364,0,0,0.86759862,158.50616,97.497036)"><path
         inkscape:connector-curvature="0"
         id="path4433"
         style="font-size:15.07320023px;font-family:ArialMT;fill:#cec7c6;fill-opacity:1"
         d="m 1.4793522,-10.988422 1.4867121,0 0,4.5042963 5.4022114,0 0,-4.5042963 1.4867121,0 0,10.988422 -1.4867121,0 0,-5.2329323 -5.4022114,0 0,5.2329323 -1.4867121,0 0,-10.988422 z" /><path
         inkscape:connector-curvature="0"
         id="path4435"
         style="font-size:15.07320023px;font-family:ArialMT;fill:#cec7c6;fill-opacity:1"
         d="m 16.486313,-9.5237896 -2.016629,5.4684511 4.040618,0 -2.023989,-5.4684511 z m -0.839036,-1.4646324 1.685431,0 L 21.520526,0 19.974934,0 18.97398,-2.8188651 l -4.953254,0 L 13.019771,0 11.452099,0 15.647277,-10.988422 Z" /><path
         inkscape:connector-curvature="0"
         id="path4437"
         style="font-size:15.07320023px;font-family:ArialMT;fill:#cec7c6;fill-opacity:1"
         d="m 22.94836,-10.988422 1.494072,0 0,6.6754848 q 0,1.7663907 0.640316,2.5465465 0.640317,0.77279596 2.075509,0.77279596 1.427833,0 2.068149,-0.77279596 0.640317,-0.7801558 0.640317,-2.5465465 l 0,-6.6754848 1.494072,0 0,6.8594839 q 0,2.1491086 -1.067194,3.24574277 -1.059835,1.0966342 -3.135344,1.0966342 -2.082869,0 -3.150063,-1.0966342 Q 22.94836,-1.9798295 22.94836,-4.1289381 l 0,-6.8594839 z" /><path
         inkscape:connector-curvature="0"
         id="path4439"
         style="font-size:15.07320023px;font-family:ArialMT;fill:#cec7c6;fill-opacity:1"
         d="m 32.634067,-10.988422 9.295631,0 0,1.2511935 -3.90078,0 0,9.7372285 -1.494072,0 0,-9.7372285 -3.900779,0 0,-1.2511935 z" /><path
         inkscape:connector-curvature="0"
         id="path4441"
         style="font-size:15.07320023px;font-family:ArialMT;fill:#cec7c6;fill-opacity:1"
         d="m 43.372251,-10.988422 6.947803,0 0,1.2511935 -5.461091,0 0,3.2531028 5.232932,0 0,1.2511934 -5.232932,0 0,3.9817389 5.59357,0 0,1.2511934 -7.080282,0 0,-10.988422 z" /><path
         inkscape:connector-curvature="0"
         id="path4443"
         style="font-size:15.07320023px;font-family:ArialMT;fill:#cec7c6;fill-opacity:1"
         d="m 65.937891,-10.142026 0,1.5676714 q -0.750716,-0.6991963 -1.604471,-1.0451145 -0.846396,-0.3459182 -1.803191,-0.3459182 -1.88415,0 -2.885105,1.1555139 -1.000954,1.1481539 -1.000954,3.3267024 0,2.1711885 1.000954,3.3267024 1.000955,1.1481539 2.885105,1.1481539 0.956795,0 1.803191,-0.3459181 0.853755,-0.3459182 1.604471,-1.0451145 l 0,1.55295178 q -0.780156,0.52991719 -1.655991,0.79487579 -0.868475,0.2649586 -1.83999,0.2649586 -2.495027,0 -3.93022,-1.52351197 -1.435192,-1.5308719 -1.435192,-4.1730979 0,-2.649586 1.435192,-4.1730979 1.435193,-1.5308721 3.93022,-1.5308721 0.986234,0 1.85471,0.264959 0.875835,0.257598 1.641271,0.780156 z" /><path
         inkscape:connector-curvature="0"
         id="path4445"
         style="font-size:15.07320023px;font-family:ArialMT;fill:#cec7c6;fill-opacity:1"
         d="m 68.079642,-10.988422 1.494073,0 0,6.6754848 q 0,1.7663907 0.640316,2.5465465 0.640317,0.77279596 2.075509,0.77279596 1.427833,0 2.068149,-0.77279596 0.640317,-0.7801558 0.640317,-2.5465465 l 0,-6.6754848 1.494072,0 0,6.8594839 q 0,2.1491086 -1.067194,3.24574277 -1.059835,1.0966342 -3.135344,1.0966342 -2.082869,0 -3.150063,-1.0966342 -1.059835,-1.09663417 -1.059835,-3.24574277 l 0,-6.8594839 z" /><path
         inkscape:connector-curvature="0"
         id="path4447"
         style="font-size:15.07320023px;font-family:ArialMT;fill:#cec7c6;fill-opacity:1"
         d="m 79.288861,-10.988422 1.486713,0 0,10.988422 -1.486713,0 0,-10.988422 z" /><path
         inkscape:connector-curvature="0"
         id="path4449"
         style="font-size:15.07320023px;font-family:ArialMT;fill:#cec7c6;fill-opacity:1"
         d="m 90.321446,-10.627784 0,1.4499126 q -0.846396,-0.4047979 -1.597112,-0.6035168 -0.750716,-0.198719 -1.449912,-0.198719 -1.214394,0 -1.87679,0.4710375 -0.655037,0.4710375 -0.655037,1.3395129 0,0.7286362 0.434238,1.1039942 0.441598,0.367998 1.663351,0.5961568 l 0.897916,0.1839991 q 1.663351,0.3164783 2.450867,1.118714 0.794875,0.7948758 0.794875,2.1343887 0,1.5971116 -1.074554,2.42142723 -1.067194,0.82431564 -3.135343,0.82431564 -0.780156,0 -1.663352,-0.17663906 -0.875835,-0.17663907 -1.81791,-0.52255724 l 0,-1.53087187 q 0.905275,0.5078373 1.773751,0.7654359 0.868475,0.25759866 1.707511,0.25759866 1.273273,0 1.965109,-0.50047736 0.691837,-0.5004773 0.691837,-1.4278324 0,-0.8095958 -0.500478,-1.2659133 -0.493117,-0.4563176 -1.626551,-0.6844764 l -0.905275,-0.1766391 q -1.663352,-0.3311982 -2.406708,-1.0377545 -0.743356,-0.7065562 -0.743356,-1.9651096 0,-1.4572723 1.023035,-2.2963076 1.030394,-0.839036 2.833585,-0.839036 0.772796,0 1.575032,0.139839 0.802235,0.13984 1.641271,0.419518 z" /><path
         inkscape:connector-curvature="0"
         id="path4451"
         style="font-size:15.07320023px;font-family:ArialMT;fill:#cec7c6;fill-opacity:1"
         d="m 93.302228,-10.988422 1.486712,0 0,10.988422 -1.486712,0 0,-10.988422 z" /><path
         inkscape:connector-curvature="0"
         id="path4453"
         style="font-size:15.07320023px;font-family:ArialMT;fill:#cec7c6;fill-opacity:1"
         d="m 97.74764,-10.988422 2.001909,0 4.872291,9.1925915 0,-9.1925915 1.44256,0 0,10.988422 -2.00191,0 -4.872298,-9.1925913 0,9.1925913 -1.442552,0 0,-10.988422 z" /><path
         inkscape:connector-curvature="0"
         id="path4455"
         style="font-size:15.07320023px;font-family:ArialMT;fill:#cec7c6;fill-opacity:1"
         d="m 109.0231,-10.988422 6.9478,0 0,1.2511935 -5.46109,0 0,3.2531028 5.23293,0 0,1.2511934 -5.23293,0 0,3.9817389 5.59357,0 0,1.2511934 -7.08028,0 0,-10.988422 z" /></g></g></svg>
