<?xml version="1.0" encoding="utf-8"?>
<!-- Generator: Adobe Illustrator 21.0.0, SVG Export Plug-In . SVG Version: 6.00 Build 0)  -->
<svg version="1.1" id="Layer_1" xmlns="http://www.w3.org/2000/svg" xmlns:xlink="http://www.w3.org/1999/xlink" x="0px" y="0px"
	 viewBox="0 0 312.6 296.1" style="enable-background:new 0 0 312.6 296.1;" xml:space="preserve">
<style type="text/css">
	.st0{fill:#FFFFFF;}
	.st1{opacity:0.85;}
	.st2{opacity:0.9;fill:#333333;enable-background:new    ;}
	.st3{fill:#877674;}
	.st4{opacity:0.9;}
	.st5{fill:#333333;}
	.st6{fill:#C95D4E;}
	.st7{fill:#111111;}
	.st8{fill:none;}
</style>
<title>landing-stamp_2</title>
<g>
	<g>
		<g>
			<path class="st0" d="M7,4.2v191.6l149.5,94.2L306,195.8V4.2H7z M300,192.5L156.5,283L13,192.5V10.2h287V192.5z"/>
		</g>
		<g class="st1">
			<polygon class="st0" points="294,16.2 294,189.2 156.5,275.9 19,189.2 19,16.2 			"/>
		</g>
	</g>
	<g>
		<path class="st2" d="M199.8,155.7l-12.2-2.7l-2.2-2.5l9.1,2l0.6-2.1l-12.1-2.7l-2.1-2.5l8.9,2l0.6-2.1l-11.9-2.6L158.4,119
			l25.7-28.8l3.1,8.4l1.6-3.7l8.6-19.3l-25.7,9L183,88l-26,29.1L131.9,88l11.4-3.5l-25.7-9l10.3,23l1.4-3.7l1.7-4.5l24.4,28.4
			l-21.2,23.6l-12.3,2.7l0.6,2.1l9.3-2.1l-2.3,2.5l-12.2,2.7l0.6,2.1l9.1-2l-2.3,2.5l-12.1,2.7l0.6,2.1l10.9-2.4l-0.1,10h2.4l0.2-11
			l2.2-2.5l-0.1,8.2h2.5l0.1-10.9l2.2-2.5l-0.1,8.1h2.4l0.1-10.8l20.9-23.4l19.9,23.1l0.1,11.1h2.5l-0.1-8.3l2.3,2.6l0.1,11h2.4
			l-0.1-8.1l2.2,2.5l0.1,10.9h2.4l-0.1-10l10.9,2.4L199.8,155.7z M181,84.4l10.8-3.8l-4.3,9.6l-1-2.7l3-4.7l-4.3,2.9L181,84.4z
			 M129.9,85.7l-4.2-2.8h-0.1l3,4.7l-1,2.7l-4.3-9.6l10.8,3.8L129.9,85.7z"/>
		<g>
			<path class="st3" d="M123.8,215.7c0.5-1.3,0.3-2.7-0.3-3.9c-0.7-1.1-1.8-1.8-3-1.9c-2.8-0.3-5.5,1.3-6.4,4c-0.4,1-0.2,2.1,0.3,3
				c0.6,0.8,1.6,1.3,2.6,1.2c0.1,0,0.3,0,0.4,0l-0.5,1.1c-0.5,1-1,1.9-1.6,2.9c-0.8,1.2-2.1,2.6-3.4,2.6l0,0c-0.2,0-0.5,0.1-0.5,0.4
				c0,0,0,0,0,0.1c0,0.2,0.2,0.5,0.4,0.5h0.1c3,0,5.3-4.8,5.8-5.9c0.1,0,0.3,0,0.4,0c1.1,0,2.1-0.3,3-0.9c0.2,0.2,0.5,0.3,0.6,0.6
				c0.9,1.1,0.7,2.6-0.6,4.2c-0.8,1-1.9,1.5-3.2,1.5c-0.9,0-1.7-0.5-2.1-1.2c-0.1-0.2-0.4-0.3-0.6-0.2l0,0c-0.2,0.1-0.3,0.4-0.2,0.6
				l0,0c0.6,1,1.7,1.6,2.8,1.7h0.3c1.4,0,2.8-0.7,3.6-1.8c1.5-1.9,1.7-3.9,0.6-5.3c-0.2-0.2-0.3-0.4-0.5-0.5
				C122.7,217.7,123.4,216.8,123.8,215.7z M117.8,217.2c-0.3,0.1-0.6,0.1-0.9,0.1c-0.7,0-1.4-0.3-1.9-0.9c-0.4-0.7-0.5-1.5-0.2-2.2
				c0.8-2.2,3-3.6,5.4-3.4h0.3L117.8,217.2z M118.1,219c0.5-0.3,1.1-0.4,1.7-0.4C119.3,218.8,118.7,219,118.1,219L118.1,219z
				 M121,218c-0.3-0.1-0.7-0.2-1.1-0.2s-0.8,0-1.2,0.1c1.2-0.4,2-1.4,2.3-2.6c0-0.2-0.1-0.5-0.4-0.5c-0.2,0-0.5,0.1-0.5,0.3l0,0
				c-0.2,0.6-0.6,1.2-1.1,1.5l2.4-5.5c0.5,0.3,0.9,0.7,1.2,1.1c0.5,1,0.6,2.1,0.2,3.1C122.5,216.5,121.9,217.4,121,218z"/>
			<path class="st3" d="M146.4,219.3c-0.2-0.1-0.5,0-0.6,0.3s-0.2,0.5-0.4,0.8c-0.9,1.6-2.2,2.7-2.8,2.4c-0.4-0.2-0.4-1.2,0-2.4
				v-0.1l0,0l0.1-0.3l0.1-0.2l0.9-2.3l1.8-4.4c0.1-0.2,0-0.5-0.3-0.6c-0.2-0.1-0.5,0-0.6,0.3l-1.6,3.9l0,0c-0.2-0.4-0.5-0.7-0.9-0.9
				c-1.2-0.4-3,1-4,3.2c-0.1,0.1-0.1,0.2-0.2,0.4l0,0c-0.1,0-0.1,0.1-0.2,0.2c-0.1,0.3-0.2,0.5-0.4,0.8c-0.9,1.5-2.2,2.7-2.8,2.4
				c-0.4-0.2-0.4-1.2,0.1-2.4l0.2-0.5c0.2-0.4,0.4-0.9,0.6-1.4c0.4-0.7,0.4-1.6,0.1-2.4c-0.2-0.3-0.6-0.5-0.9-0.5
				c-0.7,0.1-1.3,0.4-1.8,0.9c0-0.2-0.1-0.4-0.3-0.5s-0.5,0-0.6,0.3l-1.3,3.1v0.1l-0.1,0.3l0,0c-0.1,0.1-0.1,0.3-0.2,0.4
				c-0.7,1.2-1.8,2.2-3.2,2.5c-0.6,0.1-1.2,0-1.6-0.4s-0.6-0.9-0.6-1.4l0,0c1.5,0,2.9-0.7,3.9-1.8c1.1-1.1,1.4-2.4,0.8-3.1
				s-2.2-0.4-3.1,0.4c-1.4,1.1-2.2,2.8-2.4,4.6c0,0.8,0.3,1.6,0.9,2.2c0.5,0.4,1.1,0.6,1.8,0.6c0.2,0,0.4,0,0.6-0.1
				c0.7-0.1,1.4-0.5,2-0.9l-0.2,0.4c-0.1,0.2,0,0.5,0.3,0.6c0.1,0,0.1,0,0.2,0c0.2,0,0.4-0.1,0.4-0.3l1.3-3.2l0.1-0.2v-0.2h0.1v-0.1
				l0,0c0.3-0.6,0.7-1.1,1.1-1.7c0.8-1.1,1.6-1.7,2.1-1.7c0.1,0,0.1,0,0.2,0.1c0.3,0.4-0.2,2-0.7,3l0,0l-0.2,0.5
				c-0.7,1.7-0.5,3.2,0.5,3.6c0.2,0.1,0.3,0.1,0.5,0.1c1.1-0.2,2.1-0.8,2.6-1.7c0,0.3,0.1,0.6,0.2,0.9c0.2,0.4,0.5,0.7,0.9,0.8
				c0.1,0,0.3,0.1,0.4,0.1c1-0.1,1.8-0.6,2.4-1.4c0,0.6,0.3,1.1,0.8,1.3c0.2,0.1,0.3,0.1,0.5,0.1c1.1,0,2.5-1.2,3.4-2.9
				c0.2-0.3,0.3-0.6,0.4-0.9C146.7,219.6,146.6,219.4,146.4,219.3z M127,217.1c0.8-0.6,1.6-0.8,1.8-0.5s0,1.1-0.7,1.8
				c-0.8,0.9-1.9,1.4-3.1,1.5C125.4,218.8,126.1,217.8,127,217.1z M142.3,218.9l-0.5,1.2l0,0c0,0,0,0,0,0.1
				c-0.8,1.6-2.2,2.9-2.9,2.6c-0.2-0.1-0.3-0.2-0.4-0.4c-0.2-1.1,0-2.2,0.5-3.1c0.7-1.5,2-2.8,2.8-2.8c0.1,0,0.1,0,0.2,0
				c0.2,0.1,0.3,0.2,0.3,0.4C142.6,217.6,142.5,218.3,142.3,218.9L142.3,218.9z"/>
			<path class="st3" d="M147.4,222.7c0,0.1,0,0.1,0,0.2c-0.1,0.5-0.3,0.9-0.7,1.2c-0.1,0.1-0.2,0.2-0.3,0.2s-0.2,0-0.3-0.1
				c-0.2-0.2-0.2-0.5,0-0.6l0,0l0.1-0.1c-0.2-0.2-0.3-0.4-0.3-0.6c0-0.4,0.4-0.8,0.8-0.8C147.1,222.1,147.4,222.3,147.4,222.7z"/>
			<path class="st3" d="M166,212.7c-0.2,0.1-0.5-0.1-0.6-0.3c-0.1-0.5-0.4-0.9-0.9-1.1c-1.1-0.4-2.7,0.1-3.8,0.9
				c-2.1,1.5-3.7,3.5-4.6,5.9c-1.1,2.9-1,4.9,0.2,5.8c1.6,1.1,3.9-0.1,5.5-1.8c1.7-1.8,2.7-4.1,3-6.6c0.1-0.6,0-1.2-0.3-1.6
				c-0.3-0.3-0.7-0.5-1.1-0.4c-1.5,0.1-3.5,2.2-4.4,3.6c-0.1,0.2-0.4,0.2-0.6,0.1l0,0l0,0v0.1c-0.2-0.1-0.2-0.4-0.1-0.6
				c0.8-1.2,3-3.8,5.1-4c0.7-0.1,1.4,0.2,1.8,0.7c0.5,0.7,0.7,1.5,0.6,2.3c-0.3,2.7-1.4,5.1-3.2,7.1c-1.2,1.5-2.9,2.4-4.8,2.5
				c-0.7,0-1.3-0.2-1.9-0.6c-1.7-1.1-1.9-3.5-0.6-6.8c1-2.6,2.7-4.7,5-6.3c1.2-0.8,3.2-1.5,4.6-1c0.8,0.3,1.3,0.9,1.5,1.7
				C166.4,212.4,166.2,212.7,166,212.7z"/>
			<path class="st3" d="M202,219.3c-0.2-0.1-0.5,0-0.6,0.3s-0.2,0.5-0.4,0.8c-0.9,1.5-2.2,2.7-2.8,2.4c-0.4-0.2-0.4-1.2,0.1-2.4
				l0.2-0.5c0.2-0.4,0.4-0.9,0.6-1.4c0.4-0.7,0.4-1.6,0.1-2.4c-0.2-0.3-0.6-0.5-0.9-0.5c-0.7,0.1-1.3,0.4-1.8,0.9
				c0-0.2-0.1-0.4-0.3-0.5s-0.5,0-0.6,0.3l-1.5,3.4l0,0c-0.1,0.2-0.1,0.3-0.2,0.4c-0.2,0.3-0.3,0.6-0.5,0.8
				c-0.4,0.9-1.4,1.3-2.4,1.1c-0.1,0-0.1,0-0.2-0.1c0.3-0.4,0.7-0.8,0.9-1.2c0.8-1.1,1.1-2.6,0.9-3.9c-0.1-0.2-0.2-0.4-0.3-0.6
				l-0.1-0.1c-0.1-0.2-0.3-0.4-0.6-0.5c-1.3-0.6-3.4,0.6-4.7,2.7c-0.2,0.3-0.4,0.7-0.5,1l-0.1,0.1l-0.1,0.2
				c-0.1,0.2-0.2,0.3-0.2,0.5c-0.4,0.8-1,1.6-1.8,2.1c-0.3,0.2-0.6,0.3-0.9,0.5c0.9-2.2,2.4-5.7,2.4-5.7l0.3-0.6
				c0.1-0.2,0-0.5-0.3-0.6s-0.5,0-0.6,0.3l-0.2,0.6c-0.1-0.4-0.4-0.7-0.8-0.9c-1.3-0.6-3.3,0.6-4.5,2.6c-0.1,0.2-0.2,0.4-0.4,0.7
				l0,0c0,0-0.1,0.1-0.1,0.2c-0.1,0.3-0.2,0.5-0.4,0.8c-0.7,1.2-1.8,2.2-3.2,2.5c-0.6,0.1-1.2,0-1.6-0.4c-0.4-0.4-0.6-0.9-0.6-1.4
				l0,0c1.5,0,2.9-0.7,3.9-1.8c1.1-1.1,1.4-2.4,0.8-3.1s-2.1-0.4-3.1,0.4c-1,0.8-1.7,1.9-2.2,3.1c0,0,0,0.1-0.1,0.1
				c-0.1,0.3-0.2,0.5-0.4,0.8c-0.9,1.5-2.2,2.7-2.8,2.4c-0.4-0.1-0.4-1.2,0-2.4c0-0.1,0.1-0.1,0.1-0.2c0.4-0.6,0.4-1.4,0.1-2.1
				c-0.2-0.3-0.5-0.5-0.8-0.7c-0.1-0.1-0.2-0.2-0.4-0.3c-0.1-0.1-0.2-0.2-0.3-0.3c0.2-0.5,0.4-0.9,0.6-1.4c0.3-0.7,0.3-1.2,0.1-1.5
				c-0.1-0.2-0.3-0.2-0.6-0.2c-0.4,0.1-0.7,0.5-0.9,1.3c-0.2,0.6-0.3,1.2-0.2,1.8l-0.3,0.7c-0.3,0.7-0.6,1.4-0.9,2.1
				c-0.1,0.2,0,0.5,0.3,0.6s0.5,0,0.6-0.3c0.3-0.7,0.6-1.3,0.9-2c0-0.1,0.1-0.2,0.1-0.2l0.1,0.1c0.1,0.1,0.3,0.2,0.4,0.3
				c0.2,0.1,0.4,0.3,0.6,0.5c0.2,0.3,0.1,0.6-0.1,1.2l-0.1,0.2c-0.7,1.7-0.5,3.2,0.5,3.6c0.2,0.1,0.3,0.1,0.5,0.1
				c1.2-0.2,2.3-0.9,2.9-2c0.1,0.5,0.4,1,0.8,1.4c0.5,0.4,1.1,0.6,1.8,0.6c0.2,0,0.4,0,0.6-0.1c1.1-0.2,2.1-0.8,2.9-1.7
				c0,0.2,0,0.3,0.1,0.5c0.1,0.5,0.5,0.9,0.9,1.1c0.2,0.1,0.5,0.2,0.7,0.2c0.8-0.1,1.6-0.4,2.2-0.9c-0.1,0.3-0.2,0.5-0.3,0.7
				l-0.3,0.1c-1.6,0.4-3,1.4-3.8,2.8c-0.3,0.5-0.3,1.1,0,1.6c0.2,0.3,0.6,0.4,0.9,0.4c0.2,0,0.4,0,0.6-0.1c1.1-0.6,2.1-1.6,2.6-2.7
				c0.2-0.3,0.3-0.6,0.4-0.9c0.1-0.2,0.2-0.3,0.2-0.5c0.6-0.2,1.2-0.5,1.8-0.9c0.5-0.3,0.9-0.7,1.2-1.1c0,0.1,0,0.3,0.1,0.4
				c0.1,0.5,0.5,0.9,0.9,1.1c0.2,0.1,0.5,0.2,0.8,0.2c0.9-0.1,1.7-0.4,2.3-1c0.2,0.1,0.3,0.2,0.5,0.3s0.5,0.1,0.8,0.1
				c0.5,0,1-0.2,1.4-0.4l-0.1,0.4c-0.1,0.2,0,0.5,0.3,0.6c0.1,0,0.1,0,0.2,0c0.2,0,0.4-0.1,0.4-0.3l1.3-3.1l0.1-0.2V220h0.1l0.1-0.2
				l0,0c0.3-0.5,0.6-1,1-1.5c0.8-1.1,1.6-1.7,2.1-1.7c0.1,0,0.1,0,0.2,0.1c0.3,0.4-0.2,2-0.7,3l0,0l-0.2,0.5
				c-0.7,1.7-0.5,3.2,0.5,3.6c0.2,0.1,0.3,0.1,0.5,0.1c1.1,0,2.5-1.2,3.4-2.9c0.2-0.3,0.3-0.6,0.4-0.9
				C202.4,219.7,202.3,219.4,202,219.3L202,219.3z M175.5,217.1c0.8-0.6,1.6-0.8,1.8-0.5s0,1.1-0.7,1.8c-0.8,0.9-1.9,1.4-3.1,1.5
				C173.9,218.8,174.6,217.8,175.5,217.1L175.5,217.1z M181.5,225.1c-0.3,0.6-1.2,2-2.1,2.3c-0.3,0.1-0.5,0.1-0.6,0s0-0.4,0.1-0.6
				c0.7-1.1,1.7-1.9,2.9-2.3L181.5,225.1z M180,222.7c-0.2-0.1-0.3-0.3-0.4-0.5c-0.1-0.7,0-1.4,0.3-2.1c0-0.1,0.1-0.2,0.1-0.4
				c0.1-0.2,0.2-0.4,0.4-0.7c0.9-1.4,2.1-2.4,3-2.4c0.1,0,0.2,0,0.3,0.1c0.2,0.1,0.3,0.3,0.4,0.5c0.2,1.1-0.1,2.2-0.8,3.1
				C182.4,222,180.8,223.1,180,222.7z M189.5,222c-0.8,0.7-1.6,1-2.1,0.8c-0.2-0.1-0.4-0.3-0.4-0.6c-0.2-1.1,0.1-2.3,0.8-3.2
				c0.9-1.4,2.2-2.5,3.1-2.5c0.1,0,0.2,0,0.3,0.1c-0.8,0.9-1.3,1.9-1.7,3C189.2,220.4,189.2,221.2,189.5,222L189.5,222z
				 M190.2,221.2c-0.1-0.4,0-0.9,0.1-1.3c0.3-0.9,0.7-1.7,1.3-2.5c0,1-0.3,2.1-0.8,2.9C190.6,220.7,190.4,221,190.2,221.2
				L190.2,221.2z"/>
		</g>
		<g class="st4">
			<path class="st5" d="M91.5,40c0-0.8,0-0.8,0.8-0.8h1.2c0.4,0,0.5,0,0.6,0.5l0.5,2.7c0.7,4,1.4,8,2.1,11.9v0.1
				c0.1,0.1,0,0.4,0.2,0.4s0.1-0.2,0.2-0.4c0.2-1.1,0.4-2.2,0.6-3.3c0.7-3.8,1.3-7.5,2-11.3c0.1-0.6,0.1-0.6,0.6-0.6h1.6
				c0.4,0,0.4,0,0.5,0.5v26.4c0,0.8,0,0.8-0.8,0.8h-1.3c-0.4,0-0.4-0.1-0.4-0.4c0-0.2,0-0.3,0-0.5c0-3.5,0-7,0-10.4v-0.7
				c0,0,0-0.1-0.1-0.1s-0.1,0.1-0.1,0.1c-0.1,0.6-0.2,1.1-0.3,1.6c-0.3,1.8-0.6,3.7-1,5.6l-0.1,0.3c-0.1,0.4-0.1,0.4-0.5,0.4H96
				c-0.5,0-0.5,0-0.6-0.5c-0.3-1.7-0.6-3.4-0.9-5l-0.4-2c0-0.1-0.1-0.1-0.1-0.1s0,0.1,0,0.2c0,0.3,0,0.5,0,0.8v10.2
				c0,0.6,0,0.6-0.6,0.6s-1,0-1.5,0s-0.4,0-0.4-0.4V40z"/>
			<path class="st5" d="M112.5,42.6c-0.1-1.9-1.7-3.4-3.6-3.4c-2,0.1-3.6,1.7-3.6,3.6c0,3.5,0,6.9,0,10.4v10.4c0,0.2,0,0.5,0,0.7
				c0.3,1.6,1.7,2.8,3.4,2.9c1.6,0.1,3.1-0.8,3.6-2.3c0.2-0.6,0.4-1.2,0.4-1.9V43.4C112.6,43.1,112.6,42.8,112.5,42.6z M109.8,63.7
				c-0.1,0.4-0.5,0.8-0.9,0.8c-0.5,0-0.9-0.4-1-0.8c0-0.1,0-0.3,0-0.4V43.1c0-0.2,0-0.3,0-0.5c0.1-0.4,0.5-0.7,0.9-0.8
				c0.5,0,0.9,0.3,1,0.8V63.7z"/>
			<path class="st5" d="M121.7,52.6c-0.3-0.4-0.3-0.4,0-0.8c0.5-0.7,0.8-1.5,0.8-2.3c0-2.1,0-4.2,0-6.4c-0.1-2.2-1.8-3.9-4-3.8h-2.2
				c-0.6,0-0.6,0-0.6,0.6v26.5c0,0.5,0,0.5,0.6,0.5h2.3c0.3,0,0.5,0,0.8-0.1c1.9-0.4,3.2-2,3.2-3.9c0-2.6,0-5.3,0-7.9
				C122.4,54.1,122.2,53.3,121.7,52.6z M120,62.7c0,0.8-0.5,1.5-1.2,1.7c-0.5,0.2-0.7,0-0.7-0.5V53.7c0-0.2,0.2-0.3,0.4-0.3
				c0.6,0,1.1,0.4,1.3,0.9c0.1,0.3,0.2,0.6,0.2,0.9C120,55.2,120,62.7,120,62.7z M120,49.1c0.1,0.7-0.3,1.4-1,1.7l-0.3,0.1
				c-0.4,0.1-0.5,0-0.6-0.4v-8.2c0-0.5,0.2-0.6,0.7-0.5c0.7,0.2,1.2,0.9,1.2,1.6C120,43.4,120,49.1,120,49.1z"/>
			<path class="st5" d="M126.1,66.6V40c0-0.7,0-0.7,0.7-0.7c0.5,0,0.9,0,1.4,0s0.4,0,0.4,0.4v26.4c0,0.9,0.1,0.8-0.8,0.8h-1.3
				C126.3,67,126.1,66.9,126.1,66.6L126.1,66.6z"/>
			<path class="st5" d="M132.2,66.4V40.1c0-0.8,0-0.8,0.9-0.8h1.3c0.2,0,0.3,0.1,0.4,0.3v0.1v23.7c0,0.9,0,0.9,0.9,0.9h1.8
				c0.4,0,0.4,0,0.4,0.5c0,0.6,0,1.1,0,1.7c0,0.4,0,0.5-0.5,0.5h-4.7C132.3,66.9,132.2,66.9,132.2,66.4z"/>
			<path class="st5" d="M140.9,66.4V40.2c0-0.9,0-0.8,0.9-0.8h3.9c0.6,0,0.6,0,0.7,0.6v1.4c0,0.5,0,0.5-0.5,0.5H144
				c-0.5,0-0.5,0-0.5,0.5V50c0,0.4,0,0.5,0.6,0.5s0.9,0,1.4,0s0.4,0,0.4,0.4v1.8c0,0.4-0.1,0.4-0.5,0.4H144c-0.5,0-0.6,0-0.6,0.6v10
				c0,0.7,0,0.7,0.6,0.7h1.7c0.8,0,0.8,0,0.8,0.8c0,0.4,0,0.9,0,1.3c0,0.5,0,0.5-0.5,0.5h-4.6C140.9,66.9,140.9,66.9,140.9,66.4z"/>
			<path class="st5" d="M156.5,66.7V40.1c0-0.8,0-0.8,0.9-0.8h1c0.6,0,0.6,0,0.6,0.6v5c0,0.1,0,0.3,0,0.4c0,0,0,0.2,0.1,0.2l0.1-0.1
				l0.2-0.5c0.6-1.6,1.2-3.3,1.8-4.9c0.2-0.6,0.2-0.6,0.8-0.6h1.5c0.4,0,0.5,0.1,0.3,0.5c-0.6,1.6-1.2,3.2-1.8,4.8l-2.3,5.9
				c-0.1,0.4-0.1,0.8,0,1.1l4.2,14.4c0.2,0.8,0.2,0.8-0.6,0.8h-1.2c-0.5,0-0.5,0-0.6-0.5l-1.7-5.8c-0.2-0.6-0.4-1.2-0.6-1.8
				c0-0.1,0-0.2-0.1-0.2s-0.1,0.1-0.1,0.2c0,0.2,0,0.4,0,0.6v7.2c0,0.1-0.1,0.3-0.3,0.3l0,0c-0.6,0-1.3,0-2,0
				C156.6,66.9,156.5,66.8,156.5,66.7z"/>
			<path class="st5" d="M167.7,66.6V40c0-0.7,0-0.7,0.7-0.7c0.5,0,0.9,0,1.4,0s0.4,0,0.4,0.4v26.4c0,0.9,0.1,0.8-0.8,0.8h-1.3
				C167.9,66.9,167.8,66.8,167.7,66.6C167.7,66.7,167.7,66.6,167.7,66.6z"/>
			<path class="st5" d="M173.9,41.5v-1.8c0-0.2,0.1-0.4,0.4-0.4h6.8c0.2,0,0.3,0.1,0.3,0.3v2c0,0.2-0.1,0.3-0.4,0.3h-1.5
				c-0.6,0-0.6,0-0.6,0.7v24c0,0.2-0.1,0.4-0.3,0.4h-1.9c-0.2,0-0.3-0.1-0.3-0.3V42.4c0-0.5,0-0.6-0.6-0.6h-1.6
				C174,41.9,173.9,41.8,173.9,41.5z"/>
			<path class="st5" d="M184.4,63.7V53.2c0-3.4,0-6.9,0-10.4c0-1.7,1.2-3.2,2.9-3.5c1.9-0.4,3.9,0.8,4.3,2.7c0,0.2,0.1,0.4,0.1,0.5
				c0,0.3,0.1,0.7,0.1,1V48c0,0.7,0,0.7-0.7,0.7h-1.4c-0.6,0-0.6,0-0.6-0.6v-5.3c0-0.2-0.1-0.4-0.3-0.6c-0.2-0.3-0.6-0.4-0.9-0.3
				c-0.3,0.1-0.6,0.3-0.7,0.7c0,0.2,0,0.4,0,0.6v20.1c0,0.2,0,0.4,0.1,0.5c0.1,0.4,0.4,0.7,0.9,0.7c0.4,0,0.8-0.3,0.9-0.7
				c0-0.2,0-0.3,0-0.5V58c0-0.2,0.1-0.3,0.3-0.3l0,0h2.1c0.2,0,0.3,0.1,0.3,0.3c0,0.1,0,0.2,0,0.3v5c0,1-0.3,1.9-0.9,2.6
				c-1.3,1.5-3.6,1.8-5.1,0.5C184.9,65.7,184.4,64.7,184.4,63.7L184.4,63.7z"/>
			<path class="st5" d="M202,39.7c0,0.2,0,0.4,0,0.5v25.9c0,0.8,0,0.8-0.8,0.8h-1.1c-0.4,0-0.4,0-0.5-0.5V53.9c0-0.8,0-0.8-0.8-0.8
				h-1.2c-0.3,0-0.4,0.1-0.4,0.4v12.7c0,0.8,0,0.8-0.8,0.8h-1.3c-0.4,0-0.4-0.1-0.4-0.4V40.2c0-0.9,0-0.8,0.9-0.8h1.3
				c0.2,0,0.4,0.1,0.4,0.4V50c0,0.6,0,0.6,0.6,0.6h1.4c0.2,0,0.3-0.1,0.4-0.3v-0.1v-9.9c0-0.2,0-0.3,0-0.5c0-0.3,0.2-0.4,0.4-0.4
				h1.6C201.8,39.3,202,39.4,202,39.7z"/>
			<path class="st5" d="M205,66.4V40.2c0-0.9,0-0.8,0.9-0.8h3.9c0.6,0,0.6,0,0.7,0.6v1.4c0,0.5,0,0.5-0.5,0.5h-2
				c-0.5,0-0.5,0-0.5,0.5V50c0,0.4,0,0.5,0.6,0.5s0.9,0,1.4,0s0.4,0,0.4,0.4v1.8c0,0.4-0.1,0.4-0.5,0.4h-1.3c-0.5,0-0.6,0-0.6,0.6
				v10c0,0.7,0,0.7,0.6,0.7h1.7c0.8,0,0.8,0,0.8,0.8c0,0.4,0,0.9,0,1.3c0,0.5,0,0.5-0.5,0.5h-4.6C205,66.9,205,66.9,205,66.4z"/>
			<path class="st5" d="M214.4,39.2h1.3c0.4,0,0.5,0,0.6,0.5c0.2,1.4,0.5,2.9,0.8,4.3c0.4,2.1,0.7,4.2,1.1,6.4c0,0.1,0,0.2,0,0.3
				s0,0.3,0.2,0.3s0.1-0.2,0.1-0.3V39.8c0-0.4,0-0.5,0.5-0.5s1.1,0,1.6,0c0.4,0,0.4,0,0.4,0.4v26.4c0,0.9,0.1,0.8-0.8,0.8H219
				c-0.5,0-0.5,0-0.6-0.5c-0.2-0.9-0.3-1.8-0.5-2.7l-1.4-8.4c0-0.2,0-0.4-0.2-0.4s-0.1,0.3-0.1,0.5V66c0,0.9,0.1,0.9-0.9,0.9h-1.1
				c-0.6,0-0.6,0-0.6-0.6V40C213.7,39.2,213.7,39.2,214.4,39.2z"/>
		</g>
		<g class="st4">
			<path class="st5" d="M84.9,177c0,0.3,0.1,0.7,0.1,1v4.4c0,0.7,0,0.7-0.7,0.7h-1.4c-0.6,0-0.6,0-0.6-0.6v-5.2
				c0-0.2-0.1-0.4-0.3-0.6c-0.2-0.3-0.6-0.4-0.9-0.3c-0.3,0.1-0.6,0.3-0.7,0.7c0,0.2,0,0.4,0,0.6v20.1c0,0.2,0,0.4,0.1,0.5
				c0.1,0.4,0.4,0.7,0.9,0.7c0.4,0,0.8-0.3,0.9-0.7c0-0.2,0-0.3,0-0.5v-5.2c0-0.2,0.1-0.3,0.3-0.3c0,0,0,0,0.1,0h2.1
				c0.2,0,0.3,0.1,0.3,0.3s0,0.2,0,0.3v5c0,1-0.3,1.9-0.9,2.6c-1.3,1.5-3.6,1.8-5.1,0.5c-0.8-0.7-1.3-1.7-1.3-2.7v-10.5
				c0-3.4,0-6.9,0-10.4c0-1.7,1.2-3.2,2.9-3.5c1.9-0.5,3.9,0.7,4.4,2.7C84.8,176.6,84.9,176.8,84.9,177z"/>
			<path class="st5" d="M96.1,200.9l-0.5-5.7c-0.3-3.5-0.6-7-0.9-10.4l-0.7-8.5c0-0.6-0.1-1.2-0.2-1.8s-0.1-0.6-0.6-0.6h-2.4
				c-0.5,0-0.5,0-0.6,0.5l-0.4,4.5c-0.3,3.9-0.7,7.9-1,11.7c-0.2,2.4-0.4,4.9-0.6,7.3c-0.1,1-0.2,2-0.3,3c0,0.5,0,0.6,0.5,0.6h1.5
				c0.6,0,0.6,0,0.6-0.6c0.2-1.6,0.3-3.1,0.4-4.6c0.1-1,0.2-1.9,0.3-2.8c0-0.4,0-0.4,0.5-0.5h0.8c0.4,0,0.5,0.1,0.5,0.5
				c0.1,1,0.2,2.1,0.3,3.2l0.4,4.4c0,0.4,0.1,0.5,0.5,0.5h1.4C96.1,201.5,96.1,201.4,96.1,200.9z M92.2,190.3L92.2,190.3
				c-0.7,0-0.8,0-0.7-0.7l0.5-5.3c0-0.2-0.1-0.6,0.2-0.6s0.1,0.4,0.1,0.6l0.5,5.5C92.8,190.3,92.7,190.4,92.2,190.3L92.2,190.3z"/>
			<path class="st5" d="M106.6,174.1v2c0,0.2-0.1,0.3-0.4,0.3h-1.5c-0.6,0-0.6,0-0.6,0.7v24c0,0.2-0.1,0.4-0.3,0.4h-1.9
				c-0.2,0-0.3-0.1-0.3-0.3V177c0-0.5,0-0.6-0.6-0.6h-1.6c-0.3,0-0.4-0.1-0.4-0.4v-1.8c0-0.2,0.1-0.4,0.4-0.4h6.8
				C106.5,173.9,106.6,173.9,106.6,174.1z"/>
			<path class="st5" d="M115.2,199.6c0,0.4,0,0.9,0,1.3c0,0.5,0,0.5-0.5,0.5h-4.6c-0.4,0-0.5,0-0.5-0.5v-26.3c0-0.9,0-0.8,0.9-0.8
				h3.9c0.6,0,0.6,0,0.7,0.6v1.4c0,0.5,0,0.5-0.5,0.5h-1.9c-0.5,0-0.5,0-0.5,0.5v7.6c0,0.4,0,0.5,0.6,0.5s0.9,0,1.4,0s0.4,0,0.4,0.4
				v1.8c0,0.4-0.1,0.4-0.5,0.4h-1.3c-0.5,0-0.6,0-0.6,0.6v10c0,0.7,0,0.7,0.6,0.7h1.7C115.2,198.8,115.2,198.8,115.2,199.6z"/>
			<path class="st5" d="M125.1,184.1c0-2.2,0-4.3,0-6.4c-0.1-2.1-1.8-3.8-3.9-3.8H119c-0.7,0-0.7,0-0.7,0.7v26.6
				c0,0.2,0.1,0.4,0.4,0.4h1.3c0.8,0,0.8,0,0.8-0.8v-12.4c0-0.3,0.1-0.4,0.4-0.4s0.5,0.2,0.7,0.3c0.4,0.4,0.7,1,0.6,1.6v11.2
				c0,0.2,0.1,0.4,0.4,0.4h1.3c0.7,0,0.7,0,0.7-0.7c0-3.7,0-7.4,0-11.1c0-0.9-0.3-1.8-0.8-2.6c-0.2-0.3-0.2-0.3,0-0.6
				C124.7,185.8,125.1,184.9,125.1,184.1z M122.7,183.7c0,0.7-0.4,1.4-1.1,1.6c-0.1,0-0.2,0.1-0.4,0.1c-0.4,0-0.4,0-0.5-0.4v-8.3
				c0-0.5,0.2-0.6,0.7-0.5c0.7,0.2,1.2,0.9,1.2,1.6c0,1,0,2,0,3L122.7,183.7z"/>
			<path class="st5" d="M131.3,174.2v26.4c0,0.9,0.1,0.8-0.8,0.8h-1.3c-0.2,0-0.3-0.1-0.4-0.3V201v-26.5c0-0.7,0-0.7,0.7-0.7
				c0.5,0,0.9,0,1.4,0S131.3,173.9,131.3,174.2z"/>
			<path class="st5" d="M137.4,189.9v10.6c0,0.9,0.1,0.9-0.9,0.9h-1.1c-0.6,0-0.6,0-0.6-0.6v-26.3c0-0.8,0-0.8,0.8-0.8h1.4
				c0.4,0,0.5,0,0.6,0.5c0.2,1.4,0.5,2.9,0.8,4.3c0.4,2.1,0.7,4.2,1.1,6.4c0,0.1,0,0.2,0,0.3s0,0.3,0.2,0.3s0.1-0.2,0.1-0.3v-10.9
				c0-0.4,0-0.5,0.5-0.5s1.1,0,1.6,0c0.4,0,0.4,0,0.4,0.4v26.4c0,0.9,0.1,0.8-0.8,0.8h-1.2c-0.5,0-0.5,0-0.6-0.5
				c-0.2-0.9-0.3-1.8-0.5-2.7l-1.4-8.4c0-0.2,0-0.4-0.2-0.4S137.4,189.8,137.4,189.9z"/>
			<path class="st5" d="M152.6,177.5v5.1c0,0.4,0,0.5-0.5,0.5h-1.8c-0.4,0-0.5,0-0.5-0.5v-4.9c0-0.2,0-0.3,0-0.5
				c-0.1-0.5-0.5-0.8-0.9-0.8s-0.8,0.3-0.9,0.8c0,0.2,0,0.4,0,0.6v19.9c0,0.2,0,0.4,0,0.6c0.1,0.5,0.5,0.8,1,0.8
				c0.4,0,0.8-0.3,0.9-0.8c0-0.1,0-0.3,0-0.4v-5c0-0.6,0-0.6-0.6-0.6c-0.7,0-0.7,0-0.7-0.7V190c0-0.3,0.1-0.4,0.4-0.4h3.3
				c0.2,0,0.4,0.1,0.4,0.4v7.8c0,1-0.3,2-0.9,2.7c-1,1.2-2.6,1.6-4,1.1s-2.4-1.8-2.4-3.3v-21c0.1-1.9,1.6-3.4,3.4-3.5
				c2-0.1,3.7,1.5,3.8,3.5C152.6,177.3,152.6,177.4,152.6,177.5z"/>
			<path class="st5" d="M165.3,192.9v5.2c0.1,0.5,0.5,0.9,1,0.9s0.9-0.5,0.9-1c0-0.8,0-1.6,0-2.4c0-1.7-0.3-3.4-0.9-5l-3-8.2
				c-0.5-1.4-0.8-2.8-0.8-4.3c0-0.4,0-0.8,0-1.2c0.1-2,1.9-3.6,4-3.4c1.9,0.1,3.4,1.7,3.5,3.6c0,0.8,0,1.6,0,2.4
				c0,0.4,0,0.5-0.5,0.5h-1.8c-0.4,0-0.4,0-0.4-0.4v-2.3c0-0.3-0.1-0.6-0.3-0.8c-0.3-0.4-0.9-0.4-1.3-0.1c-0.1,0.1-0.2,0.2-0.3,0.4
				c0,0.1-0.1,0.3-0.1,0.4c-0.1,1.4,0.1,2.8,0.6,4.1l3.4,9.2c0.5,1.3,0.7,2.6,0.7,4c0,1.2,0,2.3,0,3.5c0,1.9-1.5,3.5-3.4,3.7
				c-2,0.2-3.8-1.2-4-3.2c0-0.1,0-0.2,0-0.3c0-0.8,0-1.7,0-2.6s0-1.8,0-2.7c0-0.5,0-0.5,0.5-0.5s1.1,0,1.7,0
				S165.3,192.5,165.3,192.9z"/>
			<path class="st5" d="M175.5,176.9v7.6c0,0.4,0,0.5,0.6,0.5s0.9,0,1.4,0s0.4,0,0.4,0.4v1.8c0,0.4-0.1,0.4-0.5,0.4h-1.3
				c-0.5,0-0.6,0-0.6,0.6v10c0,0.7,0,0.7,0.6,0.7h1.7c0.8,0,0.8,0,0.8,0.8c0,0.4,0,0.9,0,1.3c0,0.5,0,0.5-0.5,0.5h-4.6
				c-0.4,0-0.5,0-0.5-0.5v-26.2c0-0.9,0-0.8,0.9-0.8h3.9c0.6,0,0.6,0,0.7,0.6v1.4c0,0.5,0,0.5-0.5,0.5h-2
				C175.6,176.4,175.5,176.4,175.5,176.9z"/>
			<path class="st5" d="M188.5,184.1c0-2.2,0-4.3,0-6.4c-0.1-2.1-1.8-3.8-3.9-3.8h-2.2c-0.7,0-0.7,0-0.7,0.7v26.6
				c0,0.2,0.1,0.4,0.4,0.4h1.4c0.8,0,0.8,0,0.8-0.8v-12.4c0-0.3,0.1-0.4,0.4-0.4c0.3,0,0.5,0.2,0.7,0.3c0.4,0.4,0.7,1,0.6,1.6v11.2
				c0,0.2,0.1,0.4,0.4,0.4h1.3c0.7,0,0.7,0,0.7-0.7c0-3.7,0-7.4,0-11.1c0-0.9-0.3-1.8-0.8-2.6c-0.2-0.3-0.2-0.3,0-0.6
				C188.1,185.8,188.5,184.9,188.5,184.1z M186.1,183.7c0,0.7-0.4,1.4-1.1,1.6c-0.1,0-0.2,0.1-0.4,0.1c-0.4,0-0.4,0-0.5-0.4v-8.3
				c0-0.5,0.2-0.6,0.7-0.5c0.7,0.2,1.2,0.9,1.2,1.6c0,1,0,2,0,3L186.1,183.7z"/>
			<path class="st5" d="M198.7,174.4l-0.4,4.3c-0.3,3.2-0.5,6.3-0.8,9.4c-0.2,2.4-0.4,4.8-0.6,7.2c-0.2,1.9-0.3,3.7-0.4,5.6
				c0,0.5-0.1,0.6-0.6,0.6h-1.5c-0.4,0-0.5-0.1-0.5-0.5c-0.1-1-0.2-2.1-0.3-3.1c-0.2-3-0.5-6.1-0.8-9.1l-0.8-9.6
				c-0.1-1.6-0.2-3.2-0.4-4.8v-0.3c0-0.1,0.1-0.3,0.2-0.3c0,0,0,0,0.1,0h1.8c0.3,0,0.3,0.2,0.4,0.4c0,0.4,0.1,0.9,0.1,1.4l0.8,10.2
				c0,0.2,0,0.4,0.1,0.7c0,0,0,0.1,0.1,0.1s0.1-0.1,0.1-0.1l0.1-1.3l1-10.7v-0.2c0.1-0.4,0.1-0.4,0.5-0.4c0.5,0,1,0,1.4,0
				C198.7,173.9,198.7,173.9,198.7,174.4z"/>
			<path class="st5" d="M204.8,200.6c0,0.9,0.1,0.8-0.8,0.8h-1.3c-0.2,0-0.3-0.1-0.4-0.3V201v-26.5c0-0.7,0-0.7,0.7-0.7
				c0.5,0,0.9,0,1.4,0s0.4,0,0.4,0.4L204.8,200.6z"/>
			<path class="st5" d="M215.7,177c0,0.3,0.1,0.7,0.1,1v4.4c0,0.7,0,0.7-0.7,0.7h-1.4c-0.6,0-0.6,0-0.6-0.6v-5.2
				c0-0.2-0.1-0.4-0.3-0.6c-0.2-0.3-0.6-0.4-0.9-0.3c-0.3,0.1-0.6,0.3-0.7,0.7c0,0.2,0,0.4,0,0.6v20.1c0,0.2,0,0.4,0.1,0.5
				c0.1,0.4,0.4,0.7,0.9,0.7c0.4,0,0.8-0.3,0.9-0.7c0-0.2,0-0.3,0-0.5v-5.2c0-0.2,0.1-0.3,0.3-0.3c0,0,0,0,0.1,0h2.1
				c0.2,0,0.3,0.1,0.3,0.3s0,0.2,0,0.3v5c0,1-0.3,1.9-0.9,2.6c-1.3,1.5-3.6,1.7-5.2,0.4c-0.8-0.7-1.3-1.6-1.3-2.7v-10.5
				c0-3.4,0-6.9,0-10.4c0-1.7,1.2-3.2,2.9-3.5c1.9-0.5,3.9,0.7,4.3,2.6C215.6,176.6,215.7,176.8,215.7,177z"/>
			<path class="st5" d="M224.4,199.6c0,0.4,0,0.9,0,1.3c0,0.5,0,0.5-0.5,0.5h-4.6c-0.4,0-0.5,0-0.5-0.5v-26.3c0-0.9,0-0.8,0.9-0.8
				h3.9c0.6,0,0.6,0,0.7,0.6v1.4c0,0.5,0,0.5-0.5,0.5h-1.9c-0.5,0-0.5,0-0.5,0.5v7.6c0,0.4,0,0.5,0.6,0.5s0.9,0,1.4,0s0.4,0,0.4,0.4
				v1.8c0,0.4-0.1,0.4-0.5,0.4H222c-0.5,0-0.6,0-0.6,0.6v10c0,0.7,0,0.7,0.6,0.7h1.7C224.4,198.8,224.4,198.8,224.4,199.6z"/>
			<path class="st5" d="M234.8,194.7c0,1.2,0,2.3,0,3.5c0,1.9-1.5,3.5-3.4,3.7c-2,0.2-3.8-1.2-4-3.2c0-0.1,0-0.2,0-0.3
				c0-0.8,0-1.7,0-2.6s0-1.8,0-2.7c0-0.5,0-0.5,0.5-0.5s1.1,0,1.7,0s0.5,0,0.5,0.5v5.2c0.1,0.5,0.5,0.9,1,0.9s0.9-0.5,0.9-1
				c0-0.8,0-1.6,0-2.4c0-1.7-0.3-3.4-0.9-5l-3-8.2c-0.5-1.4-0.8-2.8-0.8-4.3c0-0.4,0-0.8,0-1.2c0.1-2,1.9-3.6,4-3.4
				c1.9,0.1,3.4,1.7,3.5,3.6c0,0.8,0,1.6,0,2.4c0,0.4,0,0.5-0.5,0.5h-1.8c-0.4,0-0.4,0-0.4-0.4v-2.3c0-0.3-0.1-0.6-0.3-0.8
				c-0.3-0.4-0.9-0.4-1.3-0.1c-0.1,0.1-0.2,0.2-0.3,0.4c0,0.1-0.1,0.3-0.1,0.4c-0.1,1.4,0.1,2.8,0.6,4.1l3.4,9.2
				C234.6,191.9,234.8,193.3,234.8,194.7z"/>
		</g>
		<g>
			<path class="st6" d="M43.5,123.6v5.7c0,0.1,0,0.2,0,0.2l0.2,0.3v0.1c0,0,0,0-0.1,0H42c0,0-0.1,0-0.1-0.1l0,0l0.2-0.3
				c0-0.1,0-0.2,0-0.2v-5.7c0-0.1,0-0.2,0-0.2l-0.2-0.3V123c0,0,0,0,0.1,0h1.7c0.1,0,0.1,0.1,0.1,0.1l-0.2,0.3
				C43.6,123.4,43.5,123.5,43.5,123.6z"/>
			<path class="st6" d="M51.4,123.6v5.7c0,0.1,0,0.2,0.1,0.2l0.1,0.3c0,0.1,0,0.1-0.1,0.1h-1.4c-0.1,0-0.1-0.1-0.2-0.1l-1.5-3.5
				c0-0.1,0-0.1,0,0v3c0,0.1,0,0.2,0.1,0.2l0.1,0.3v0.1l0,0h-1.7c0,0-0.1,0-0.1-0.1l0,0l0.2-0.3c0-0.1,0-0.2,0-0.2v-5.7
				c0-0.1,0-0.2,0-0.2l-0.2-0.3V123c0,0,0,0,0.1,0h1.4c0.1,0,0.1,0,0.2,0.1l1.5,3.6c0,0.1,0,0.1,0,0v-3c0-0.1,0-0.2,0-0.2l-0.2-0.3
				v-0.1c0,0,0,0,0.1,0h1.7c0,0,0.1,0,0.1,0.1c0,0,0,0,0,0.1l-0.1,0.3C51.4,123.5,51.4,123.6,51.4,123.6z"/>
			<path class="st6" d="M59.4,125C59.4,125.1,59.4,125.1,59.4,125l-1.8,0.1c0,0-0.1,0-0.1-0.1c0,0,0,0,0-0.1l0.1-0.3
				c0-0.1,0.1-0.1,0.1-0.2s-0.1-0.1-0.1-0.1h-1.3c-0.1,0-0.1,0.1-0.1,0.1l0,0v1.1c0,0.1,0.1,0.1,0.1,0.1l0,0h2c0.1,0,0.2,0,0.2,0.1
				l0.5,0.5c0.1,0.1,0.1,0.1,0.1,0.2v2.6c0,0.1,0,0.2-0.1,0.2l-0.5,0.5c-0.1,0.1-0.1,0.1-0.2,0.1h-2.7c-0.1,0-0.2,0-0.2-0.1
				l-0.6-0.5c-0.1-0.1-0.1-0.1-0.1-0.2v-0.7c0-0.1,0-0.2,0-0.2l-0.1-0.3c0-0.1,0-0.1,0.1-0.1h1.7c0.1,0,0.1,0,0.1,0.1l-0.2,0.3v0.1
				v0.1l0.1,0.1h1.3c0.1,0,0.1,0,0.1-0.1V127l-0.1-0.1h-2c-0.1,0-0.2,0-0.2-0.1l-0.6-0.5c-0.1-0.1-0.1-0.1-0.1-0.2v-2.5
				c0-0.1,0-0.2,0.1-0.2l0.6-0.5c0.1-0.1,0.1-0.1,0.2-0.1h2.7c0.1,0,0.2,0,0.2,0.1l0.5,0.5c0.1,0.1,0.1,0.1,0.1,0.2v0.7
				c0,0.1,0,0.2,0.1,0.2L59.4,125z"/>
			<path class="st6" d="M67,123.5l-0.5-0.5c-0.1-0.1-0.1-0.1-0.2-0.1h-3.7c-0.1,0-0.1,0-0.1,0.1l0.2,0.3c0,0.1,0,0.2,0,0.2v5.7
				c0,0.1,0,0.2,0,0.2l-0.2,0.3c0,0.1,0,0.1,0.1,0.1h1.6c0,0,0.1,0,0.1-0.1c0,0,0,0,0-0.1l-0.1-0.3c0-0.1-0.1-0.2-0.1-0.2v-2
				c0-0.1,0-0.1,0.1-0.1l0,0h2.1c0.1,0,0.2,0,0.2-0.1l0.5-0.5c0.1-0.1,0.1-0.1,0.1-0.2L67,123.5C67.1,123.6,67,123.6,67,123.5z
				 M65.7,125.7C65.7,125.8,65.6,125.8,65.7,125.7l-1.5,0.1c-0.1,0-0.1-0.1-0.1-0.1l0,0v-1.2c0-0.1,0.1-0.1,0.1-0.1l0,0h1.3
				c0.1,0,0.1,0.1,0.1,0.1l0,0L65.7,125.7z"/>
			<path class="st6" d="M71.7,123.6v5.7c0,0.1,0,0.2,0,0.2l0.2,0.3v0.1c0,0,0,0-0.1,0h-1.6c0,0-0.1,0-0.1-0.1l0,0l0.2-0.3
				c0-0.1,0-0.2,0.1-0.2v-5.7c0-0.1,0-0.2-0.1-0.2l-0.2-0.3V123l0,0h1.7c0.1,0,0.1,0.1,0.1,0.1l-0.2,0.3
				C71.7,123.4,71.7,123.5,71.7,123.6z"/>
			<path class="st6" d="M80.2,129.9l-0.4-0.5c-0.1-0.1-0.1-0.1-0.1-0.2l-0.7-2c0-0.1,0-0.1,0-0.2l0.4-0.4c0.1-0.1,0.1-0.1,0.1-0.2
				v-2.7c0-0.1,0-0.2-0.1-0.2l-0.5-0.5c-0.1-0.1-0.1-0.1-0.2-0.1H75c-0.1,0-0.1,0-0.1,0.1l0.2,0.3c0,0.1,0.1,0.2,0.1,0.2v5.7
				c0,0.1,0,0.2-0.1,0.2l-0.2,0.3c0,0.1,0,0.1,0.1,0.1h1.7c0,0,0.1,0,0.1-0.1c0,0,0,0,0-0.1l-0.1-0.3c0-0.1-0.1-0.2-0.1-0.2v-2
				c0-0.1,0-0.1,0.1-0.1l0,0h0.8c0.1,0,0.1,0.1,0.2,0.1l0.7,2.1c0,0.1,0,0.2,0,0.2l-0.1,0.1v0.1c0,0,0,0,0.1,0L80.2,129.9
				C80.2,130,80.2,130,80.2,129.9z M78.1,125.7C78.1,125.8,78,125.8,78.1,125.7l-1.4,0.1c-0.1,0-0.1-0.1-0.1-0.1v-1.2
				c0-0.1,0.1-0.1,0.1-0.1H78c0.1,0,0.1,0.1,0.1,0.1l0,0V125.7z"/>
			<path class="st6" d="M84.8,124.5v1.2c0,0.1,0.1,0.1,0.1,0.1h1c0.1,0,0.2,0,0.2,0l0.3-0.2c0.1,0,0.1,0,0.1,0.1v1.7
				c0,0.1,0,0.1-0.1,0.1l-0.3-0.1c-0.1,0-0.2-0.1-0.2-0.1h-1c-0.1,0-0.1,0.1-0.1,0.1v1.2c0,0.1,0.1,0.1,0.1,0.1h1.8
				c0.1,0,0.2,0,0.2-0.1l0.4-0.1c0.1,0,0.1,0,0.1,0.1v1.4c0,0.1-0.1,0.1-0.1,0.1h-4.1c-0.1,0-0.1-0.1-0.1-0.1l0.2-0.3
				c0-0.1,0-0.2,0-0.2v-5.7c0-0.1,0-0.2,0-0.2l-0.2-0.3c0-0.1,0-0.1,0.1-0.1h4.1c0.1,0,0.1,0.1,0.1,0.1v1.3c0,0.1-0.1,0.1-0.1,0.1
				l-0.4-0.1c-0.1,0-0.2,0-0.2,0H85C84.9,124.4,84.9,124.4,84.8,124.5z"/>
			<path class="st6" d="M95.1,123.6l-0.5-0.5c-0.1-0.1-0.1-0.1-0.2-0.1h-3.7c-0.1,0-0.1,0.1-0.1,0.1l0.2,0.3c0,0.1,0,0.2,0,0.2v5.7
				c0,0.1,0,0.2,0,0.2l-0.2,0.3c0,0.1,0,0.1,0.1,0.1h3.7c0.1,0,0.1,0,0.2-0.1l0.5-0.5c0.1-0.1,0.1-0.1,0.1-0.2v-5.3
				C95.1,123.7,95.1,123.6,95.1,123.6z M93.8,128.4c0,0.1-0.1,0.1-0.1,0.1l0,0h-1.4c-0.1,0-0.1-0.1-0.1-0.1v-3.9
				c0-0.1,0.1-0.1,0.1-0.1h1.4c0.1,0,0.1,0.1,0.1,0.1l0,0V128.4z"/>
			<path class="st6" d="M31.7,115.8L31.7,115.8C31.7,115.8,31.7,115.7,31.7,115.8l1.7-0.1c0,0,0.1,0,0.1,0.1c0,0,0,0,0,0.1l-0.2,0.3
				c0,0,0,0.1,0,0.2v0.1l0.1,0.1h1.3c0.1,0,0.1,0,0.1-0.1v-1.3c0-0.1-0.1-0.1-0.1-0.1h-2c-0.1,0-0.2,0-0.2-0.1l-0.6-0.5
				c-0.1-0.1-0.1-0.1-0.1-0.2v-2.5c0-0.1,0-0.2,0.1-0.2l0.6-0.5c0.1-0.1,0.1-0.1,0.2-0.1h2.7c0.1,0,0.2,0,0.2,0.1l0.5,0.5
				c0.1,0.1,0.1,0.1,0.1,0.2v0.7c0,0.1,0,0.2,0.1,0.2l0.2,0.3c0,0.1,0,0.1-0.1,0.1h-1.7c-0.1,0-0.1,0-0.1-0.1l0.1-0.3
				c0-0.1,0-0.1,0.1-0.2l-0.1-0.1h-1.3c-0.1,0-0.1,0.1-0.1,0.1l0,0v1.1c0,0.1,0.1,0.1,0.1,0.1l0,0h2c0.1,0,0.2,0,0.2,0.1l0.5,0.5
				c0.1,0.1,0.1,0.1,0.1,0.2v2.6c0,0.1,0,0.2-0.1,0.2l-0.5,0.5c-0.1,0.1-0.1,0.1-0.2,0.1h-2.7c-0.1,0-0.2,0-0.2-0.1l-0.6-0.5
				c-0.1-0.1-0.1-0.1-0.1-0.2v-0.7c0-0.1,0-0.2,0-0.2L31.7,115.8z"/>
			<path class="st6" d="M43.8,111v1.4c0,0,0,0.1-0.1,0.1l0,0l-0.4-0.1c-0.1,0-0.2,0-0.2-0.1h-1.8c-0.1,0-0.1,0.1-0.1,0.1v1.2
				c0,0.1,0.1,0.1,0.1,0.1h1c0.1,0,0.2,0,0.2-0.1l0.3-0.2h0.1c0,0,0,0,0,0.1v1.7c0,0,0,0.1-0.1,0.1c0,0,0,0-0.1,0l-0.3-0.1
				c-0.1,0-0.2-0.1-0.2-0.1h-1c-0.1,0-0.1,0.1-0.1,0.1v1.2c0,0.1,0.1,0.1,0.1,0.1H43c0.1,0,0.2,0,0.2-0.1l0.4-0.1
				c0.1,0,0.1,0,0.1,0.1v1.3c0,0.1,0,0.1-0.1,0.1l0,0h-4.1c-0.1,0-0.1,0-0.1-0.1l0.2-0.3c0-0.1,0-0.2,0-0.2v-5.7c0-0.1,0-0.2,0-0.2
				l-0.1-0.3c0-0.1,0-0.1,0.1-0.1L43.8,111C43.7,110.9,43.8,110.9,43.8,111z"/>
			<path class="st6" d="M51.7,117.8l-0.1-0.3c0-0.1-0.1-0.2-0.1-0.2l-1.4-5.7c0-0.1,0-0.2,0-0.2l0.1-0.3c0-0.1,0-0.1-0.1-0.1h-1.9
				c0,0-0.1,0-0.1,0.1c0,0,0,0,0,0.1l0.2,0.3c0,0.1,0,0.2,0,0.2l-1.4,5.7c0,0.1,0,0.2-0.1,0.2l-0.2,0.3v0.1c0,0,0,0,0.1,0h1.7
				c0,0,0.1,0,0.1-0.1l0,0l-0.1-0.3c0-0.1,0-0.2,0-0.2l0.1-0.5c0-0.1,0.1-0.1,0.2-0.1h1.1c0.1,0,0.1,0.1,0.2,0.1l0.1,0.5
				c0,0.1,0,0.2,0,0.2l-0.1,0.3v0.1c0,0,0,0,0.1,0h1.7C51.7,117.9,51.8,117.8,51.7,117.8z M49.5,115.2H49c0,0-0.1,0-0.1-0.1l0,0
				l0.3-1.2c0-0.1,0-0.1,0.1,0L49.5,115.2C49.6,115.2,49.6,115.2,49.5,115.2L49.5,115.2z"/>
			<path class="st6" d="M59.5,112.9C59.5,113,59.5,113,59.5,112.9l-1.8,0.1c-0.1,0-0.1,0-0.1-0.1l0.1-0.3c0-0.1,0-0.1,0-0.2
				l-0.1-0.1h-1.3c-0.1,0-0.1,0.1-0.1,0.1l0,0v1.1c0,0.1,0.1,0.1,0.1,0.1l0,0h2c0.1,0,0.2,0,0.2,0.1l0.5,0.5
				c0.1,0.1,0.1,0.1,0.1,0.2v2.6c0,0.1,0,0.2-0.1,0.2l-0.5,0.5c-0.1,0.1-0.1,0.1-0.2,0.1h-2.7c-0.1,0-0.2,0-0.2-0.1l-0.5-0.5
				c-0.1-0.1-0.1-0.1-0.1-0.2v-0.7c0-0.1,0-0.2,0-0.2l-0.1-0.3c0-0.1,0-0.1,0.1-0.1h1.7c0,0,0.1,0,0.1,0.1c0,0,0,0,0,0.1l-0.2,0.3
				c0,0,0,0.1,0,0.2v0.1l0.1,0.1h1.3c0.1,0,0.1,0,0.1-0.1v-1.3c0-0.1-0.1-0.1-0.1-0.1h-2c-0.1,0-0.2,0-0.2-0.1l-0.5-0.5
				c-0.1-0.1-0.1-0.1-0.1-0.2v-2.5c0-0.1,0-0.2,0.1-0.2l0.5-0.5c0.1-0.1,0.1-0.1,0.2-0.1h2.7c0.1,0,0.2,0,0.2,0.1l0.5,0.5
				c0.1,0.1,0.1,0.1,0.1,0.2v0.7c0,0.1,0,0.2,0.1,0.2L59.5,112.9z"/>
			<path class="st6" d="M66.9,111.5l-0.5-0.5c-0.1-0.1-0.1-0.1-0.2-0.1h-2.7c-0.1,0-0.2,0-0.2,0.1l-0.5,0.5
				c-0.1,0.1-0.1,0.1-0.1,0.2v5.3c0,0.1,0,0.2,0.1,0.2l0.5,0.5c0.1,0.1,0.1,0.1,0.2,0.1h2.7c0.1,0,0.2,0,0.2-0.1l0.5-0.5
				c0.1-0.1,0.1-0.1,0.1-0.2L66.9,111.5L66.9,111.5z M65.6,116.3C65.6,116.4,65.6,116.4,65.6,116.3L65.6,116.3l-1.4,0.1
				c-0.1,0-0.1-0.1-0.1-0.1l0,0v-3.9c0-0.1,0.1-0.1,0.1-0.1h1.3c0.1,0,0.1,0.1,0.1,0.1l0,0V116.3z"/>
			<path class="st6" d="M70.2,117.2v-5.7c0-0.1,0-0.2,0-0.2L70,111c0-0.1,0-0.1,0.1-0.1h1.4c0.1,0,0.1,0,0.2,0.1l1.5,3.6
				c0,0.1,0,0.1,0,0v-3c0-0.1,0-0.2,0-0.2L73,111v-0.1c0,0,0,0,0.1,0h1.7c0,0,0.1,0,0.1,0.1c0,0,0,0,0,0.1l-0.1,0.3
				c0,0.1-0.1,0.2-0.1,0.2v5.7c0,0.1,0,0.2,0.1,0.2l0.1,0.3c0,0.1,0,0.1-0.1,0.1h-1.4c-0.1,0-0.1-0.1-0.2-0.1l-1.5-3.5
				c0-0.1-0.1-0.1-0.1,0v3c0,0.1,0,0.2,0.1,0.2l0.1,0.3v0.1l0,0h-1.7c-0.1,0-0.1-0.1-0.1-0.1l0.2-0.3
				C70.2,117.4,70.2,117.3,70.2,117.2z"/>
			<path class="st6" d="M82.8,117.8l-0.1-0.3c0-0.1-0.1-0.2-0.1-0.2l-1.4-5.7c0-0.1,0-0.2,0-0.2l0.1-0.3c0-0.1,0-0.1-0.1-0.1h-1.9
				c-0.1,0-0.1,0-0.1,0.1l0.2,0.3c0,0.1,0,0.2,0,0.2l-1.4,5.7c0,0.1,0,0.2-0.1,0.2l-0.2,0.3v0.1l0,0h1.7c0,0,0.1,0,0.1-0.1
				c0,0,0,0,0-0.1l-0.1-0.3c0-0.1,0-0.2,0-0.2l0.1-0.5c0-0.1,0.1-0.1,0.2-0.1h1.1c0.1,0,0.1,0,0.2,0.1l0.1,0.5c0,0.1,0,0.2,0,0.2
				l-0.1,0.3c0,0.1,0,0.1,0.1,0.1H82.8C82.8,117.8,82.8,117.8,82.8,117.8L82.8,117.8z M80.5,115.2H80c0,0-0.1,0-0.1-0.1l0,0l0.3-1.2
				c0-0.1,0-0.1,0.1,0l0.3,1.2C80.6,115.1,80.6,115.2,80.5,115.2C80.6,115.2,80.5,115.2,80.5,115.2L80.5,115.2z"/>
			<path class="st6" d="M90,117.8h-4.2l0,0l0,0l0,0l0,0l0.2-0.3c0-0.1,0-0.2,0.1-0.2v-5.7c0-0.1,0-0.2-0.1-0.2l-0.2-0.3V111
				c0,0,0,0,0.1,0h1.6c0,0,0.1,0,0.1,0.1l0,0l-0.2,0.3c0,0.1-0.1,0.2-0.1,0.2v4.6v0.2c0,0.1,0.1,0.1,0.1,0.1h1.8h0.2l0.4-0.1h0.1
				l0,0L90,117.8C90,117.9,90,117.9,90,117.8z"/>
			<path class="st6" d="M93.1,117.9L93.1,117.9L93.1,117.9L93.1,117.9L93.1,117.9L93.1,117.9l0.2-0.3c0-0.1,0-0.2,0-0.2v-5.7
				c0-0.1,0-0.2,0-0.2l-0.2-0.3v-0.1c0,0,0,0,0.1,0h1.7c0,0,0.1,0,0.1,0.1l0,0l-0.2,0.3c0,0.1-0.1,0.2-0.1,0.2v4.6v0.2
				c0,0.1,0.1,0.1,0.1,0.1h1.8h0.2l0.4-0.1c0.1,0,0.1,0,0.1,0.1v1.4c0,0.1,0,0.1-0.1,0.1l0,0H93L93.1,117.9L93.1,117.9z"/>
			<path class="st6" d="M105.4,110.8C105.4,110.8,105.5,110.8,105.4,110.8l-0.3,0.5c-0.1,0.1-0.1,0.1-0.1,0.2l-1.2,2.6
				c0,0.1-0.1,0.2-0.1,0.2v2.9c0,0.1,0,0.2,0.1,0.2l0.2,0.3c0,0.1,0,0.1-0.1,0.1h-1.6c-0.1,0-0.1,0-0.1-0.1l0.2-0.3
				c0-0.1,0-0.2,0-0.2v-2.9c0-0.1,0-0.2,0-0.2l-1.2-2.5c0-0.1-0.1-0.1-0.1-0.2l-0.3-0.4v-0.1h1.9c0,0,0.1,0,0.1,0.1c0,0,0,0,0,0.1
				l-0.2,0.3c0,0.1,0,0.2,0,0.2l0.5,1.1c0,0.1,0.1,0.1,0.1,0l0.5-1.1c0-0.1,0-0.2,0-0.2l-0.2-0.3c0-0.1,0-0.1,0.1-0.1h1.8V110.8z"/>
		</g>
		<g>
			<path class="st6" d="M234.5,117.8l-0.4-0.5c-0.1-0.1-0.1-0.1-0.1-0.2l-0.7-2c0-0.1,0-0.2,0.1-0.2l0.4-0.4
				c0.1-0.1,0.1-0.1,0.1-0.2v-2.7c0-0.1,0-0.2-0.1-0.2l-0.5-0.5c-0.1-0.1-0.1-0.1-0.2-0.1h-3.7c-0.1,0-0.1,0-0.1,0.1l0.1,0.3
				c0,0.1,0,0.2,0,0.2v5.7c0,0.1,0,0.2,0,0.2l-0.1,0.3c0,0.1,0,0.1,0.1,0.1h1.6c0.1,0,0.1-0.1,0.1-0.1l-0.1-0.3
				c0-0.1-0.1-0.2-0.1-0.2v-2c0-0.1,0.1-0.1,0.1-0.1l0,0h0.8c0.1,0,0.1,0.1,0.2,0.1l0.7,2.1c0,0.1,0,0.2,0,0.2l-0.1,0.1
				c0,0.1,0,0.1,0.1,0.1L234.5,117.8C234.5,117.9,234.6,117.9,234.5,117.8z M232.4,113.6c0,0.1,0,0.1-0.1,0.1l0,0H231
				c-0.1,0-0.1-0.1-0.1-0.1l0,0v-1.2c0-0.1,0.1-0.1,0.1-0.1l0,0h1.3c0.1,0,0.1,0.1,0.1,0.1L232.4,113.6z"/>
			<path class="st6" d="M237.8,117.2v-5.7c0-0.1,0-0.2-0.1-0.2l-0.1-0.3c0-0.1,0-0.1,0.1-0.1h4.1c0.1,0,0.1,0.1,0.1,0.1l0,0v1.4
				c0,0.1,0,0.1-0.1,0.1l-0.4-0.1c-0.1,0-0.2,0-0.2,0h-1.9c-0.1,0-0.1,0.1-0.1,0.1l0,0v1.2c0,0.1,0.1,0.1,0.1,0.1l0,0h1
				c0.1,0,0.2,0,0.2-0.1l0.3-0.2c0.1,0,0.1,0,0.1,0.1v1.7c0,0.1-0.1,0.1-0.1,0.1l-0.3-0.1c-0.1,0-0.2-0.1-0.2-0.1h-1
				c-0.1,0-0.1,0.1-0.1,0.1l0,0v1.2c0,0.1,0.1,0.1,0.1,0.1h1.9c0.1,0,0.2,0,0.2-0.1l0.4-0.1c0.1,0,0.1,0,0.1,0.1v1.3
				c0,0.1,0,0.1-0.1,0.1l0,0h-4.1c0,0-0.1,0-0.1-0.1c0,0,0,0,0-0.1l0.1-0.3C237.7,117.4,237.8,117.3,237.8,117.2z"/>
			<path class="st6" d="M249.8,117.8l-0.1-0.3c0-0.1-0.1-0.2-0.1-0.2l-1.4-5.7c0-0.1,0-0.2,0-0.2l0.1-0.3c0-0.1,0-0.1-0.1-0.1h-1.9
				c-0.1,0-0.1,0-0.1,0.1l0.1,0.3c0,0.1,0,0.2,0,0.2l-1.4,5.7c0,0.1,0,0.2-0.1,0.2l-0.1,0.3v0.1l0,0h1.6c0.1,0,0.1-0.1,0.1-0.1
				l-0.1-0.3c0-0.1,0-0.2,0-0.2l0.1-0.5c0-0.1,0.1-0.1,0.1-0.1h1.1c0.1,0,0.1,0.1,0.2,0.1l0.1,0.5c0,0.1,0,0.2,0,0.2l-0.1,0.3
				c0,0.1,0,0.1,0.1,0.1h1.7C249.8,117.9,249.8,117.8,249.8,117.8z M247.5,115.2H247c0,0-0.1,0-0.1-0.1l0,0l0.3-1.2
				c0-0.1,0-0.1,0.1,0l0.3,1.2C247.6,115.1,247.6,115.2,247.5,115.2C247.6,115.2,247.6,115.2,247.5,115.2L247.5,115.2z"/>
			<path class="st6" d="M252.8,117.9L252.8,117.9L252.8,117.9C252.8,117.8,252.8,117.8,252.8,117.9l0.1-0.4c0-0.1,0-0.2,0-0.2v-5.7
				c0-0.1,0-0.2,0-0.2l-0.1-0.3c0-0.1,0-0.1,0.1-0.1h1.6c0,0,0.1,0,0.1,0.1l0,0l-0.1,0.3c0,0.1-0.1,0.2-0.1,0.2v4.6v0.2
				c0,0.1,0.1,0.1,0.1,0.1h1.8c0.1,0,0.2,0,0.2,0l0.4-0.1c0.1,0,0.1,0,0.1,0.1v1.4c0,0.1-0.1,0.1-0.1,0.1L252.8,117.9L252.8,117.9z"
				/>
			<path class="st6" d="M207,123.6v5.7c0,0.1,0,0.2,0,0.2l0.1,0.3c0,0.1,0,0.1-0.1,0.1h-1.6c0,0-0.1,0-0.1-0.1c0,0,0,0,0-0.1
				l0.1-0.3c0-0.1,0-0.2,0.1-0.2v-5.7c0-0.1,0-0.2-0.1-0.2l-0.1-0.3v-0.1c0,0,0,0,0.1,0h1.7c0.1,0,0.1,0,0.1,0.1l-0.1,0.3
				C207,123.4,207,123.5,207,123.6z"/>
			<path class="st6" d="M212,130h-1.6c-0.1,0-0.1-0.1-0.1-0.1l0.1-0.3c0-0.1,0-0.2,0-0.2v-5.7c0-0.1,0-0.2,0-0.2l-0.1-0.3
				c0-0.1,0-0.1,0.1-0.1h1.4c0.1,0,0.1,0,0.2,0.1l1.5,3.6c0,0.1,0,0.1,0,0v-3c0-0.1,0-0.2,0-0.2l-0.1-0.3v-0.1c0,0,0,0,0.1,0h1.6
				c0,0,0.1,0,0.1,0.1c0,0,0,0,0,0.1l-0.1,0.3c0,0.1-0.1,0.2-0.1,0.2v5.7c0,0.1,0,0.2,0.1,0.2l0.1,0.3v0.1l0,0h-1.4
				c-0.1,0-0.1-0.1-0.2-0.1l-1.5-3.5c0-0.1,0-0.1,0,0v3c0,0.1,0,0.2,0.1,0.2l0.1,0.3C212.1,129.9,212.1,130,212,130
				C212.1,130,212,130,212,130z"/>
			<path class="st6" d="M222.4,123.5c0.1,0.1,0.1,0.1,0.1,0.2v1.2c0,0.1-0.1,0.1-0.1,0.1H221v-0.1l0,0l0.1-0.3c0-0.1,0-0.2,0-0.2
				c0-0.1-0.1-0.1-0.1-0.1h-1.3c-0.1,0-0.1,0.1-0.1,0.1v3.9c0,0.1,0.1,0.1,0.1,0.1h1.4c0.1,0,0.1-0.1,0.1-0.1v-0.7
				c0-0.1-0.1-0.1-0.1-0.1h-0.4c-0.1,0-0.1,0-0.1-0.1l0,0v-1.2c0-0.1,0.1-0.1,0.1-0.1h1.9c0.1,0,0.1,0,0.1,0.1l0,0v2.9
				c0,0.1,0,0.2-0.1,0.2l-0.5,0.5c-0.1,0.1-0.1,0.1-0.2,0.1h-2.8c-0.1,0-0.2,0-0.2-0.1l-0.5-0.5c-0.1-0.1-0.1-0.1-0.1-0.2v-5.4
				c0-0.1,0-0.2,0.1-0.2l0.5-0.5c0.1-0.1,0.1-0.1,0.2-0.1h2.8c0.1,0,0.2,0,0.2,0.1L222.4,123.5z"/>
			<path class="st6" d="M230.8,129.9l-0.4-0.5c-0.1-0.1-0.1-0.1-0.1-0.2l-0.7-2c0-0.1,0-0.1,0.1-0.2l0.4-0.4
				c0.1-0.1,0.1-0.1,0.1-0.2v-2.7c0-0.1,0-0.2-0.1-0.2l-0.5-0.5c-0.1-0.1-0.1-0.1-0.2-0.1h-3.7c-0.1,0-0.1,0-0.1,0.1l0.1,0.3
				c0,0.1,0,0.2,0.1,0.2v5.7c0,0.1,0,0.2-0.1,0.2l-0.1,0.3c0,0.1,0,0.1,0.1,0.1h1.6c0,0,0.1,0,0.1-0.1c0,0,0,0,0-0.1l-0.1-0.3
				c0-0.1-0.1-0.2-0.1-0.2v-2c0-0.1,0.1-0.1,0.1-0.1l0,0h0.8c0.1,0,0.1,0.1,0.2,0.1l0.7,2.1c0,0.1,0,0.2,0,0.2l-0.1,0.1v0.1
				c0,0,0,0,0.1,0L230.8,129.9C230.8,130,230.9,130,230.8,129.9z M228.7,125.7c0,0.1,0,0.1-0.1,0.1l0,0h-1.3c-0.1,0-0.1-0.1-0.1-0.1
				l0,0v-1.2c0-0.1,0.1-0.1,0.1-0.1l0,0h1.3c0.1,0,0.1,0.1,0.1,0.1V125.7z"/>
			<path class="st6" d="M234.1,129.3v-5.7c0-0.1,0-0.2-0.1-0.2l-0.1-0.3c0-0.1,0-0.1,0.1-0.1h4.1c0.1,0,0.1,0.1,0.1,0.1l0,0v1.3
				c0,0.1-0.1,0.1-0.1,0.1l-0.4-0.1c-0.1,0-0.2,0-0.2-0.1h-1.9c-0.1,0-0.1,0.1-0.1,0.1l0,0v1.2c0,0.1,0.1,0.1,0.1,0.1h1
				c0.1,0,0.2,0,0.2-0.1l0.3-0.2c0.1,0,0.1,0,0.1,0.1v1.7c0,0.1,0,0.1-0.1,0.1l-0.3-0.1c-0.1,0-0.2-0.1-0.2-0.1h-1
				c-0.1,0-0.1,0.1-0.1,0.1v1.2c0,0.1,0.1,0.1,0.1,0.1l0,0h1.9c0.1,0,0.2,0,0.2,0l0.4-0.1c0.1,0,0.1,0,0.1,0.1v1.4
				c0,0.1,0,0.1-0.1,0.1l0,0H234c-0.1,0-0.1,0-0.1-0.1l0.1-0.3C234,129.5,234.1,129.4,234.1,129.3z"/>
			<path class="st6" d="M245.7,123.6l-0.5-0.5c-0.1-0.1-0.1-0.1-0.2-0.1h-3.7c0,0-0.1,0-0.1,0.1l0,0l0.1,0.3c0,0.1,0.1,0.2,0.1,0.2
				v5.7c0,0.1,0,0.2-0.1,0.2l-0.1,0.3c0,0.1,0,0.1,0.1,0.1h3.7c0.1,0,0.1,0,0.2-0.1l0.5-0.5c0.1-0.1,0.1-0.1,0.1-0.2v-5.3
				C245.8,123.7,245.7,123.6,245.7,123.6z M244.4,128.4c0,0.1-0.1,0.1-0.1,0.1h-1.4c-0.1,0-0.1-0.1-0.1-0.1v-3.9
				c0-0.1,0.1-0.1,0.1-0.1h1.4c0.1,0,0.1,0.1,0.1,0.1V128.4z"/>
			<path class="st6" d="M250.4,123.6v5.7c0,0.1,0,0.2,0,0.2l0.1,0.3c0,0.1,0,0.1-0.1,0.1h-1.6c0,0-0.1,0-0.1-0.1l0,0l0.1-0.3
				c0-0.1,0.1-0.2,0.1-0.2v-5.7c0-0.1,0-0.2-0.1-0.2l-0.1-0.3V123c0,0,0,0,0.1,0h1.6c0.1,0,0.1,0,0.1,0.1l-0.1,0.3
				C250.4,123.4,250.4,123.5,250.4,123.6z"/>
			<path class="st6" d="M253.7,122.9h4.1c0.1,0,0.1,0.1,0.1,0.1v1.3c0,0.1-0.1,0.1-0.1,0.1l-0.4-0.1c-0.1,0-0.2,0-0.2-0.1h-1.9
				c-0.1,0-0.1,0.1-0.1,0.1l0,0v1.2c0,0.1,0.1,0.1,0.1,0.1h1c0.1,0,0.2,0,0.2-0.1l0.3-0.2h0.1c0,0,0,0,0,0.1v1.7
				c0,0.1,0,0.1-0.1,0.1l-0.3-0.1c-0.1,0-0.2-0.1-0.2-0.1h-1c-0.1,0-0.1,0.1-0.1,0.1v1.2c0,0.1,0.1,0.1,0.1,0.1l0,0h1.9
				c0.1,0,0.2,0,0.2,0l0.4-0.1c0.1,0,0.1,0,0.1,0.1v1.4c0,0.1-0.1,0.1-0.1,0.1h-4.1c-0.1,0-0.1,0-0.1-0.1l0.1-0.3c0-0.1,0-0.2,0-0.2
				v-5.7c0-0.1,0-0.2,0-0.2l-0.1-0.3C253.6,123,253.6,122.9,253.7,122.9z"/>
			<path class="st6" d="M261.1,129.3v-5.7c0-0.1,0-0.2,0-0.2l-0.1-0.3c0-0.1,0-0.1,0.1-0.1h1.4c0.1,0,0.1,0,0.2,0.1l1.5,3.6
				c0,0.1,0,0.1,0,0v-3c0-0.1,0-0.2,0-0.2l-0.1-0.3c0,0,0-0.1,0.1-0.1h1.6c0,0,0.1,0,0.1,0.1c0,0,0,0,0,0.1l-0.1,0.3
				c0,0.1-0.1,0.2-0.1,0.2v5.7c0,0.1,0,0.2,0.1,0.2l0.1,0.3v0.1l0,0h-1.4c-0.1,0-0.1-0.1-0.2-0.1l-1.5-3.5c0-0.1,0-0.1,0,0v3
				c0,0.1,0,0.2,0.1,0.2l0.1,0.3v0.1c0,0,0,0-0.1,0H261c0,0-0.1,0-0.1-0.1c0,0,0,0,0-0.1l0.1-0.3
				C261.1,129.5,261.1,129.4,261.1,129.3z"/>
			<path class="st6" d="M268.7,124.4v-1.3c0-0.1,0.1-0.1,0.1-0.1h4.1c0.1,0,0.1,0.1,0.1,0.1v1.3c0,0,0,0.1-0.1,0.1l0,0l-0.4-0.1
				c-0.1,0-0.2,0-0.2-0.1h-0.7l-0.1,0.1v4.8c0,0.1,0,0.2,0.1,0.2l0.1,0.3c0,0.1,0,0.1-0.1,0.1h-1.7c0,0-0.1,0-0.1-0.1c0,0,0,0,0-0.1
				l0.1-0.3c0-0.1,0-0.2,0-0.2v-4.8c0-0.1,0-0.1-0.1-0.1l0,0h-0.6c-0.1,0-0.2,0-0.2,0.1L268.7,124.4
				C268.8,124.5,268.7,124.5,268.7,124.4z"/>
			<path class="st6" d="M280.9,125L280.9,125C280.9,125,280.9,125.1,280.9,125C280.8,125.1,280.8,125.1,280.9,125l-1.8,0.1
				c-0.1,0-0.1-0.1-0.1-0.1l0.1-0.3c0-0.1,0-0.1,0-0.2l-0.1-0.1h-1.3c-0.1,0-0.1,0-0.1,0.1l0,0v1.1c0,0.1,0.1,0.1,0.1,0.1h2
				c0.1,0,0.2,0,0.2,0.1l0.5,0.5c0.1,0.1,0.1,0.1,0.1,0.2v2.6c0,0.1,0,0.2-0.1,0.2l-0.5,0.5c-0.1,0.1-0.1,0.1-0.2,0.1H277
				c-0.1,0-0.2,0-0.2-0.1l-0.6-0.5c-0.1-0.1-0.1-0.1-0.1-0.2v-0.7c0-0.1,0-0.2,0-0.2l-0.1-0.3v-0.1c0,0,0,0,0.1,0h1.6
				c0.1,0,0.1,0,0.1,0.1l-0.1,0.3v0.1v0.1l0.1,0.1h1.3c0.1,0,0.1,0,0.1-0.1v-1.3l-0.1-0.1h-2c-0.1,0-0.2,0-0.2-0.1l-0.6-0.5
				c-0.1-0.1-0.1-0.1-0.1-0.2v-2.5c0-0.1,0-0.2,0.1-0.2l0.6-0.5c0.1-0.1,0.1-0.1,0.2-0.1h2.7c0.1,0,0.2,0,0.2,0.1l0.5,0.5
				c0.1,0.1,0.1,0.1,0.1,0.2v0.7c0,0.1,0,0.2,0.1,0.2L280.9,125z"/>
		</g>
	</g>
</g>
<path class="st7" d="M172.7,137.9L172.7,137.9L172.7,137.9z M172.7,137.9L172.7,137.9L172.7,137.9z M172.7,137.9L172.7,137.9
	L172.7,137.9z M172.7,137.9L172.7,137.9L172.7,137.9z M172.7,137.9L172.7,137.9L172.7,137.9z M172.7,137.9L172.7,137.9L172.7,137.9z
	 M172.7,137.9L172.7,137.9L172.7,137.9z M172.7,137.9L172.7,137.9L172.7,137.9z M172.7,137.9L172.7,137.9L172.7,137.9z M172.7,137.9
	L172.7,137.9L172.7,137.9z M172.7,137.9L172.7,137.9L172.7,137.9z M172.7,137.9L172.7,137.9L172.7,137.9z M172.7,137.9L172.7,137.9
	L172.7,137.9z M172.7,137.9L172.7,137.9L172.7,137.9z M172.7,137.9L172.7,137.9L172.7,137.9z M172.7,137.9L172.7,137.9L172.7,137.9z
	 M172.7,137.9L172.7,137.9L172.7,137.9z M172.7,137.9L172.7,137.9L172.7,137.9z M172.7,137.9L172.7,137.9L172.7,137.9z M172.7,137.9
	L172.7,137.9L172.7,137.9z M172.7,137.9L172.7,137.9L172.7,137.9z M172.7,137.9L172.7,137.9L172.7,137.9z M172.7,137.9L172.7,137.9
	L172.7,137.9z M172.7,137.9L172.7,137.9L172.7,137.9z M172.7,137.9L172.7,137.9L172.7,137.9z M172.7,137.9L172.7,137.9L172.7,137.9z
	 M172.7,137.9L172.7,137.9L172.7,137.9z M172.7,137.9L172.7,137.9L172.7,137.9z M172.7,137.9L172.7,137.9L172.7,137.9z M172.7,137.9
	L172.7,137.9L172.7,137.9z M172.7,137.9L172.7,137.9L172.7,137.9z M172.7,137.9L172.7,137.9L172.7,137.9z M172.7,137.9L172.7,137.9
	L172.7,137.9z M172.7,137.9L172.7,137.9L172.7,137.9z M172.7,137.9L172.7,137.9L172.7,137.9z M172.7,137.9L172.7,137.9L172.7,137.9z
	 M172.7,137.9L172.7,137.9L172.7,137.9z M172.7,137.9L172.7,137.9L172.7,137.9z M172.7,137.9L172.7,137.9L172.7,137.9z M172.7,137.9
	L172.7,137.9L172.7,137.9z M172.7,137.9L172.7,137.9L172.7,137.9z M172.7,137.9L172.7,137.9L172.7,137.9z M172.7,137.9L172.7,137.9
	L172.7,137.9z M172.7,137.9L172.7,137.9L172.7,137.9z M172.7,137.9L172.7,137.9L172.7,137.9z M172.7,137.9L172.7,137.9L172.7,137.9z
	 M172.7,137.9L172.7,137.9L172.7,137.9z M172.7,137.9L172.7,137.9L172.7,137.9z M172.7,137.9L172.7,137.9L172.7,137.9z M172.7,137.9
	L172.7,137.9L172.7,137.9z M172.7,137.9L172.7,137.9L172.7,137.9z M172.7,137.9L172.7,137.9L172.7,137.9z M172.7,137.9L172.7,137.9
	L172.7,137.9z M172.7,137.9L172.7,137.9L172.7,137.9z M172.7,137.9L172.7,137.9L172.7,137.9z M172.7,137.9L172.7,137.9L172.7,137.9z
	 M172.7,137.9L172.7,137.9L172.7,137.9z M172.7,137.9L172.7,137.9L172.7,137.9z M172.7,137.9L172.7,137.9L172.7,137.9z M172.7,137.9
	L172.7,137.9L172.7,137.9z M172.7,137.9L172.7,137.9L172.7,137.9z M172.7,137.9L172.7,137.9L172.7,137.9z M172.7,137.9L172.7,137.9
	L172.7,137.9z M172.7,137.9L172.7,137.9L172.7,137.9z M172.7,137.9L172.7,137.9L172.7,137.9z M172.7,137.9L172.7,137.9L172.7,137.9z
	 M172.7,137.9L172.7,137.9L172.7,137.9z M172.7,137.9L172.7,137.9L172.7,137.9z M172.7,137.9L172.7,137.9L172.7,137.9z M172.7,137.9
	L172.7,137.9L172.7,137.9z M172.7,137.9L172.7,137.9L172.7,137.9z M172.7,137.9L172.7,137.9L172.7,137.9z M172.7,137.9L172.7,137.9
	L172.7,137.9z M172.7,137.9L172.7,137.9L172.7,137.9z M172.7,137.9L172.7,137.9L172.7,137.9z M172.7,137.9L172.7,137.9L172.7,137.9z
	 M172.7,137.9L172.7,137.9L172.7,137.9z M172.7,137.9L172.7,137.9L172.7,137.9z M172.7,137.9L172.7,137.9L172.7,137.9z M172.7,137.9
	L172.7,137.9L172.7,137.9z M172.7,137.9L172.7,137.9L172.7,137.9z M172.7,137.9L172.7,137.9L172.7,137.9z M172.7,137.9L172.7,137.9
	L172.7,137.9z M172.7,137.9L172.7,137.9L172.7,137.9z M172.7,137.9L172.7,137.9L172.7,137.9z M172.7,137.9L172.7,137.9L172.7,137.9z
	 M172.7,137.9L172.7,137.9L172.7,137.9z M172.7,137.9L172.7,137.9L172.7,137.9z M172.7,137.9L172.7,137.9L172.7,137.9z M172.7,137.9
	L172.7,137.9L172.7,137.9z M172.7,137.9L172.7,137.9L172.7,137.9z M172.7,137.9L172.7,137.9L172.7,137.9z M172.7,137.9L172.7,137.9
	L172.7,137.9z M172.7,137.9L172.7,137.9L172.7,137.9z M172.7,137.9L172.7,137.9L172.7,137.9z M172.7,137.9L172.7,137.9L172.7,137.9z
	 M172.7,137.9L172.7,137.9L172.7,137.9z M172.7,137.9L172.7,137.9L172.7,137.9z M172.7,137.9L172.7,137.9L172.7,137.9z M172.7,137.9
	L172.7,137.9L172.7,137.9z M172.7,137.9L172.7,137.9L172.7,137.9z M172.7,137.9L172.7,137.9L172.7,137.9z M172.7,137.9L172.7,137.9
	L172.7,137.9z M172.7,137.9L172.7,137.9L172.7,137.9z M172.7,137.9L172.7,137.9L172.7,137.9z M172.7,137.9L172.7,137.9L172.7,137.9z
	 M172.7,137.9L172.7,137.9L172.7,137.9z M172.7,137.9L172.7,137.9L172.7,137.9z M172.7,137.9L172.7,137.9L172.7,137.9z M172.7,137.9
	L172.7,137.9L172.7,137.9z M172.7,137.9L172.7,137.9L172.7,137.9z M172.7,137.9L172.7,137.9L172.7,137.9z M172.7,137.9L172.7,137.9
	L172.7,137.9z M172.7,137.9L172.7,137.9L172.7,137.9z M172.7,137.9L172.7,137.9L172.7,137.9z M172.7,137.9L172.7,137.9L172.7,137.9z
	 M172.7,137.9L172.7,137.9L172.7,137.9z M172.7,137.9L172.7,137.9L172.7,137.9z M172.7,137.9L172.7,137.9L172.7,137.9z M172.7,137.9
	L172.7,137.9L172.7,137.9z M172.7,137.9L172.7,137.9L172.7,137.9z M172.7,137.9L172.7,137.9L172.7,137.9z M172.7,137.9L172.7,137.9
	L172.7,137.9z M172.7,137.9L172.7,137.9L172.7,137.9z M172.7,137.9L172.7,137.9L172.7,137.9z M172.7,137.9L172.7,137.9L172.7,137.9z
	 M172.7,137.9L172.7,137.9L172.7,137.9z M172.7,137.9L172.7,137.9L172.7,137.9z M172.7,137.9L172.7,137.9L172.7,137.9z M172.7,137.9
	L172.7,137.9L172.7,137.9z M172.7,137.9L172.7,137.9L172.7,137.9z M172.7,137.9L172.7,137.9L172.7,137.9z M172.7,137.9L172.7,137.9
	L172.7,137.9z M172.7,137.9L172.7,137.9L172.7,137.9z M172.7,137.9L172.7,137.9L172.7,137.9z M172.7,137.9L172.7,137.9L172.7,137.9z
	 M172.7,137.9L172.7,137.9L172.7,137.9z M172.7,137.9L172.7,137.9L172.7,137.9z M172.7,137.9L172.7,137.9L172.7,137.9z M172.7,137.9
	L172.7,137.9L172.7,137.9z M172.7,137.9L172.7,137.9L172.7,137.9z"/>
<line class="st8" x1="401.7" y1="190.5" x2="401.7" y2="8.2"/>
</svg>
