<svg xmlns="http://www.w3.org/2000/svg" viewBox="0 0 200 200"><defs><style>.cls-1{fill:#fff;}</style></defs><title>catering_menus</title><g id="Layer_2" data-name="Layer 2"><g id="Layer_1-2" data-name="Layer 1"><path class="cls-1" d="M100,0A100,100,0,1,0,200,100,100,100,0,0,0,100,0Zm49,149.13c-1.68,1.68-7.24.67-8.59-.51-2.52-2.18-3-7.74-12-16.66-1.68-1.68-12.12-12.29-22-22.39-2.19,2-3.37,3-3.37,3s-3.36-5-8.24-2.52l-18.69,20c-3,3.2-9.76,10.1-9.93,15.32s-5.39,7.23-11.95-.85c-1.69-1.68-3-5.55-1.35-7.23l32.83-30.64,9.09-9.09L86.7,89.2c-1.18-1.18-7.92,2.19-11.62-1.51S51,61.76,51,61.76l-1-1.85,1.85.84,19,18.18s1.35,1.35,2.19.68c.17-.17.67-.84-.67-2.19l-18-19-1-1.69,1.85,1,19,18s1.35,1.51,2.19.67-.68-2.19-.68-2.19L57.57,55l-1-1.85,1.86,1,19,18.18s1.34,1.35,2.19.67S79,70.85,79,70.85l-18-19-1-1.85,1.85,1S84.17,71.36,87.87,75.06s.34,10.44,1.52,11.62l8.25,8.08L114,78.43c3.87-3.87,15.31-15.15,22.55-20.37S147.63,50,147.63,50A67.81,67.81,0,0,1,131,84.49c-8.42,9.43-16.16,17-21.38,22,10.1,9.93,20.7,20.2,22.39,21.88,8.92,8.93,14.47,9.6,16.66,12C149.82,141.89,150.83,147.45,149,149.13Z"/></g></g></svg>