<?xml version="1.0" encoding="utf-8"?>
<!-- Generator: Adobe Illustrator 20.1.0, SVG Export Plug-In . SVG Version: 6.00 Build 0)  -->
<svg version="1.1" id="Layer_1" xmlns="http://www.w3.org/2000/svg" xmlns:xlink="http://www.w3.org/1999/xlink" x="0px" y="0px"
	 viewBox="0 0 150 150" style="enable-background:new 0 0 150 150;" xml:space="preserve">
<style type="text/css">
	.st0{fill:#FFFFFF;}
</style>
<title>menus</title>
<path class="st0" d="M104.1,119.2c-1,1-4.3,0.4-5.1-0.3c-1.5-1.3-1.8-4.6-7.1-9.9c-1-1-7.2-7.3-13.1-13.3c-1.3,1.2-2,1.8-2,1.8
	s-2-3-4.9-1.5l-11.1,11.9c-1.8,1.9-5.8,6-5.9,9.1s-3.2,4.3-7.1-0.5c-1-1-1.8-3.3-0.8-4.3L66.5,94l5.4-5.4l-4.8-5
	c-0.7-0.7-4.7,1.3-6.9-0.9S45.9,67.3,45.9,67.3l-0.6-1.1l1.1,0.5l11.3,10.8c0,0,0.8,0.8,1.3,0.4c0.1-0.1,0.4-0.5-0.4-1.3L47.9,65.3
	l-0.6-1l1.1,0.6l11.3,10.7c0,0,0.8,0.9,1.3,0.4s-0.4-1.3-0.4-1.3L49.8,63.3l-0.6-1.1l1.1,0.6l11.3,10.8c0,0,0.8,0.8,1.3,0.4
	s-0.4-1.3-0.4-1.3L51.8,61.4l-0.6-1.1l1.1,0.6c0,0,13.3,12.1,15.5,14.3s0.2,6.2,0.9,6.9l4.9,4.8l9.7-9.7c2.3-2.3,9.1-9,13.4-12.1
	s6.6-4.8,6.6-4.8c-1.3,7.7-4.7,14.8-9.9,20.5c-5,5.6-9.6,10.1-12.7,13.1c6,5.9,12.3,12,13.3,13c5.3,5.3,8.6,5.7,9.9,7.1
	C104.6,114.9,105.2,118.2,104.1,119.2z"/>
</svg>
