<?xml version="1.0" encoding="utf-8"?>
<!-- Generator: Adobe Illustrator 20.1.0, SVG Export Plug-In . SVG Version: 6.00 Build 0)  -->
<svg version="1.1" id="Layer_1" xmlns="http://www.w3.org/2000/svg" xmlns:xlink="http://www.w3.org/1999/xlink" x="0px" y="0px"
	 viewBox="0 0 150 150" style="enable-background:new 0 0 150 150;" xml:space="preserve">
<style type="text/css">
	.st0{fill:#FFFFFF;}
</style>
<title>contact</title>
<g>
	<polygon class="st0" points="87.8,92.1 87.8,84.1 80.3,84.1 80.3,88.9 76.1,88.9 73.9,88.9 69.7,88.9 69.7,84.1 62.2,84.1 
		62.2,92.1 49.5,104.9 49.5,118.7 71.3,118.7 78.7,118.7 100.5,118.7 100.5,104.9 	"/>
	<path class="st0" d="M103.7,77.2c-18.6-6.4-38.8-6.4-57.5,0c0,0-4.3,5.9-4.3,10.6c0,6.4,0,6.4,6.9,6.4c8.3,0,10.1-1.2,10.1-7.4
		c0-4.8,2.7-6.9,16-6.9s16,2.1,16,6.9c0,6.2,1.8,7.4,10.1,7.4c6.9,0,6.9,0,6.9-6.4C108,83.1,103.7,77.2,103.7,77.2z"/>
</g>
</svg>
