<svg xmlns="http://www.w3.org/2000/svg" viewBox="0 0 200 200"><defs><style>.cls-1{fill:#fff;}</style></defs><title>food_truck_circle</title><g id="Layer_2" data-name="Layer 2"><g id="Layer_1-2" data-name="Layer 1"><path class="cls-1" d="M100,0A100,100,0,1,0,200,100,100,100,0,0,0,100,0Zm61.76,117.92H152.6a7.59,7.59,0,0,1-7.06,7.06,7.46,7.46,0,0,1-7.86-7.06H83.77c-.13,5.23-3.53,7.06-7.45,7.06s-7.2-1.83-7.46-7.06H38.24V105.75h87.54v-2.36H38.24V75H145.67v3.53l-.4.13.13.4,5.37,19.62,11,4.19Z"/><polygon class="cls-1" points="148.02 94.76 137.95 94.76 137.95 81.94 144.49 81.94 148.02 94.76"/><rect class="cls-1" x="128.13" y="81.94" width="9.29" height="12.82"/><rect class="cls-1" x="77.62" y="80.23" width="14.53" height="18.58"/><rect class="cls-1" x="61.4" y="80.23" width="14.52" height="18.58"/></g></g></svg>