<?xml version="1.0" encoding="utf-8"?>
<!-- Generator: Adobe Illustrator 21.0.0, SVG Export Plug-In . SVG Version: 6.00 Build 0)  -->
<svg version="1.1" id="Layer_1" xmlns="http://www.w3.org/2000/svg" xmlns:xlink="http://www.w3.org/1999/xlink" x="0px" y="0px"
	 viewBox="0 0 200 200" style="enable-background:new 0 0 200 200;" xml:space="preserve">
<style type="text/css">
	.st0{fill:#333333;}
</style>
<title>food_truck_circle</title>
<g id="Layer_2">
	<g id="Layer_1-2">
		<path class="st0" d="M100,0C44.8,0,0,44.8,0,100s44.8,100,100,100s100-44.8,100-100S155.2,0,100,0z M161.8,117.9h-9.2
			c-0.3,3.8-3.3,6.8-7.1,7.1c-4.1,0.2-7.6-2.9-7.9-7l0,0H83.8c-0.1,5.2-3.5,7.1-7.4,7.1s-7.2-1.8-7.5-7.1H38.2v-12.2h87.5v-2.4H38.2
			V75h107.4v3.5l-0.4,0.1l0.1,0.4l5.4,19.6l11,4.2L161.8,117.9z"/>
		<polygon class="st0" points="148,94.8 137.9,94.8 137.9,81.9 144.5,81.9 		"/>
		<rect x="128.1" y="81.9" class="st0" width="9.3" height="12.8"/>
		<rect x="77.6" y="80.2" class="st0" width="14.5" height="18.6"/>
		<rect x="61.4" y="80.2" class="st0" width="14.5" height="18.6"/>
	</g>
</g>
</svg>
