<?xml version="1.0" encoding="utf-8"?>
<!-- Generator: Adobe Illustrator 20.1.0, SVG Export Plug-In . SVG Version: 6.00 Build 0)  -->
<svg version="1.1" id="Layer_1" xmlns="http://www.w3.org/2000/svg" xmlns:xlink="http://www.w3.org/1999/xlink" x="0px" y="0px"
	 viewBox="0 0 150 150" style="enable-background:new 0 0 150 150;" xml:space="preserve">
<style type="text/css">
	.st0{fill:#333333;}
	.st1{font-family:'Roboto-Bold';}
	.st2{font-size:20.38px;}
	.st3{fill:#FFFFFF;}
</style>
<title>food-truck</title>
<text transform="matrix(1 0 0 1 70.9113 113.63)" class="st0 st1 st2"> </text>
<path class="st3" d="M122.2,102.9l-8.4-3.2l-4.1-15l-0.1-0.3l0.3-0.1v-2.7H27.8v21.7h66.9v1.8H27.8v9.3h23.4c0.2,4,2.7,5.4,5.7,5.4
	s5.6-1.4,5.7-5.4h41.2c0.2,3.2,2.9,5.6,6,5.4c2.9-0.2,5.2-2.5,5.4-5.4h7 M56.6,99.8H45.5V85.6h11.1V99.8z M69,99.8H57.9V85.6H69
	V99.8z M96.5,96.7v-9.8h7.1v9.8H96.5z M104,96.7v-9.8h5l2.7,9.8H104z"/>
</svg>
