<?xml version="1.0" encoding="utf-8"?>
<!-- Generator: Adobe Illustrator 21.0.0, SVG Export Plug-In . SVG Version: 6.00 Build 0)  -->
<svg version="1.1" id="Layer_1" xmlns="http://www.w3.org/2000/svg" xmlns:xlink="http://www.w3.org/1999/xlink" x="0px" y="0px"
	 viewBox="0 0 200 200" style="enable-background:new 0 0 200 200;" xml:space="preserve">
<style type="text/css">
	.st0{fill:#333333;}
</style>
<title>philosophy_circle</title>
<g id="Layer_2">
	<g id="Layer_1-2">
		<path class="st0" d="M100,0C44.8,0,0,44.8,0,100s44.8,100,100,100s100-44.8,100-100S155.2,0,100,0z M121.6,140.1l-17.2-2.1
			l1.2,11.9h-11l1.2-11.9l-17.2,2.1l1.4-4.5H68.7l6.8-11.9h-1.4l6.9-15.1h-1.9L90,79h-0.9L100,50l10.9,29H110l10.9,29.5H119
			l6.9,15.1h-1.4l6.8,11.9h-11.2L121.6,140.1z"/>
	</g>
</g>
</svg>
