<?xml version="1.0" encoding="utf-8"?>
<!-- Generator: Adobe Illustrator 21.0.0, SVG Export Plug-In . SVG Version: 6.00 Build 0)  -->
<svg version="1.1" id="Layer_1" xmlns="http://www.w3.org/2000/svg" xmlns:xlink="http://www.w3.org/1999/xlink" x="0px" y="0px"
	 viewBox="0 0 200 200" style="enable-background:new 0 0 200 200;" xml:space="preserve">
<style type="text/css">
	.st0{fill:#FFFFFF;}
</style>
<title>services_circle</title>
<path class="st0" d="M100,0C44.8,0,0,44.8,0,100s44.8,100,100,100s100-44.8,100-100S155.2,0,100,0z M90.9,50.2c0-5,4.1-8.9,9.1-8.9
	s8.9,3.9,8.9,8.9v0.7c-6-1-12-1-18,0V50.2z M100,51.2c13.8,0,26.6,5.3,36.3,14.1c9.6,8.8,16.2,21,17.5,34.7H46.1
	C48.7,72.3,72,51.2,100,51.2z M158.6,111.3H41.4v-9.7h117.2V111.3z M105.6,49.2v-0.4c0-3.1-2.5-5.6-5.6-5.6s-5.6,2.5-5.6,5.6
	c0,0,0,0.3,0,0.4C98.1,48.6,101.9,48.6,105.6,49.2z"/>
</svg>
