<?xml version="1.0" encoding="utf-8"?>
<!-- Generator: Adobe Illustrator 20.1.0, SVG Export Plug-In . SVG Version: 6.00 Build 0)  -->
<svg version="1.1" id="Layer_1" xmlns="http://www.w3.org/2000/svg" xmlns:xlink="http://www.w3.org/1999/xlink" x="0px" y="0px"
	 viewBox="0 0 150 150" style="enable-background:new 0 0 150 150;" xml:space="preserve">
<style type="text/css">
	.st0{fill:#FFFFFF;}
</style>
<title>services</title>
<g>
	<rect x="35" y="114.2" class="st0" width="80" height="6.6"/>
	<path class="st0" d="M75,73c-3.4,0-6.2,2.7-6.2,6.1l0,0c0,0.2,0,0.3,0,0.5c4.1-0.7,8.2-0.7,12.3,0c0-0.2,0-0.3,0-0.5
		C81.1,75.7,78.4,73,75,73z M78.8,78.4c-2.5-0.4-5.1-0.4-7.6,0c0-0.1,0-0.3,0-0.3c0-2.1,1.7-3.8,3.8-3.8c2.1,0,3.8,1.7,3.8,3.8l0,0
		C78.8,78.2,78.8,78.3,78.8,78.4L78.8,78.4z"/>
	<path class="st0" d="M111.7,113.1H38.2C40,94.2,55.9,79.8,75,79.8l0,0C93.9,79.8,109.9,94.3,111.7,113.1z"/>
</g>
</svg>
