<?xml version="1.0" encoding="utf-8"?>
<!-- Generator: Adobe Illustrator 21.0.0, SVG Export Plug-In . SVG Version: 6.00 Build 0)  -->
<svg version="1.1" id="Layer_1" xmlns="http://www.w3.org/2000/svg" xmlns:xlink="http://www.w3.org/1999/xlink" x="0px" y="0px"
	 viewBox="0 0 200 200" style="enable-background:new 0 0 200 200;" xml:space="preserve">
<style type="text/css">
	.st0{fill:#333333;}
</style>
<title>the_farms_circle</title>
<g id="Layer_2">
	<g id="Layer_1-2">
		<path class="st0" d="M100,0C44.8,0,0,44.8,0,100s44.8,100,100,100s100-44.8,100-100S155.2,0,100,0z M50,97.5l10.2-13.7l11.4-15.1
			H114l5.3,7.6L134.1,97v40.7h-18V93.8h-46v43.8H50V97.5z M114.8,95.2v42.4H71.7V95.2H114.8z M150,144.9H50v-5.8h100V144.9z
			 M150,137.7h-13.7V96.5l-15.1-21.1V61.5H150V137.7z M121.1,60c0-3.9,1.5-7.6,4.2-10.4c5.3-5.6,14.2-5.8,19.8-0.5l0.1,0.1l0.4,0.3
			c2.9,2.7,4.4,6.5,4.4,10.4h-28.9L121.1,60L121.1,60z"/>
	</g>
</g>
</svg>
