<?xml version="1.0" encoding="utf-8"?>
<!-- Generator: Adobe Illustrator 20.1.0, SVG Export Plug-In . SVG Version: 6.00 Build 0)  -->
<svg version="1.1" id="Layer_1" xmlns="http://www.w3.org/2000/svg" xmlns:xlink="http://www.w3.org/1999/xlink" x="0px" y="0px"
	 viewBox="0 0 150 150" style="enable-background:new 0 0 150 150;" xml:space="preserve">
<style type="text/css">
	.st0{fill:none;}
	.st1{fill:#333333;}
	.st2{fill:#FFFFFF;}
</style>
<title>the-farms</title>
<line class="st0" x1="75" y1="82.9" x2="75" y2="82.9"/>
<path class="st1" d="M75,81L75,81L75,81z"/>
<g>
	<polygon class="st2" points="103.4,72.5 103.4,115.8 95.6,115.8 95.6,92.4 87,80.4 87,72.5 	"/>
	<polygon class="st2" points="94.4,92.7 94.4,115.8 84.2,115.8 84.2,90.9 58,90.9 58,115.8 46.6,115.8 46.6,93 52.4,85.2 58.9,76.6 
		83,76.6 86,80.9 	"/>
	<path class="st2" d="M103.4,71.7H87c0-2.2,0.8-4.3,2.4-5.9c3.1-3.2,8.1-3.3,11.3-0.2c0.1,0.1,0.2,0.2,0.2,0.2
		C102.5,67.3,103.4,69.4,103.4,71.7z"/>
	<rect x="46.6" y="116.6" class="st2" width="56.8" height="3.3"/>
	<rect x="58.9" y="91.7" class="st2" width="24.5" height="24.1"/>
</g>
</svg>
