<svg xmlns="http://www.w3.org/2000/svg" viewBox="0 0 200 200"><defs><style>.cls-1{fill:#fff;}</style></defs><title>the_farms_circle</title><g id="Layer_2" data-name="Layer 2"><g id="Layer_1-2" data-name="Layer 1"><path class="cls-1" d="M100,0A100,100,0,1,0,200,100,100,100,0,0,0,100,0ZM50,97.54,60.21,83.81,71.65,68.67h42.43l5.29,7.57L134.15,97v40.67h-18V93.84H70.07v43.84H50Zm64.79-2.29v42.43H71.65V95.25ZM150,144.9H50v-5.81H150Zm0-7.22H136.27V96.48L121.13,75.36V61.45H150ZM121.13,60a14.54,14.54,0,0,1,4.22-10.39,14,14,0,0,1,19.9-.35l.35.35A14.07,14.07,0,0,1,150,60Z"/></g></g></svg>