<svg xmlns="http://www.w3.org/2000/svg" viewBox="0 0 183.1 24.5"><defs><style>.cls-1{fill:none;}.cls-2{fill:#fff;}</style></defs><title>skinny-arrow</title><g id="Layer_2" data-name="Layer 2"><g id="Layer_1-2" data-name="Layer 1"><line class="cls-1" x1="24.6" y1="0.5" x2="23.9"/><line class="cls-1" x1="40.5" y1="13" x2="40" y2="13.4"/><polygon class="cls-2" points="158.35 22.1 162.66 13.56 28.18 13.71 17.3 21.74 0.29 21.74 0 21.37 12.78 11.88 0 2.46 0.29 2.1 17.3 2.1 29.13 10.79 27.88 10.79 16.79 2.68 1.39 2.68 13.87 11.88 1.39 21.15 16.79 21.15 27.88 13.05 163.76 12.9 159.81 20.71 181.27 12.1 159.81 3.49 163.76 11.08 162.88 11.08 158.35 2.1 183.1 12.1 158.35 22.1"/><line class="cls-1" x1="23.6" y1="24.5" x2="23.2" y2="24.5"/></g></g></svg>