<svg xmlns="http://www.w3.org/2000/svg" viewBox="0 0 183.1 24.5"><defs><style>.cls-1{fill:none;}.cls-2{fill:#fff;}</style></defs><title>skinny-arrow-left</title><g id="Layer_2" data-name="Layer 2"><g id="Layer_1-2" data-name="Layer 1"><line class="cls-1" x1="158.5" y1="24" x2="159.2" y2="24.5"/><line class="cls-1" x1="142.6" y1="11.5" x2="143.1" y2="11.1"/><polygon class="cls-2" points="24.75 2.4 20.44 10.94 154.92 10.79 165.8 2.76 182.81 2.76 183.1 3.13 170.32 12.62 183.1 22.04 182.81 22.4 165.8 22.4 153.97 13.71 155.22 13.71 166.31 21.82 181.71 21.82 169.23 12.62 181.71 3.35 166.31 3.35 155.22 11.45 19.34 11.6 23.29 3.79 1.83 12.4 23.29 21.01 19.34 13.42 20.22 13.42 24.75 22.4 0 12.4 24.75 2.4"/><line class="cls-1" x1="159.5" x2="159.9"/></g></g></svg>