<svg xmlns="http://www.w3.org/2000/svg" viewBox="0 0 335 2.73"><defs><style>.cls-1{fill:#fff;}</style></defs><title>chalk-line</title><g id="Layer_2" data-name="Layer 2"><g id="Layer_1-2" data-name="Layer 1"><polygon class="cls-1" points="335 1.46 334.07 1.37 333.78 1.62 335 1.46"/><path class="cls-1" d="M330.61.54,329,.64c.91.74-.31.53,2.17,1.05.87-.11,2.79-.37,2.54-.66a13.69,13.69,0,0,1-2.47.22c.4-.21,1.4-.19,1.86-.46-1.5-.23-.94.18-2.59.08Z"/><path class="cls-1" d="M328.73,1.27c.15-.13.3-.25.27-.36C328.85,1,328.08,1.2,328.73,1.27Z"/><path class="cls-1" d="M327.76,1.35c-1,0,0-.27-.09-.31l-1.14.48Z"/><path class="cls-1" d="M323.59,1.32l-.47,0C323.29,1.44,323.42,1.38,323.59,1.32Z"/><path class="cls-1" d="M321.54,1.38a3.44,3.44,0,0,0,1.58,0l-.06,0c-.57-.14,0-.48.89-.39,1-.08.88.26,1.72,0L324.52.71A10.12,10.12,0,0,0,321.54,1.38Z"/><path class="cls-1" d="M323.59,1.32l.54,0A.94.94,0,0,0,323.59,1.32Z"/><polygon class="cls-1" points="325.69 1.36 326.2 1.29 326.08 1.15 325.69 1.36"/><path class="cls-1" d="M318.12,1.4c.24-.46,2.45,0,2.71-.31-1.35,0-2.43-.32-2.13-.57l-1.49.14C316.71.84,317.34,1.18,318.12,1.4Z"/><path class="cls-1" d="M315.19.23a1.27,1.27,0,0,1-.34.08A.84.84,0,0,0,315.19.23Z"/><path class="cls-1" d="M307.64,1l3.49-.47c-.32.15-.19.29-1,.35,1.54.06,1.74-.23,3-.19.38.43-2.25,0-1.51.42a8,8,0,0,0,3-.4L316,1l-.48-.48c-.58-.14-1.17.37-1.52,0-.18-.2.4-.24.81-.29-.92.1-2.52-.37-4.39-.31S308.94.8,307.64,1Z"/><polygon class="cls-1" points="307.51 0.51 307.28 0.32 307.44 0.57 307.51 0.51"/><path class="cls-1" d="M303.7,1.12l1.82-.3a1.15,1.15,0,0,1,.43.23c-.07-.11.42-.3.34-.38-.84-.43-2.22.14-3.2.21-2.58-.19.12-.23-.88-.63.72,0,.75.11,1.75.14a11.41,11.41,0,0,0-4.57.08,2.4,2.4,0,0,0,.93.14l-1,.14A12.52,12.52,0,0,0,303.7,1.12Z"/><path class="cls-1" d="M307,1.12c-.68,0-.93,0-1-.06C306.14,1.17,306.37,1.26,307,1.12Z"/><path class="cls-1" d="M298.85.48a1.81,1.81,0,0,0,.54,0A2,2,0,0,0,298.85.48Z"/><path class="cls-1" d="M299.88,1l-1.27,0,.5.2C299.28,1.12,299.91,1.09,299.88,1Z"/><path class="cls-1" d="M251.21.33c.11.17.58.26,1.56.23-.12.23-1.39.19-2,.32,1.3.15,0,.27.31.5,1.45,0,2.09-.28,3.64-.22-.07.07,0,.17.16.25a45.41,45.41,0,0,1,6.84-.16,44.28,44.28,0,0,0,5-.13c6.34.12,13-.12,19.77.1l1-.45c.33.23,1.63,0,1.43.29a7.42,7.42,0,0,0-1.18,0c1.46.4,3.87,0,5.62.11-.2-.08-.48-.47,0-.54-.14.5,2.07,0,2.58.57,1.75.14.07-.44,1.89-.36.19-.3-1.75-.14-2.08-.37.57-.24,1.65.1,1.57-.21-2.92-.15-8.36.47-12.82.64L285,.61a30.72,30.72,0,0,1-7.82-.24c.43.26-3.37-.14-3,.46a7.39,7.39,0,0,0-1.58-.17l-.22.19c-1.18,0-1-.3-2.33-.28.88.26-.09.34-.49.55C268,.83,266.18.58,264.81.34a1.51,1.51,0,0,0,.7.29c-.93-.09-.77.16-1,.24-.9,0-.8-.32-.76-.49-1.65-.1-2.38.53-3.61.32l.43.27c-1.69.06-3.13-.23-5-.14-.91-.37,1.54-.32,2.31-.47a11.75,11.75,0,0,1-1.45-.22c-.8.19-2.14.44-3.14.61C254.23.34,251.85.36,251.21.33Z"/><path class="cls-1" d="M256.42.15,257,0a2.89,2.89,0,0,1-.62,0S256.35.12,256.42.15Z"/><path class="cls-1" d="M251.21.33l0,0C251,.32,251,.33,251.21.33Z"/><path class="cls-1" d="M262,1.27l-.24,0h-.31Z"/><path class="cls-1" d="M263.38.06c.36.09.87.19,1.43.28C264.65.22,264.52.13,263.38.06Z"/><path class="cls-1" d="M274.82.36c.35,0,.15-.13.39-.21C274.49.13,274.24.22,274.82.36Z"/><polygon class="cls-1" points="254.37 0.08 252.94 0.16 252.42 0.23 254.37 0.08"/><path class="cls-1" d="M225.5,1.46a27.31,27.31,0,0,0,4.65.19c2.84-.17.36-.7,3.06-.73l-.47.65c2.7,0,6.52.1,8.81-.48.2.08.68.18,0,.27,1.8,0,.93-.93,3.33-.71-2.24.41.73.39.12.79l-.35,0c1.52,0,3.54-.26,4.54-.23,0-.17-.84-.43.51-.45-.55,0-.33-.22-.28-.39-1.39.19-2.15.07-3,.29-.78-.22.53-.07-.26-.29L245,.63c-.83-.05.85-.22-.43-.27a6,6,0,0,1-2.19.24l.29-.08c-.77.09-1.85,0-1.48.34l-.91-.36.16.25c-2.1-.1-2.89-.69-5.6-.38.65.07.05.21-.3.25C235.7.8,236,.44,237,.41c.16.25-1.66.54-.36.69-1.43-.29-2.7,0-3.31-.58-1.72,0-2.37.26-4.12.12l0-.09c-.32.41-1.42-.18-2.72.23l.92.09c0,.17-.49.17-1.12.2.07-.07.07-.07-.13-.15-.19.3-2.16.34-2.41.43a23.58,23.58,0,0,0,2.81-.27C226.17,1.27,226.32,1.51,225.5,1.46Z"/><path class="cls-1" d="M243.26.38l-.56.14A1.43,1.43,0,0,0,243.26.38Z"/><path class="cls-1" d="M217.7.94c-1.1-.07.3-.25-.73-.39-1.12.21,1.28.42.19.73a8.32,8.32,0,0,0-2.22.14c.5-.18.21-.57,0-.65a13.57,13.57,0,0,1-2.1-.1c1.78.25-1.49.15.11.41a4.41,4.41,0,0,1-2.47.22c0-.17.6-.13,1-.14.37-.32-1.13-.17-1.38-.46-1.69.44-7.11.41-5.57,1.12a5.86,5.86,0,0,0,1.7-.07c-1.76-.14,0-.38.14-.5.75.11,2-.11,1.75.14L207,1.68c3.82.13,9,.08,13.44,0h-1.9a6.26,6.26,0,0,1,1.82-.3l-.93-.47c.55,0,1.07,0,1,.13.67-.2.36-.32,0-.48a10.12,10.12,0,0,0,2.74-.21c-2.36-.38-2,.32-4.69,0Z"/><polygon class="cls-1" points="222.86 0.69 222.29 0.93 223.16 0.81 222.86 0.69"/><path class="cls-1" d="M222,1.72c0-.1.32-.15.29-.25C221.15,1.4,221.28,1.54,222,1.72Z"/><path class="cls-1" d="M208.7.7l-1.42.08.92.09C208.18.77,208.53.72,208.7.7Z"/><path class="cls-1" d="M198.74,1.92a29.54,29.54,0,0,1,5,0c1.09-.31-.51-.57,0-.85-1.1-.07-1,.45-2.11.55-.43-.26-1.68.06-2.77,0C199,1.7,199,1.82,198.74,1.92Z"/><path class="cls-1" d="M192,.91a18,18,0,0,1-2.52.08c.1-.17.64-.23,1.18-.18-.34-.38-1,.06-2-.19.09,0,.44.1.17.19-2.42-.09-1.36.31-4.51.09-.46.1-.9.1-.83.35a29.07,29.07,0,0,0-3-.59c.08.15.79.48.77.79-3-.44-3.1.06-5-.27a4.22,4.22,0,0,1,1-.05c-.25-.44-1.62.08-2.7,0l.1-.37a15.72,15.72,0,0,1-4,0l.28-.19c-2.54.29-5.5.15-7.67.29L162.08.64c-3,.28,3,.13.78.69-.33-.69-1.54.22-3.24,0-.8-.27,1.72-.14.83-.46-.38.35-.9.1-1.81.2.2-.33-1.89,0-1.33-.42l-3.18.62A6.09,6.09,0,0,0,152,1.12c1.71,0-.47.5,1.45.65,2.8-.16,7.49-.27,11-.1.38-.46,2.25,0,2.81-.37.08.15.35.27.43.42,2.26-.1-.53-.25,0-.42,1-.06,1.79.21,1.7.38,1.62,0,.18-.13,1-.37l1.06.5c5-.15,11.73-.49,17.48-.21l-.43-.31c2.6.17,4.35-.7,6.66,0L196,1c-.43.15.45.47-.24.69.71-.11,1.46,0,2.2-.09l-1.3-.15a3.07,3.07,0,0,1,2.22.13c1.94-.32-1.15-.54-1.59-.81-2.73.58-2.75-.57-5.38-.33C190.26.63,192.06.74,192,.91Z"/><path class="cls-1" d="M195.34,1.77a2.61,2.61,0,0,0,.4-.08Z"/><path class="cls-1" d="M152,1.12l-.77,0C151,1.22,151.41,1.16,152,1.12Z"/><path class="cls-1" d="M198.86,1.59h0Z"/><polygon class="cls-1" points="200.16 0.81 199.44 0.81 199.57 0.95 200.16 0.81"/><path class="cls-1" d="M144.34.72V.89C144.4.84,144.43.79,144.34.72Z"/><path class="cls-1" d="M123.54.62H124A1.78,1.78,0,0,0,123.54.62Z"/><path class="cls-1" d="M73.64,1a28.49,28.49,0,0,0-4.16.47l.1-.17c-.73.08-3.08.35-1.56.64l.37-.14c1.72-.24,1.25.27,2.6.38,1.62-.08,2.55-.7,4-.55.63,0,.53.15.35.27,1.44,0,2-.43,3-.5.39,1.25,4.43-.34,6.56.46,1.35-.1,3.15,0,4.87-.24-.91.31,1.62,0,1.24.38.48-.73,4.94.32,5.25-.59,2.33.26.1-.06,2.79.15,0,.1-.46.1-.64.12,1.07.19,1.64-.39,2.52,0,2.15.07.37-.25,1.64-.5a5.72,5.72,0,0,1,2.85.61c.2-.44,1.54-.23,2.63-.45-.27,0-1.8-.11-.8-.27,2.61.07,2.09-.29,4.52-.41,1.24.48-2.43,0-.29.4a17.74,17.74,0,0,0-3.54.55c2.07,0,4.6-.05,6.86-.25,1.26.06-.64.23.35.27,2.24.21,3.44-.49,5.24-.28L120,1.6c1.1-.33,4,.07,6-.11-.26-.12-.44-.21-.16-.29,0,.63,2.89-.33,4.94.12-.16-.4,1.83-.62,3.09-.66.44.11.35.27.34.38-2.06-.24-2,.43-3.63.62,1.36-.21,3.6,0,4.79-.28l-.46.31c1.89,0,1.65-.7,3.62-.41l-.19.23c4,0,8.63.38,11.8-.14.28-.19-1.32-.63-1.41-.78-1.9.16-3,.5-4.44.66V.89c-.33.25-2.07.39-1.11.58-1.18.18-.89-.31-2.25-.11.11-.37.92-.41.93-.73l-1.18.18c.37-.14-.71-.13-.35-.27-2.18.45-3.05-.18-5.31,0l1.26.07c0,.21-.73.19-1.27.25a6,6,0,0,0-2.14-.38A12.72,12.72,0,0,1,130,1c.29-.4-2.24-.22-2.5-.55-.29.39-2.62.14-2.81.37C124,.94,123,.9,123,.69c.11,0,.32-.05.54-.07h-.72c.07,0,0-.08.13-.09-.64,0-.65.28-1.48.08,0-.1.45-.1.82-.14-1.71-.07-3,.6-4.42.24-.28.19-2.26.2-1.83.62-.53-.15-.34-.48-1.78-.42-.83.35-1.61-.13-2.7.1,1.46-.37,0-.1,1.28-.46-1-.15-2.45.33-4.16.26-.17-.08-.17-.19-.35-.27a3.25,3.25,0,0,1-2,.12l.08.25a39.39,39.39,0,0,1-4-.32l-1.46.48a13.31,13.31,0,0,0-6.14.38A5.88,5.88,0,0,1,93,1.22L93.77,1c-1.06,0-2.35-.29-2.94.11-1.09.12-.8-.27-1.6-.34-2.19.56-6.47-.41-7.13.44.9,0,2.6.17,4.32.14-.45.1-.1.27-.73.29-1.72,0-2.6-.28-4.32-.13L81.57,1C78.62.46,75.95,1.74,73.64,1Z"/><path class="cls-1" d="M95.61,1,94.36.71l.13.23A3.47,3.47,0,0,1,95.61,1Z"/><path class="cls-1" d="M94.5.94a7.3,7.3,0,0,0-.73.11A3.56,3.56,0,0,0,94.53,1Z"/><path class="cls-1" d="M68.69,1.06a7.22,7.22,0,0,0-1.35,0A4.18,4.18,0,0,0,68.69,1.06Z"/><polygon class="cls-1" points="67.24 1.22 67.87 1.31 67.96 1.24 67.24 1.22"/><path class="cls-1" d="M30.84,1.69l-2,.33c-.35-.17-2.61,0-1.88-.25-1.19.39-3.78,0-2.82.58C30,2.15,38.1,2.48,44.88,2l-1.09.23c3.53-.45,4.84.49,7.67-.4l-.38.46c1.61.13,3.09-.66,4.78-.18l-.17-.19c.45,0,.63.08,1.08.09l-.18-.08a10.14,10.14,0,0,1,3.06,0c.08.15-.54.06-.9.1a15.19,15.19,0,0,0,2.35-.16c.71.13,0,.21-.11.27,2.71-.2,3.95.28,5.87-.4.19-.13-.71-.23.28-.29a19.61,19.61,0,0,0-4.87.24h.45c-1.29.66-1-.15-3.07.14a14.3,14.3,0,0,1,1.82-.41c-2.41-.51-3.44.39-5-.26l.18,0a7.27,7.27,0,0,0-1.53.12,7.47,7.47,0,0,0,1.07.19,2,2,0,0,0-1,.48c-.62-.29-.81.14-1.8,0-.35-.27.82-.25,1.19-.39l-1.18.19c-1.08,0-1.06-.3-1.6-.44-.91.21.54.15-.2.44-1.16-.34-6.11-.24-8.47,0,.82,0,.29-.29,1.28-.25-.36-.06-1.62.08-1.63.29a24.11,24.11,0,0,1-5.22-.14l.44.21c-1.28.35-3.23-.26-5.49-.05h0a9.75,9.75,0,0,1-2.68.45C30.2,1.92,30.92,1.94,30.84,1.69Z"/><path class="cls-1" d="M22.9,2.18l.73-.29c-.81-.06-1.81.31-1.64.5.54-.06,1.26.07,1.36-.1C23.25,2.24,23.26,2.14,22.9,2.18Z"/><path class="cls-1" d="M7.77,2.22c-.3.07-.22.18-.35.26a82.4,82.4,0,0,1,8.43.08c1.08.08,1.27-.35,2.63-.45l.61.29c.73-.19,3,.13,2.18-.35A4.8,4.8,0,0,1,20,2.19l.1-.17-1.44.06.46-.21c-2-.3-1.38.62-3.8.43l0-.42a21.17,21.17,0,0,1-3.86-.13s0,.21.26.12.62.19.44.31c-2.45.33.37-.25-1.33-.42-2.08.29-6.05.53-7.21.19,1,.25-.48.52-1.64.5-.53-.15.37-.25.56-.37A7.32,7.32,0,0,0,1,2c.71.23.25.54-1,.68C2.78,2.94,5,2.17,7.77,2.22Z"/><path class="cls-1" d="M6.94,2.57a1,1,0,0,0,.48-.1H6.31Z"/></g></g></svg>